<svg xmlns="http://www.w3.org/2000/svg" xmlns:xlink="http://www.w3.org/1999/xlink" width="1059" height="736" viewBox="0 0 1059 736">
  <defs>
    <style>
      .cls-1 {
        clip-path: url(#clip-Web_1920_29);
      }

      .cls-2, .cls-4, .cls-6, .cls-7 {
        fill: #723167;
      }

      .cls-2 {
        opacity: 0.11;
      }

      .cls-3 {
        fill: #d3cad1;
        opacity: 0.19;
      }

      .cls-4 {
        mix-blend-mode: color-burn;
      }

      .cls-4, .cls-7 {
        isolation: isolate;
      }

      .cls-5 {
        opacity: 0.07;
      }

      .cls-7 {
        mix-blend-mode: color-dodge;
      }

      .cls-8 {
        fill: #fff;
      }
    </style>
    <clipPath id="clip-Web_1920_29">
      <rect width="1059" height="736"/>
    </clipPath>
  </defs>
  <g id="Web_1920_29" data-name="Web 1920 – 29" class="cls-1">
    <rect class="cls-8" width="1059" height="736"/>
    <g id="Group_873" data-name="Group 873" transform="translate(-401 -57)">
      <path id="Path_2431" data-name="Path 2431" class="cls-2" d="M143.35,254.532c73.6-66.739,162.494-127.411,242.832-175.249C447.061,43.055,515.663,11.9,591.609,2.452,686.637-9.391,788.632,21.82,832.852,90.076c78.294,120.994-22.337,274.949-120.621,370.158-123.12,119.127-287.583,162.414-482.56,145.9C72.4,592.837-53.974,525.164,23.335,394.486,51.73,346.474,94.133,299.161,143.35,254.532Z" transform="matrix(-0.946, -0.326, 0.326, -0.946, 1264.149, 932.791)"/>
      <path id="Path_2432" data-name="Path 2432" class="cls-3" d="M140.115,254.157c71.938-66.641,158.827-127.223,237.352-174.99,59.5-36.175,126.558-67.282,200.791-76.719,92.883-11.825,192.576,19.34,235.8,87.5,76.527,120.816-21.833,274.544-117.9,369.612-120.341,118.952-281.092,162.175-471.67,145.69C70.767,591.963-52.757,524.391,22.808,393.9,50.562,345.963,92.008,298.72,140.115,254.157Z" transform="matrix(-0.946, -0.326, 0.326, -0.946, 1224.364, 852.371)"/>
      <path id="texture-2_7_-i0" class="cls-4" d="M1214.428,498.423a2.517,2.517,0,1,0-1.836,3.052h0a2.508,2.508,0,0,0,1.836-3.052ZM1058.24,292.55a2.576,2.576,0,0,0-.86-3.546h0a2.357,2.357,0,0,0-3.263.684,1.349,1.349,0,0,0-.161.293,2.488,2.488,0,0,0,.731,3.429,2.611,2.611,0,0,0,3.552-.86Zm72.4,109.357a2.812,2.812,0,0,0,.494-3.679,2.624,2.624,0,1,0-4.171,3.184A2.824,2.824,0,0,0,1130.641,401.907Zm320.819-101.175a4.907,4.907,0,0,0,1.358-6.73,4.662,4.662,0,0,0-6.382-1.62,1.422,1.422,0,0,0-.217.141,4.907,4.907,0,0,0-1.358,6.73,4.788,4.788,0,0,0,6.6,1.48Zm-97.928,63.749a4.854,4.854,0,0,0-5.377-8.081,4.78,4.78,0,0,0-1.479,6.6h0A5.184,5.184,0,0,0,1353.532,364.481Zm-98.157,63.761a4.749,4.749,0,0,0,1.443-6.578,1.579,1.579,0,0,1-.093-.133,4.666,4.666,0,0,0-6.382-1.62,1.4,1.4,0,0,0-.217.141,5.183,5.183,0,0,0-1.483,6.859A4.932,4.932,0,0,0,1255.375,428.241ZM1494.1,547.1a4.8,4.8,0,1,0-3.786,5.753,4.963,4.963,0,0,0,3.786-5.753Zm-115,21.389a4.8,4.8,0,1,0-3.785,5.753,4.961,4.961,0,0,0,3.785-5.753ZM1252.614,173.343a4.878,4.878,0,0,0-1.35-6.73,4.717,4.717,0,0,0-6.574,1.174c-.012.012-.02.028-.032.036a4.636,4.636,0,0,0,.8,6.509c.1.072.193.145.3.233A5.149,5.149,0,0,0,1252.614,173.343Zm-66.285,96.475a5.143,5.143,0,0,0-1.214-6.847,4.887,4.887,0,0,0-6.727,1.351,4.809,4.809,0,0,0,1.25,6.678.707.707,0,0,1,.068.052,4.714,4.714,0,0,0,6.567-1.162C1186.309,269.843,1186.321,269.835,1186.329,269.819Zm-66.161,96.339a4.62,4.62,0,0,0-1.025-6.465,1,1,0,0,0-.189-.121,4.8,4.8,0,0,0-6.711,1.013c-.052.068-.1.125-.145.193a4.851,4.851,0,1,0,8.034,5.44A.44.44,0,0,1,1120.168,366.157Zm391.9,294.267a4.3,4.3,0,1,0-8.572.72,4.3,4.3,0,0,0,4.646,3.928h0A4.363,4.363,0,0,0,1512.067,660.424ZM1307.791,274a4.554,4.554,0,0,0-.611-6.24,4.164,4.164,0,0,0-5.875.47c-.041.056-.073.1-.113.153a4.274,4.274,0,0,0,.422,6.055c.028.02.04.032.068.052a4.52,4.52,0,0,0,6.108-.49Zm-67.012,79.823a4.278,4.278,0,0,0-.6-6,4.165,4.165,0,0,0-5.875.47c-.04.056-.072.1-.112.153a4.308,4.308,0,0,0,.41,6.071c.028.02.041.032.068.052a4.442,4.442,0,0,0,6.113-.748Zm-67.117,80.2a4.3,4.3,0,0,0-.41-6.071c-.028-.02-.036-.032-.068-.052a4.07,4.07,0,0,0-5.743.294,3.273,3.273,0,0,0-.262.322,4.3,4.3,0,0,0,.41,6.071c.028.02.04.032.068.052a4.41,4.41,0,0,0,6-.615Zm230.989,47.393a4.378,4.378,0,0,0,1.712-5.878,4.257,4.257,0,0,0-5.743-1.833,4.526,4.526,0,0,0-1.961,5.866,4.478,4.478,0,0,0,5.992,1.845Zm-92.656,48.21a4.143,4.143,0,0,0,1.965-5.516,1.226,1.226,0,0,1-.1-.233,4.254,4.254,0,0,0-5.743-1.833,4.526,4.526,0,0,0-1.961,5.866,4.325,4.325,0,0,0,5.843,1.717Zm-209.38-309.958a4.094,4.094,0,0,0-2.552-5.186,2.071,2.071,0,0,0-.245-.076,4.307,4.307,0,0,0-5.466,2.662,1.208,1.208,0,0,0-.04.141,4.458,4.458,0,0,0,2.934,5.4,4.234,4.234,0,0,0,5.328-2.742.547.547,0,0,1,.041-.193Zm-31.326,99.692a4.442,4.442,0,0,0-2.8-5.508,4.367,4.367,0,0,0-2.7,8.3,4.253,4.253,0,0,0,5.429-2.565.6.6,0,0,0,.073-.229ZM1601.794,595.32a5.175,5.175,0,0,0,1.969-6.855,5,5,0,0,0-6.719-2.091,5.114,5.114,0,0,0-1.969,6.855,4.994,4.994,0,0,0,6.719,2.091Zm-106.36,56.761a4.977,4.977,0,1,0-6.719-2.091,4.988,4.988,0,0,0,6.719,2.091Zm-283.41-381.74a5.236,5.236,0,0,0-3.424-6.36,5.033,5.033,0,0,0-2.829,9.657,5.134,5.134,0,0,0,6.253-3.3Zm-35,115.351a5.114,5.114,0,0,0-3.292-6.244,4.991,4.991,0,0,0-2.949,9.537,5.086,5.086,0,0,0,6.241-3.293Zm232.809,57.537a5.319,5.319,0,0,0-.719-7.1,5.035,5.035,0,0,0-6.98.848,4.895,4.895,0,0,0,.53,6.915l.085.06a5.014,5.014,0,0,0,7.085-.72ZM1333.273,536.5a5.058,5.058,0,0,0-.7-7.092l-.016-.012a4.857,4.857,0,0,0-6.84.716h0a4.949,4.949,0,0,0,7.559,6.389Zm151.482-58.309a4.947,4.947,0,1,0-7.114.47,5.044,5.044,0,0,0,7.114-.47Zm-79.969,89.6a5.042,5.042,0,0,0-.486-7.1,5.119,5.119,0,0,0-6.977.354,5.306,5.306,0,0,0,.353,7.221,5.178,5.178,0,0,0,7.11-.478ZM1244.263,406.081a5.1,5.1,0,0,0-3.171-6.372,4.917,4.917,0,0,0-6.241,3.056,4.851,4.851,0,0,0,2.717,6.292.713.713,0,0,0,.209.068,4.965,4.965,0,0,0,6.426-2.9.342.342,0,0,0,.06-.145Z" transform="translate(-234.801 299.821) rotate(-20)"/>
      <g id="Group_868" data-name="Group 868" class="cls-5" transform="translate(541.914 205)">
        <g id="Group_166" data-name="Group 166" transform="translate(20.926 20.945)">
          <g id="Group_132" data-name="Group 132" transform="translate(62.295 62.334)">
            <path id="Path_1103" data-name="Path 1103" class="cls-6" d="M1332.489,333.643a31.783,31.783,0,1,1,31.774-31.783A31.811,31.811,0,0,1,1332.489,333.643Zm0-59.193a27.41,27.41,0,1,0,27.4,27.41A27.436,27.436,0,0,0,1332.489,274.449Z" transform="translate(-1300.719 -270.076)"/>
          </g>
          <g id="Group_133" data-name="Group 133" transform="translate(43.696 43.717)">
            <path id="Path_1104" data-name="Path 1104" class="cls-6" d="M1343.395,363.166a50.4,50.4,0,1,1,50.373-50.4A50.441,50.441,0,0,1,1343.395,363.166Zm0-96.412a46.022,46.022,0,1,0,46,46.022A46.057,46.057,0,0,0,1343.395,266.754Z" transform="translate(-1293.026 -262.376)"/>
          </g>
          <g id="Group_134" data-name="Group 134" transform="translate(23.253 23.264)">
            <path id="Path_1105" data-name="Path 1105" class="cls-6" d="M1355.18,395.426A70.854,70.854,0,1,1,1426,324.572,70.913,70.913,0,0,1,1355.18,395.426Zm0-137.368a66.509,66.509,0,1,0,66.474,66.509A66.568,66.568,0,0,0,1355.18,258.058Z" transform="translate(-1284.368 -253.718)"/>
          </g>
          <g id="Group_135" data-name="Group 135">
            <path id="Path_1106" data-name="Path 1106" class="cls-6" d="M1368.815,432.33a94.117,94.117,0,1,1,94.065-94.117A94.2,94.2,0,0,1,1368.815,432.33Zm0-183.888a89.766,89.766,0,1,0,89.716,89.766A89.842,89.842,0,0,0,1368.815,248.443Z" transform="translate(-1274.75 -244.096)"/>
          </g>
        </g>
        <g id="Group_136" data-name="Group 136">
          <path id="Path_1107" data-name="Path 1107" class="cls-6" d="M1381.574,466.5a115.534,115.534,0,1,1,115.484-115.534A115.639,115.639,0,0,1,1381.574,466.5Zm0-226.686a111.161,111.161,0,1,0,111.112,111.161A111.259,111.259,0,0,0,1381.574,239.816Z" transform="translate(-1266.095 -235.433)"/>
        </g>
      </g>
      <path id="texture-2_7_-i0-2" data-name="texture-2_7_-i0" class="cls-7" d="M1214.428,498.423a2.517,2.517,0,1,0-1.836,3.052h0a2.508,2.508,0,0,0,1.836-3.052ZM1058.24,292.55a2.576,2.576,0,0,0-.86-3.546h0a2.357,2.357,0,0,0-3.263.684,1.349,1.349,0,0,0-.161.293,2.488,2.488,0,0,0,.731,3.429,2.611,2.611,0,0,0,3.552-.86Zm72.4,109.357a2.812,2.812,0,0,0,.494-3.679,2.624,2.624,0,1,0-4.171,3.184A2.824,2.824,0,0,0,1130.641,401.907Zm320.819-101.175a4.907,4.907,0,0,0,1.358-6.73,4.662,4.662,0,0,0-6.382-1.62,1.422,1.422,0,0,0-.217.141,4.907,4.907,0,0,0-1.358,6.73,4.788,4.788,0,0,0,6.6,1.48Zm-97.928,63.749a4.854,4.854,0,0,0-5.377-8.081,4.78,4.78,0,0,0-1.479,6.6h0A5.184,5.184,0,0,0,1353.532,364.481Zm-98.157,63.761a4.749,4.749,0,0,0,1.443-6.578,1.579,1.579,0,0,1-.093-.133,4.666,4.666,0,0,0-6.382-1.62,1.4,1.4,0,0,0-.217.141,5.183,5.183,0,0,0-1.483,6.859A4.932,4.932,0,0,0,1255.375,428.241ZM1494.1,547.1a4.8,4.8,0,1,0-3.786,5.753,4.963,4.963,0,0,0,3.786-5.753Zm-115,21.389a4.8,4.8,0,1,0-3.785,5.753,4.961,4.961,0,0,0,3.785-5.753ZM1252.614,173.343a4.878,4.878,0,0,0-1.35-6.73,4.717,4.717,0,0,0-6.574,1.174c-.012.012-.02.028-.032.036a4.636,4.636,0,0,0,.8,6.509c.1.072.193.145.3.233A5.149,5.149,0,0,0,1252.614,173.343Zm-66.285,96.475a5.143,5.143,0,0,0-1.214-6.847,4.887,4.887,0,0,0-6.727,1.351,4.809,4.809,0,0,0,1.25,6.678.707.707,0,0,1,.068.052,4.714,4.714,0,0,0,6.567-1.162C1186.309,269.843,1186.321,269.835,1186.329,269.819Zm-66.161,96.339a4.62,4.62,0,0,0-1.025-6.465,1,1,0,0,0-.189-.121,4.8,4.8,0,0,0-6.711,1.013c-.052.068-.1.125-.145.193a4.851,4.851,0,1,0,8.034,5.44A.44.44,0,0,1,1120.168,366.157Zm391.9,294.267a4.3,4.3,0,1,0-8.572.72,4.3,4.3,0,0,0,4.646,3.928h0A4.363,4.363,0,0,0,1512.067,660.424ZM1307.791,274a4.554,4.554,0,0,0-.611-6.24,4.164,4.164,0,0,0-5.875.47c-.041.056-.073.1-.113.153a4.274,4.274,0,0,0,.422,6.055c.028.02.04.032.068.052a4.52,4.52,0,0,0,6.108-.49Zm-67.012,79.823a4.278,4.278,0,0,0-.6-6,4.165,4.165,0,0,0-5.875.47c-.04.056-.072.1-.112.153a4.308,4.308,0,0,0,.41,6.071c.028.02.041.032.068.052a4.442,4.442,0,0,0,6.113-.748Zm-67.117,80.2a4.3,4.3,0,0,0-.41-6.071c-.028-.02-.036-.032-.068-.052a4.07,4.07,0,0,0-5.743.294,3.273,3.273,0,0,0-.262.322,4.3,4.3,0,0,0,.41,6.071c.028.02.04.032.068.052a4.41,4.41,0,0,0,6-.615Zm230.989,47.393a4.378,4.378,0,0,0,1.712-5.878,4.257,4.257,0,0,0-5.743-1.833,4.526,4.526,0,0,0-1.961,5.866,4.478,4.478,0,0,0,5.992,1.845Zm-92.656,48.21a4.143,4.143,0,0,0,1.965-5.516,1.226,1.226,0,0,1-.1-.233,4.254,4.254,0,0,0-5.743-1.833,4.526,4.526,0,0,0-1.961,5.866,4.325,4.325,0,0,0,5.843,1.717Zm-209.38-309.958a4.094,4.094,0,0,0-2.552-5.186,2.071,2.071,0,0,0-.245-.076,4.307,4.307,0,0,0-5.466,2.662,1.208,1.208,0,0,0-.04.141,4.458,4.458,0,0,0,2.934,5.4,4.234,4.234,0,0,0,5.328-2.742.547.547,0,0,1,.041-.193Zm-31.326,99.692a4.442,4.442,0,0,0-2.8-5.508,4.367,4.367,0,0,0-2.7,8.3,4.253,4.253,0,0,0,5.429-2.565.6.6,0,0,0,.073-.229ZM1601.794,595.32a5.175,5.175,0,0,0,1.969-6.855,5,5,0,0,0-6.719-2.091,5.114,5.114,0,0,0-1.969,6.855,4.994,4.994,0,0,0,6.719,2.091Zm-106.36,56.761a4.977,4.977,0,1,0-6.719-2.091,4.988,4.988,0,0,0,6.719,2.091Zm-283.41-381.74a5.236,5.236,0,0,0-3.424-6.36,5.033,5.033,0,0,0-2.829,9.657,5.134,5.134,0,0,0,6.253-3.3Zm-35,115.351a5.114,5.114,0,0,0-3.292-6.244,4.991,4.991,0,0,0-2.949,9.537,5.086,5.086,0,0,0,6.241-3.293Zm232.809,57.537a5.319,5.319,0,0,0-.719-7.1,5.035,5.035,0,0,0-6.98.848,4.895,4.895,0,0,0,.53,6.915l.085.06a5.014,5.014,0,0,0,7.085-.72ZM1333.273,536.5a5.058,5.058,0,0,0-.7-7.092l-.016-.012a4.857,4.857,0,0,0-6.84.716h0a4.949,4.949,0,0,0,7.559,6.389Zm151.482-58.309a4.947,4.947,0,1,0-7.114.47,5.044,5.044,0,0,0,7.114-.47Zm-79.969,89.6a5.042,5.042,0,0,0-.486-7.1,5.119,5.119,0,0,0-6.977.354,5.306,5.306,0,0,0,.353,7.221,5.178,5.178,0,0,0,7.11-.478ZM1244.263,406.081a5.1,5.1,0,0,0-3.171-6.372,4.917,4.917,0,0,0-6.241,3.056,4.851,4.851,0,0,0,2.717,6.292.713.713,0,0,0,.209.068,4.965,4.965,0,0,0,6.426-2.9.342.342,0,0,0,.06-.145Z" transform="translate(-692.863 262.238)"/>
    </g>
  </g>
</svg>
