<svg xmlns="http://www.w3.org/2000/svg" xmlns:xlink="http://www.w3.org/1999/xlink" width="535" height="752" viewBox="0 0 535 752">
  <defs>
    <style>
      .cls-1 {
        clip-path: url(#clip-Web_1920_31);
      }

      .cls-2 {
        fill: #171c54;
      }

      .cls-3 {
        fill: #eef4fe;
      }

      .cls-4 {
        fill: #d6e5fe;
      }

      .cls-5 {
        fill: #aecbf5;
      }

      .cls-6 {
        fill: #fff;
      }
    </style>
    <clipPath id="clip-Web_1920_31">
      <rect width="535" height="752"/>
    </clipPath>
  </defs>
  <g id="Web_1920_31" data-name="Web 1920 – 31" class="cls-1">
    <rect class="cls-6" width="535" height="752"/>
    <g id="Group_878" data-name="Group 878" transform="translate(-1392 -1907)">
      <path id="texture-2_7_-i0" class="cls-2" d="M1105.548,273.269a.813.813,0,1,0-.594.986h0a.811.811,0,0,0,.594-.986Zm-50.476-66.533a.833.833,0,0,0-.278-1.146h0a.762.762,0,0,0-1.055.221.434.434,0,0,0-.052.095.8.8,0,0,0,.236,1.108.844.844,0,0,0,1.148-.278Zm23.4,35.341a.909.909,0,0,0,.16-1.189.848.848,0,1,0-1.348,1.029A.913.913,0,0,0,1078.471,242.077Zm103.68-32.7a1.586,1.586,0,0,0,.439-2.175,1.507,1.507,0,0,0-2.062-.524.464.464,0,0,0-.07.045,1.586,1.586,0,0,0-.439,2.175,1.547,1.547,0,0,0,2.133.478Zm-31.648,20.6a1.569,1.569,0,0,0-1.738-2.612,1.545,1.545,0,0,0-.478,2.132h0A1.675,1.675,0,0,0,1150.5,229.982Zm-31.722,20.606a1.535,1.535,0,0,0,.466-2.126.523.523,0,0,1-.03-.043,1.508,1.508,0,0,0-2.062-.524.462.462,0,0,0-.07.045,1.675,1.675,0,0,0-.479,2.217A1.594,1.594,0,0,0,1118.781,250.588ZM1195.932,289a1.551,1.551,0,1,0-1.223,1.859,1.6,1.6,0,0,0,1.223-1.859Zm-37.164,6.912a1.551,1.551,0,1,0-1.223,1.859,1.6,1.6,0,0,0,1.223-1.859Zm-40.879-127.7a1.577,1.577,0,0,0-.436-2.175,1.524,1.524,0,0,0-2.125.379s-.006.009-.01.012a1.5,1.5,0,0,0,.257,2.1c.031.023.062.047.1.075A1.664,1.664,0,0,0,1117.889,168.212Zm-21.422,31.178a1.662,1.662,0,0,0-.392-2.213,1.579,1.579,0,0,0-2.174.437,1.554,1.554,0,0,0,.4,2.158l.022.017a1.524,1.524,0,0,0,2.122-.376C1096.461,199.4,1096.465,199.4,1096.467,199.39Zm-21.381,31.134a1.493,1.493,0,0,0-.331-2.089.326.326,0,0,0-.061-.039,1.551,1.551,0,0,0-2.169.327c-.017.022-.031.04-.047.062a1.568,1.568,0,1,0,2.6,1.758A.143.143,0,0,1,1075.086,230.524Zm126.651,95.1a1.39,1.39,0,1,0-2.77.233,1.389,1.389,0,0,0,1.5,1.269h0A1.41,1.41,0,0,0,1201.737,325.623ZM1135.721,200.74a1.472,1.472,0,0,0-.2-2.017,1.346,1.346,0,0,0-1.9.152l-.036.049a1.381,1.381,0,0,0,.136,1.957l.022.017a1.461,1.461,0,0,0,1.974-.159Zm-21.657,25.8a1.383,1.383,0,0,0-.195-1.939,1.346,1.346,0,0,0-1.9.152l-.036.049a1.392,1.392,0,0,0,.132,1.962l.022.017a1.435,1.435,0,0,0,1.975-.242Zm-21.69,25.917a1.391,1.391,0,0,0-.132-1.962c-.009-.006-.012-.01-.022-.017a1.315,1.315,0,0,0-1.856.095,1.062,1.062,0,0,0-.084.1,1.391,1.391,0,0,0,.132,1.962l.022.017a1.425,1.425,0,0,0,1.94-.2Zm74.65,15.316a1.415,1.415,0,0,0,.553-1.9,1.376,1.376,0,0,0-1.856-.592,1.463,1.463,0,0,0-.634,1.9,1.447,1.447,0,0,0,1.936.6Zm-29.944,15.58a1.339,1.339,0,0,0,.635-1.783.407.407,0,0,1-.034-.075,1.375,1.375,0,0,0-1.856-.592,1.463,1.463,0,0,0-.634,1.9,1.4,1.4,0,0,0,1.888.555ZM1069.413,183.18a1.323,1.323,0,0,0-.825-1.676.668.668,0,0,0-.079-.025,1.392,1.392,0,0,0-1.766.86.4.4,0,0,0-.013.045,1.441,1.441,0,0,0,.948,1.744,1.368,1.368,0,0,0,1.722-.886.176.176,0,0,1,.013-.062ZM1059.289,215.4a1.435,1.435,0,0,0-.906-1.78,1.411,1.411,0,0,0-.872,2.683,1.374,1.374,0,0,0,1.755-.829.192.192,0,0,0,.023-.074Zm171.445,89.186a1.673,1.673,0,0,0,.636-2.215,1.615,1.615,0,0,0-2.172-.676,1.653,1.653,0,0,0-.636,2.215,1.614,1.614,0,0,0,2.172.676Zm-34.373,18.344a1.609,1.609,0,1,0-2.172-.676,1.612,1.612,0,0,0,2.172.676Zm-91.591-123.368a1.692,1.692,0,0,0-1.107-2.056,1.627,1.627,0,0,0-.914,3.121,1.659,1.659,0,0,0,2.021-1.065Zm-11.312,37.279a1.653,1.653,0,0,0-1.064-2.018,1.613,1.613,0,0,0-.953,3.082,1.644,1.644,0,0,0,2.017-1.064Zm75.238,18.594a1.719,1.719,0,0,0-.232-2.3,1.627,1.627,0,0,0-2.256.274,1.582,1.582,0,0,0,.171,2.235l.027.019a1.62,1.62,0,0,0,2.29-.233Zm-24.741,30.143a1.635,1.635,0,0,0-.227-2.292l-.005,0a1.57,1.57,0,0,0-2.21.231h0a1.6,1.6,0,0,0,2.443,2.065Zm48.955-18.844a1.6,1.6,0,1,0-2.3.152,1.63,1.63,0,0,0,2.3-.152Zm-25.844,28.958a1.629,1.629,0,0,0-.157-2.293,1.654,1.654,0,0,0-2.255.114,1.715,1.715,0,0,0,.114,2.334,1.673,1.673,0,0,0,2.3-.155Zm-51.877-52.262a1.647,1.647,0,0,0-1.025-2.059,1.589,1.589,0,0,0-2.017.987,1.568,1.568,0,0,0,.878,2.033.23.23,0,0,0,.068.022,1.6,1.6,0,0,0,2.077-.937.11.11,0,0,0,.02-.047Z" transform="translate(86.531 1710.217)"/>
      <path id="Path_2330" data-name="Path 2330" class="cls-3" d="M1278.239,70.577a78.458,78.458,0,0,1-156.614,0h156.614Z" transform="translate(2959.004 2100.333) rotate(180)"/>
      <path id="Path_2331" data-name="Path 2331" class="cls-4" d="M1190.916,70.577a54.049,54.049,0,0,1-107.889,0h107.889Z" transform="translate(2946.886 2100.333) rotate(180)"/>
      <ellipse id="Ellipse_1055" data-name="Ellipse 1055" class="cls-5" cx="4.379" cy="4.38" rx="4.379" ry="4.38" transform="translate(1810.203 2193.146)"/>
      <ellipse id="Ellipse_1058" data-name="Ellipse 1058" class="cls-5" cx="4.379" cy="4.38" rx="4.379" ry="4.38" transform="translate(1442.863 2059.707)"/>
      <path id="texture_2_-i0" class="cls-6" d="M1135.867,1052.727a.882.882,0,0,0-1.283.2h0a.883.883,0,0,0,.2,1.283h0a.882.882,0,0,0,1.283-.2h0a.88.88,0,0,0-.2-1.283Zm-81.525-38.571a.917.917,0,1,0-1.819.235h0a.88.88,0,0,0,1.027.792c.659.17.829-.489.792-1.027Zm4.388,22.59a.917.917,0,1,0-1.819.235h0a.88.88,0,0,0,1.027.792h0c.33.084.829-.491.792-1.027Zm43.661-11.809a1.022,1.022,0,0,0-.509,1.979c.538-.037.952-.282,1.036-.612C1103.3,1025.522,1103.052,1025.107,1102.391,1024.937Zm-4.781,22.694a1.022,1.022,0,0,0-.509,1.979c.538-.037.953-.282,1.037-.612.377-.784.01-1.406-.528-1.367Zm-81.249-6.838a.964.964,0,1,0-1.66.98h0a1.037,1.037,0,0,0,1.32.34h0A1.034,1.034,0,0,0,1016.361,1040.793Zm12.59,19.424a.964.964,0,1,0-.34,1.32h0a1.035,1.035,0,0,0,.34-1.32Zm95.3-30.006c-.33-.084-1.074.074-1.037.612-.084.331.074,1.074.612,1.037.33.084,1.074-.074,1.036-.612h0c.293-.452.049-.867-.612-1.037Zm-5.959,19.752c-.33-.084-1.074.074-1.037.612a.851.851,0,1,0,1.648.425h0a1.074,1.074,0,0,0-.612-1.037Zm-79.524-11.5c-.245-.415-.7-.708-1.113-.462s-.5.575-.462,1.113h0c.244.415.7.708,1.113.462h0c.415-.247.708-.7.462-1.113Zm9.584,18.121c-.244-.415-.7-.708-1.113-.461s-.5.575-.461,1.113h0c.244.415.7.708,1.113.462h0c.415-.244.706-.7.462-1.113Zm35.293-20.292a.917.917,0,1,0-.792,1.027.879.879,0,0,0,.792-1.027Zm35.67-27.232a.917.917,0,1,0-.792,1.027.88.88,0,0,0,.792-1.027Zm2.192,23.608a.917.917,0,1,0-.792,1.027.88.88,0,0,0,.792-1.027Zm2.523,23.694a.917.917,0,1,0-.792,1.027A1.838,1.838,0,0,0,1124.028,1056.365Zm-93.143-.929a.918.918,0,1,0,.2,1.283c.415-.247.254-.99-.2-1.283Zm123.077,15.14a.9.9,0,0,0-.735-1.244m-76-36.8a.964.964,0,1,0-.34,1.32h0a1.038,1.038,0,0,0,.34-1.32Zm11.972-10.991a.964.964,0,0,0-1.66.98.883.883,0,0,0,1.32.34,1.038,1.038,0,0,0,.34-1.32Zm10.345,21.309a1.038,1.038,0,0,0-1.32-.34.883.883,0,0,0-.34,1.32.988.988,0,1,0,1.66-.98Zm41.869,2.684a.879.879,0,0,0-1.027-.792h0c-.538.037-.829.49-1,1.15.037.538.491.83,1.15,1a1.457,1.457,0,0,0,.876-1.358Zm-5.384,7.938a.762.762,0,1,0-.585.906h0c.415-.247.708-.7.585-.906Z" transform="translate(486.317 1512.625)"/>
    </g>
  </g>
</svg>
