<svg xmlns="http://www.w3.org/2000/svg" xmlns:xlink="http://www.w3.org/1999/xlink" width="1920" height="1056" viewBox="0 0 1920 1056">
  <defs>
    <style>
      .cls-1 {
        clip-path: url(#clip-Web_1920_26);
      }

      .cls-2, .cls-9 {
        isolation: isolate;
      }

      .cls-3, .cls-4, .cls-5 {
        fill: #2e6f67;
      }

      .cls-4, .cls-5, .cls-6 {
        stroke: #fff;
      }

      .cls-4 {
        stroke-width: 1.495px;
      }

      .cls-5, .cls-6 {
        stroke-width: 0.5px;
      }

      .cls-6 {
        fill: none;
      }

      .cls-10, .cls-7, .cls-8, .cls-9 {
        fill: #fff;
      }

      .cls-7 {
        opacity: 0.8;
      }

      .cls-8 {
        opacity: 0.6;
      }

      .cls-9 {
        mix-blend-mode: overlay;
      }
    </style>
    <clipPath id="clip-Web_1920_26">
      <rect width="1920" height="1056"/>
    </clipPath>
  </defs>
  <g id="Web_1920_26" data-name="Web 1920 – 26" class="cls-1">
    <rect class="cls-10" width="1920" height="1056"/>
    <g id="Group_860" data-name="Group 860" class="cls-2" transform="translate(-13897 -3264.736)">
      <path id="Path_1839" data-name="Path 1839" class="cls-3" d="M174.794,296.342c-3.04,6.853-6.467,13.786-12,18.926-7.635,7.244-18.7,10.124-29.216,9.5s-20.646-4.439-30-9.19a154.366,154.366,0,0,1-78.924-98.37A301.189,301.189,0,0,1,112,193.3c15.272-1.791,31.009-2.259,45.657,2.337S185.7,210.9,190.3,225.547c4.284,13.708.468,28.584-4.206,42.137C182.742,277.416,178.925,286.917,174.794,296.342Z" transform="translate(15036.063 3452.58)"/>
      <path id="Path_1846" data-name="Path 1846" class="cls-3" d="M142.1,209.51c-7.246,6.7-14.881,13.24-24.153,16.589-12.934,4.751-27.737,2.492-40.047-3.66s-22.518-15.968-31.4-26.48C10.037,152.5-6.479,92.994,2.326,36.917A393.233,393.233,0,0,1,119.66,53.2c19.245,5.763,38.488,13.24,53.682,26.325s25.867,32.79,23.84,52.808c-1.87,18.693-14.1,34.581-26.8,48.522C161.419,190.9,151.992,200.4,142.1,209.51Z" transform="translate(15027 3395.556)"/>
      <path id="Path_1853" data-name="Path 1853" class="cls-3" d="M231.051,210.993c-9.66-4.206-19.4-8.879-26.647-16.434-10.2-10.593-14.415-26.014-13.713-40.735s5.921-28.9,12.387-42.058C229.883,57.4,280.913,15.577,339.5,0a418.966,418.966,0,0,1,34.671,121.736c2.649,21.263,3.66,43.3-2.649,63.789s-20.959,39.41-41.293,46.108c-19.088,6.232-39.891,1.09-58.979-5.218Q250.8,219.521,231.051,210.993Z" transform="translate(15097.063 3382)"/>
      <path id="Path_1860" data-name="Path 1860" class="cls-4" d="M393.8,163.825c.233-9.814.779-19.86,4.752-28.817,5.532-12.539,17.373-21.651,30.307-26.247s27.036-5.14,40.749-4.206c56.407,3.895,110.556,33.1,144.682,78.2A391.9,391.9,0,0,1,521.5,255.731c-17.451,9.814-36.072,18.46-56.019,20.329s-41.45-4.128-54.382-19.316c-12.154-14.252-15.117-34.037-16.36-52.728Q393.335,183.8,393.8,163.825Z" transform="translate(15171.704 3420.289)"/>
      <path id="Path_1867" data-name="Path 1867" class="cls-5" d="M306.185,561.219C268.866,353.965,173.815,182.147,38.561,77.468l2.183-2.8c135.955,105.3,231.474,277.9,268.95,486.008Z" transform="translate(15041.174 3409.444)"/>
      <path id="Path_1868" data-name="Path 1868" class="cls-4" d="M210.432,532.536C195.55,422.95,247.907,306.121,340.777,241.866s211.763-91.283,264.666-76.172l-1.013,3.427c-52.046-14.8-169.613,12.073-261.626,75.706-91.78,63.556-143.592,178.982-128.786,287.243Z" transform="translate(15103.425 3441.399)"/>
      <path id="Path_1870" data-name="Path 1870" class="cls-5" d="M225.988,584.436h-3.582c.078-102.81.078-207.567,16.052-310.3,12.154-78.276,31.164-168.623,80.483-245.263l3.04,1.946c-48.928,76.017-67.86,165.975-79.938,243.861C226.066,377.1,225.988,481.626,225.988,584.436Z" transform="translate(15108.749 3392.614)"/>
      <path id="Path_1873" data-name="Path 1873" class="cls-4" d="M252.653,220.6c4.675-2.024,9.585-3.895,14.726-3.895,7.169-.078,14.024,3.582,18.932,8.724s8.259,11.682,10.751,18.38a104.915,104.915,0,0,1-6,85.44,203.146,203.146,0,0,1-54.54-28.351c-8.414-6.154-16.516-13.163-21.659-22.2s-6.933-20.562-2.494-29.987c4.128-8.8,12.934-14.487,21.5-19.081C239.955,226.362,246.186,223.324,252.653,220.6Z" transform="translate(15104.134 3461.652)"/>
      <path id="Path_1869" data-name="Path 1869" class="cls-5" d="M320.522,511.643c-3.582-35.882-7.246-73.029-21.739-106.977C272.605,343.1,214.172,299.4,160.414,264.784c-26.647-17.2-57.889-35.435-91.469-34.393l-.078-3.424c34.593-1.116,66.459,17.494,93.57,34.989,54.149,34.915,113.126,79.06,139.695,141.445,14.648,34.468,18.386,71.839,21.972,107.944Z" transform="translate(15052.313 3465.407)"/>
    </g>
    <g id="Group_861" data-name="Group 861" class="cls-2" transform="translate(249 -118.013)">
      <path id="Path_1853-2" data-name="Path 1853" class="cls-3" d="M222.868,168.294c-7.705-3.354-15.474-7.082-21.254-13.108-8.139-8.449-11.5-20.75-10.938-32.491s4.722-23.048,9.881-33.546C221.936,45.785,262.64,12.425,309.373,0a334.179,334.179,0,0,1,27.654,97.1c2.113,16.96,2.919,34.541-2.113,50.88s-16.718,31.435-32.936,36.777c-15.225,4.971-31.819.869-47.043-4.162Q238.623,175.1,222.868,168.294Z" transform="translate(-230.082 462.813)"/>
      <g id="Group_522" data-name="Group 522" transform="translate(-29.235 467.038)">
        <path id="Path_1854" data-name="Path 1854" class="cls-3" d="M284.27,6.545c-1,1.614-3.667,1.864-6.09,1.429-1.865.807-3.667,1.614-5.468,2.485a37.149,37.149,0,0,0,3.729,1.119c5.1,1.243,9.259.124,11.186-2.983a6.726,6.726,0,0,0,.808-4.721c-1.243.435-2.487.931-3.729,1.367A6.561,6.561,0,0,1,284.27,6.545Z" transform="translate(-193.391 -3.874)"/>
        <path id="Path_1855" data-name="Path 1855" class="cls-3" d="M239.977,166.765c-.622-3.231-3.667-6.15-6.4-7.828a209.761,209.761,0,0,0-21-11.679l-.31-.124c-2.549-1.243-4.91-2.423-6.588-4.224-1.429-1.614-2.3-4.162-1.243-6.026,1.679-2.919,6.712-2.3,10.564-1.243l18.891,5.093c8.139,2.236,14.045.745,16.22-3.852,1.741-3.666.31-8.014-1.927-10.561h0c-2.113-2.236-5.158-3.292-7.705-4.535l-.87-.062c-2.549-1.243-5.344-2.3-8.327-3.416-8.077-3.045-16.468-6.213-17.464-13.046a1.373,1.373,0,0,1,.374-1.181c1.679-1.614,7.271-1.988,11.186-1.243a45.861,45.861,0,0,1,8.949,2.983c1.741.745,3.6,1.429,5.406,2.05,2.671.869,6.65,1.864,10.316.373a8.43,8.43,0,0,0,4.66-4.909,6.109,6.109,0,0,0-.31-5.218c-1.367-2.547-4.1-3.6-6.34-4.411-1.243-.5-2.547-.931-3.915-1.429-9.259-3.293-18.829-6.709-22.684-14.537-.062-.124-.124-.248.062-.683a5.678,5.678,0,0,1,3.541-2.609c1.865-.5,4.163-.248,6.961.869a61.8,61.8,0,0,1,6.464,3.169,46.087,46.087,0,0,0,8.7,3.976c4.225,1.3,12.119,1.864,15.722-1.119a5.149,5.149,0,0,0,1.8-4.783c-.87-6.275-8.887-9.878-17.464-13.729-5.53-2.485-11.31-5.095-15.039-8.325-1.057-.931-1.491-1.74-1.367-2.05.124-.248.746-.621,1.927-.745,6.09-.745,11.994,1.552,18.208,3.976,4.785,1.864,9.695,3.79,14.915,4.349,2.983.31,7.085-.435,9.445-2.857a5.852,5.852,0,0,0,1.741-4.909c-.436-3.79-4.225-5.778-6.028-6.771l-22.87-12.177a15.765,15.765,0,0,1-3.915-2.8c-1,.807-1.989,1.678-2.983,2.485a17.564,17.564,0,0,0,5.034,3.728l22.994,12.051c1.865.995,3.791,2.236,3.977,3.728a1.753,1.753,0,0,1-.622,1.678c-1.243,1.243-3.915,1.988-6.278,1.74-4.66-.5-9.383-2.3-13.919-4.1-6.4-2.485-13.05-5.094-20.135-4.224-3.355.373-4.6,1.988-5.1,3.231-.808,2.05.062,4.349,2.487,6.461,4.163,3.666,10.192,6.337,16.034,8.946,7.209,3.231,14.6,6.585,15.163,10.685a1.181,1.181,0,0,1-.5,1.243c-1.989,1.678-8.2,1.552-11.994.373a46.2,46.2,0,0,1-8.015-3.728,58.874,58.874,0,0,0-6.9-3.354c-3.667-1.429-6.712-1.74-9.445-.995-2.175.621-4.972,2.361-6.09,4.783a4.6,4.6,0,0,0,0,4.038c4.536,9.318,15.35,13.17,24.857,16.524,1.305.435,2.609.931,3.853,1.367,1.741.621,3.541,1.3,4.225,2.547a2.621,2.621,0,0,1,.062,2.05,4.662,4.662,0,0,1-2.487,2.609c-1.865.745-4.288.621-7.645-.435-1.741-.559-3.479-1.3-5.158-1.988a49.82,49.82,0,0,0-9.757-3.169c-4.163-.745-11.436-.745-14.6,2.3a5.163,5.163,0,0,0-1.553,4.535c1.305,9.132,11.186,12.86,19.949,16.153,2.857,1.119,5.594,2.112,7.953,3.293l1,.248a38.271,38.271,0,0,1,6.65,3.914h0c0,1.8,2.113,4.038,1.181,5.964-1.8,3.728-8.761,2.423-11.56,1.614l-18.891-5.156c-9.445-2.609-13.423.186-15.039,2.983-2.113,3.6-.622,8.014,1.679,10.623,2.175,2.485,5.034,3.852,7.829,5.156l.31.124a214.9,214.9,0,0,1,20.633,11.432c2.425,1.552,4.288,3.666,4.6,5.28a1.939,1.939,0,0,1-.31,1.552c-.622.869-1.8.995-3.107.869,1.865.745,3.729,1.491,5.594,2.174a4.289,4.289,0,0,0,.684-.807A4.9,4.9,0,0,0,239.977,166.765Z" transform="translate(-199.995 -1.453)"/>
        <path id="Path_1856" data-name="Path 1856" class="cls-3" d="M264.08,15.206c-1.429.807-2.857,1.678-4.288,2.547,1.679.683,3.479,1.367,5.406,2.112,6.712,2.485,16.842,6.275,16.344,10.127a2.154,2.154,0,0,1-1.119,1.74c-2.919,1.614-10.378-.31-16.282-3.045-1.181-.559-2.3-1.119-3.479-1.678a69.839,69.839,0,0,0-9.135-3.914c-1.429.995-2.857,1.988-4.225,2.983,3.853.621,7.645,2.485,11.622,4.411,1.181.559,2.363,1.181,3.541,1.74,2.3,1.057,13.981,6.15,19.823,2.919a6.116,6.116,0,0,0,3.107-4.659c.932-6.958-9.633-10.872-18.891-14.289C265.7,15.827,264.888,15.517,264.08,15.206Z" transform="translate(-195.699 -2.844)"/>
      </g>
      <g id="Group_523" data-name="Group 523" transform="translate(22.491 481.636)">
        <path id="Path_1857" data-name="Path 1857" class="cls-3" d="M303.532,60.62l23.988,5.218c-.31-1.429-.622-2.8-.932-4.224L304.339,56.77c-1.989-.435-6.216-1.367-8.949,1.243a5.867,5.867,0,0,0-1.865,4.845c.248,3.354,2.857,6.585,5.344,8.325,4.35,2.983,9.321,4.659,14.169,6.337,6.34,2.174,12.243,4.224,16.468,8.759.808.869,1.057,1.552,1,1.8-.124.31-1,.683-2.425.683-4.972.062-11-1.678-16.842-3.354-9.011-2.609-17.526-5.033-22.186-.807a5.093,5.093,0,0,0-1.679,4.845c.746,4.6,7.147,9.256,11.248,11a54.987,54.987,0,0,0,9.2,2.609,60.143,60.143,0,0,1,6.961,1.74c2.857.995,4.784,2.236,5.842,3.852a6.07,6.07,0,0,1,1,4.287c-.124.435-.31.5-.436.559-8.015,3.54-17.526-.062-26.723-3.54-1.305-.5-2.611-.995-3.915-1.429-2.237-.807-4.972-1.8-7.645-.745a6.23,6.23,0,0,0-3.6,3.79,8.551,8.551,0,0,0,.374,6.771c1.865,3.54,5.53,5.342,8.139,6.4,1.8.745,3.667,1.367,5.468,1.926a43.868,43.868,0,0,1,8.761,3.54c3.479,1.988,7.457,5.9,7.707,8.2a1.1,1.1,0,0,1-.436,1.119c-5.158,4.6-13.609,1.552-21.75-1.3-2.983-1.057-5.842-2.05-8.575-2.733l-.622-.186c-2.8-.683-5.718-1.429-8.761-1.057-3.417.373-7.333,2.485-8.389,6.4-1.305,4.909,2.175,9.568,9.819,13.17l17.712,8.2c3.667,1.678,7.891,4.411,7.271,7.7-.374,2.112-2.733,3.478-4.846,3.79-2.487.373-5.034-.31-7.767-1.057l-.31-.062a216.243,216.243,0,0,0-23.552-4.721c-3.107-.435-7.4-.186-9.943,1.864a5.746,5.746,0,0,0-2.175,4.1v.931c.808.248,1.553.559,2.363.807,1,.31,1.989.683,2.983.995a2.855,2.855,0,0,1-1.429-2.423,1.8,1.8,0,0,1,.746-1.367c1.243-.995,4.1-1.429,6.961-1.057a223.816,223.816,0,0,1,23.118,4.6l.31.062c2.983.745,6.09,1.552,9.321,1.119,3.417-.5,7.457-2.857,8.139-6.958.56-3.169-.622-7.828-9.509-11.989l-17.65-8.137c-2.671-1.243-8.761-4.535-7.707-8.573.56-2.112,2.983-3.292,5.034-3.478,2.363-.248,4.784.373,7.4.995l.622.186a82.922,82.922,0,0,1,8.2,2.671c8.761,3.107,18.767,6.709,25.665.559a5.121,5.121,0,0,0,1.741-4.473c-.436-4.349-6.028-9.132-9.633-11.244A47.716,47.716,0,0,0,294.581,123c-1.741-.559-3.541-1.181-5.22-1.864-3.231-1.3-5.158-2.733-6.09-4.6a4.526,4.526,0,0,1-.186-3.6,2.539,2.539,0,0,1,1.367-1.552c1.305-.5,3.107.124,4.91.807,1.243.435,2.547.931,3.853,1.429,9.445,3.6,20.2,7.642,29.642,3.478a4.6,4.6,0,0,0,2.611-3.045c.746-2.547-.248-5.716-1.491-7.58-1.615-2.361-4.163-4.1-7.829-5.4a62.812,62.812,0,0,0-7.457-1.926,46.341,46.341,0,0,1-8.513-2.361c-3.667-1.552-8.451-5.466-8.887-8.014a1.311,1.311,0,0,1,.436-1.243c3.107-2.8,10.938-.5,18.456,1.678,6.09,1.74,12.429,3.6,18.022,3.54A9.149,9.149,0,0,0,331.87,92q-.654-5.125-1.491-10.251c-4.6-3.914-10.378-5.9-16.034-7.828-4.6-1.552-9.383-3.231-13.236-5.9-1.989-1.3-3.541-3.666-3.667-5.342a2.073,2.073,0,0,1,.622-1.74C299.181,59.813,301.482,60.123,303.532,60.62Z" transform="translate(-247.415 -13.716)"/>
        <path id="Path_1858" data-name="Path 1858" class="cls-3" d="M316.534,51.748l2.983.745c-.374-1.429-.746-2.919-1.181-4.349a4.586,4.586,0,0,1-.87-.248c-1.243-.31-2.487-.621-3.729-.995-6.278-1.74-13.236-5.156-14.417-8.2a2.1,2.1,0,0,1,.248-1.988c1.8-2.8,9.509-.5,15.908,1.74q-.747-2.329-1.491-4.659c-7.521-2.485-14.729-3.914-17.774.807a5.874,5.874,0,0,0-.622,5.528c2.363,6.275,14.6,9.939,17.028,10.623C313.986,51.065,315.29,51.375,316.534,51.748Z" transform="translate(-243.08 -15.964)"/>
        <path id="Path_1859" data-name="Path 1859" class="cls-3" d="M306.78,17.257a7.821,7.821,0,0,0,1.367,3.666C307.711,19.68,307.215,18.437,306.78,17.257Z" transform="translate(-242.025 -17.257)"/>
      </g>
      <path id="Path_1860-2" data-name="Path 1860" class="cls-3" d="M393.78,151.752c.186-7.828.622-15.841,3.791-22.986,4.412-10,13.857-17.27,24.174-20.936s21.564-4.1,32.5-3.354c44.992,3.107,88.183,26.4,115.4,62.373a312.593,312.593,0,0,1-74.014,58.21c-13.919,7.828-28.772,14.724-44.682,16.215s-33.062-3.292-43.377-15.407c-9.695-11.368-12.057-27.149-13.049-42.057Q393.407,167.687,393.78,151.752Z" transform="translate(-211.642 472.272)"/>
      <path id="Path_1867-2" data-name="Path 1867" class="cls-6" d="M252.026,462.755C222.259,297.443,146.443,160.4,38.561,76.9L40.3,74.665c83.717,64.842,148.212,161.673,187.1,279.063a792.337,792.337,0,0,1,27.423,108.592Z" transform="translate(-243.889 469.593)"/>
      <path id="Path_1868-2" data-name="Path 1868" class="cls-6" d="M209.924,457.469c-11.87-87.409,29.891-180.6,103.967-231.847S482.8,152.812,525,164.865l-.808,2.733c-41.513-11.8-135.288,9.63-208.68,60.385C242.3,278.678,200.975,370.745,212.785,457.1Z" transform="translate(-228.51 477.487)"/>
      <path id="Path_1870-2" data-name="Path 1870" class="cls-6" d="M225.263,472.007h-2.857c.062-82,.062-165.561,12.8-247.5,9.695-62.435,24.857-134.5,64.2-195.629l2.425,1.552C262.8,91.062,247.7,162.815,238.068,224.939,225.325,306.632,225.263,390,225.263,472.007Z" transform="translate(-227.194 465.435)"/>
      <path id="Path_1873-2" data-name="Path 1873" class="cls-3" d="M243.991,219.81c3.729-1.614,7.645-3.107,11.746-3.107,5.718-.062,11.186,2.857,15.1,6.958s6.588,9.318,8.575,14.661a83.683,83.683,0,0,1-4.784,68.149,162.035,162.035,0,0,1-43.5-22.614c-6.712-4.909-13.174-10.5-17.276-17.705s-5.53-16.4-1.989-23.918c3.293-7.02,10.316-11.556,17.152-15.22C233.862,224.407,238.833,221.984,243.991,219.81Z" transform="translate(-228.334 482.491)"/>
      <g id="Group_532" data-name="Group 532" transform="translate(7.759 702.171)">
        <path id="Path_1874" data-name="Path 1874" class="cls-3" d="M272.534,291.591c-.248-.869.56-1.926,1.491-2.609q.465-1.4.932-2.8c-.56.31-1.119.621-1.616.931-2.175,1.367-3.169,3.231-2.671,4.909a3.322,3.322,0,0,0,1.43,1.864c.248-.559.5-1.181.746-1.8A.639.639,0,0,1,272.534,291.591Z" transform="translate(-230.583 -213.37)"/>
        <path id="Path_1875" data-name="Path 1875" class="cls-3" d="M235.343,225.464a6.716,6.716,0,0,0,4.91.373,100.35,100.35,0,0,0,11.124-3.54l.124-.062a10.614,10.614,0,0,1,3.729-.931,2.632,2.632,0,0,1,2.549,1.552c.436,1.553-1.429,3.107-3.107,4.162l-8.077,4.971c-3.479,2.112-4.91,4.6-4.039,6.9a4.728,4.728,0,0,0,4.35,2.733h0a13.229,13.229,0,0,0,4.163-1.057l.31-.248c1.305-.5,2.611-1.119,3.977-1.8,3.791-1.864,7.705-3.728,10.44-1.8a.651.651,0,0,1,.31.559c0,1.119-1.741,3.231-3.293,4.411a22.61,22.61,0,0,1-4.039,2.174c-.87.373-1.679.807-2.549,1.243a7.6,7.6,0,0,0-3.6,3.54,4.32,4.32,0,0,0,.186,3.292,3.4,3.4,0,0,0,1.927,1.678,5.266,5.266,0,0,0,3.667-.745c.56-.31,1.181-.621,1.8-.931,4.225-2.174,8.637-4.411,12.678-3.169.062,0,.124.062.248.248a2.882,2.882,0,0,1-.248,2.112,5.555,5.555,0,0,1-2.611,2.174,25.972,25.972,0,0,1-3.293,1.243,28.332,28.332,0,0,0-4.288,1.74c-1.865,1.057-4.722,3.666-4.846,5.9a2.454,2.454,0,0,0,1.057,2.236c2.487,1.8,6.464.124,10.688-1.614,2.733-1.119,5.53-2.3,7.953-2.547.684-.062,1.119.062,1.181.186s-.062.435-.374.931c-1.8,2.423-4.536,3.728-7.457,5.095a27.76,27.76,0,0,0-6.526,3.852,5.844,5.844,0,0,0-2.113,4.287,2.789,2.789,0,0,0,1.181,2.236c1.491,1.119,3.479.435,4.412.124l11.932-4.038a8.422,8.422,0,0,1,2.3-.435c.062-.621.062-1.243.124-1.926a8.508,8.508,0,0,0-2.983.559l-11.932,4.038c-1,.31-2.051.621-2.671.186a.837.837,0,0,1-.374-.807,4.322,4.322,0,0,1,1.491-2.8,25.64,25.64,0,0,1,6.09-3.54c3.045-1.429,6.152-2.919,8.2-5.716,1-1.3.87-2.3.56-2.857-.436-.995-1.554-1.429-3.107-1.3-2.671.248-5.656,1.491-8.513,2.671-3.541,1.491-7.209,2.983-8.825,1.8a.594.594,0,0,1-.31-.559c.062-1.243,2.175-3.417,3.853-4.349a25.3,25.3,0,0,1,3.977-1.614,23.409,23.409,0,0,0,3.479-1.3,6.839,6.839,0,0,0,3.479-3.045,4.791,4.791,0,0,0,.31-3.728,2.232,2.232,0,0,0-1.429-1.367c-4.784-1.491-9.757,1.057-14.169,3.292-.622.31-1.181.621-1.8.869a3.905,3.905,0,0,1-2.3.621,1.353,1.353,0,0,1-.746-.683,2.4,2.4,0,0,1-.124-1.74,5.512,5.512,0,0,1,2.733-2.547c.808-.435,1.615-.807,2.425-1.181a24.6,24.6,0,0,0,4.35-2.361c1.615-1.243,4.1-3.79,4.039-5.9a2.34,2.34,0,0,0-1.119-2.05c-3.667-2.609-8.265-.31-12.367,1.614a39.2,39.2,0,0,1-3.791,1.74l-.31.248a10.952,10.952,0,0,1-3.479.995h0a2.841,2.841,0,0,1-2.609-1.552c-.746-1.864,2.051-3.852,3.231-4.6l8.077-4.971c4.039-2.485,4.35-4.783,3.915-6.275a4.452,4.452,0,0,0-4.288-2.919,10.487,10.487,0,0,0-4.412,1.057l-.124.062a93.149,93.149,0,0,1-10.938,3.478,4.753,4.753,0,0,1-3.417-.124,1.054,1.054,0,0,1-.436-.621,1.5,1.5,0,0,1,.684-1.367c-.87.435-1.741.807-2.611,1.243a1.216,1.216,0,0,0,.062.5A3.552,3.552,0,0,0,235.343,225.464Z" transform="translate(-233.91 -219.432)"/>
        <path id="Path_1876" data-name="Path 1876" class="cls-3" d="M277.167,281.676c.186-.807.374-1.553.56-2.361-.808.373-1.616.745-2.547,1.243-3.107,1.552-7.829,3.852-9.011,2.423a1.086,1.086,0,0,1-.248-.931c.374-1.552,3.6-3.54,6.526-4.721.56-.248,1.181-.435,1.741-.683a27.97,27.97,0,0,0,4.412-1.926c.124-.807.248-1.678.374-2.485a19.835,19.835,0,0,1-5.406,2.609c-.622.248-1.181.435-1.8.683-1.119.435-6.836,2.919-7.645,6.026a2.7,2.7,0,0,0,.622,2.609c2.175,2.671,7.023.248,11.372-1.864A5.634,5.634,0,0,1,277.167,281.676Z" transform="translate(-231.176 -214.637)"/>
      </g>
      <g id="Group_533" data-name="Group 533" transform="translate(-14.849 708.948)">
        <path id="Path_1877" data-name="Path 1877" class="cls-3" d="M251.27,283.483l-9.819,6.709c.622.373,1.181.745,1.8,1.057l9.135-6.213c.808-.559,2.549-1.74,2.549-3.6a2.855,2.855,0,0,0-1.119-2.3,5.873,5.873,0,0,0-4.722-.869,27.6,27.6,0,0,0-6.961,2.919c-2.857,1.491-5.594,2.919-8.575,2.919-.56,0-.932-.124-1-.248s.062-.559.56-1.057c1.616-1.8,4.288-3.354,6.836-4.845,3.915-2.3,7.645-4.473,7.707-7.58a2.579,2.579,0,0,0-1.119-2.236c-1.865-1.243-5.656-.559-7.645.31a27.87,27.87,0,0,0-3.977,2.361,25.825,25.825,0,0,1-2.919,1.864,5.567,5.567,0,0,1-3.293.807,3.232,3.232,0,0,1-1.865-1.057.322.322,0,0,1-.062-.31c1.429-3.976,5.842-6.15,10.13-8.263.622-.31,1.243-.621,1.8-.869a5.152,5.152,0,0,0,2.8-2.485,3.321,3.321,0,0,0-.124-2.547,4.178,4.178,0,0,0-2.487-2.112,7.226,7.226,0,0,0-4.972.745c-.87.373-1.679.869-2.487,1.3a24.973,24.973,0,0,1-4.163,1.926c-1.865.559-4.6.683-5.468,0a.605.605,0,0,1-.248-.559c.124-3.354,3.977-5.342,7.705-7.206,1.367-.683,2.671-1.367,3.853-2.112l.248-.186a11.508,11.508,0,0,0,3.293-2.733,4.715,4.715,0,0,0,.56-5.094c-1.306-2.112-4.1-2.423-7.891-.931l-8.825,3.478c-1.8.745-4.163,1.3-5.158,0a2.767,2.767,0,0,1,.248-2.983,9.8,9.8,0,0,1,2.983-2.423l.124-.062a101.76,101.76,0,0,0,9.509-6.771c1.181-.931,2.547-2.547,2.671-4.1a2.837,2.837,0,0,0-.746-2.174l-.31-.31c-.374.186-.746.373-1.057.559-.436.248-.87.5-1.367.745.56-.062,1.057-.062,1.367.31a.991.991,0,0,1,.248.745,4.961,4.961,0,0,1-1.927,2.8c-2.983,2.361-6.152,4.6-9.321,6.647l-.124.062a11.912,11.912,0,0,0-3.479,2.919,4.467,4.467,0,0,0-.248,5.218c.932,1.243,2.983,2.423,7.4.621l8.825-3.478c1.305-.5,4.536-1.552,5.594.124a2.669,2.669,0,0,1-.436,2.919,11.62,11.62,0,0,1-2.8,2.3l-.248.186c-1.057.683-2.363,1.3-3.667,1.988-4.039,2.05-8.637,4.411-8.761,8.884a2.479,2.479,0,0,0,1,2.112c1.679,1.3,5.22.931,7.209.31a27.361,27.361,0,0,0,4.536-2.05c.808-.435,1.615-.869,2.425-1.243,1.553-.683,2.671-.931,3.667-.621a2.324,2.324,0,0,1,1.305,1.119,1.1,1.1,0,0,1,.062.995c-.248.621-1.119,1.057-1.927,1.491-.56.31-1.181.559-1.8.869-4.412,2.174-9.445,4.6-11.124,9.318a2.35,2.35,0,0,0,.186,1.926,4.9,4.9,0,0,0,3.169,1.988,7.149,7.149,0,0,0,4.536-.995,27.2,27.2,0,0,0,3.169-1.988,20.719,20.719,0,0,1,3.667-2.236c1.8-.807,4.784-1.181,5.78-.435a.652.652,0,0,1,.31.559c-.062,1.988-3.479,4.038-6.774,5.964a32.364,32.364,0,0,0-7.271,5.156,3.458,3.458,0,0,0-.932,1.552c1.367.995,2.733,1.926,4.1,2.919,2.919-.31,5.53-1.678,8.139-3.045a27.623,27.623,0,0,1,6.464-2.733,3.906,3.906,0,0,1,3.107.5.878.878,0,0,1,.374.807A4.058,4.058,0,0,1,251.27,283.483Z" transform="translate(-213.183 -225.645)"/>
        <path id="Path_1878" data-name="Path 1878" class="cls-3" d="M246.494,287.98c-.436.248-.87.559-1.243.807.622.373,1.305.683,1.927,1.057a1.325,1.325,0,0,0,.374-.248c.56-.31,1.057-.683,1.616-.995,2.733-1.614,6.216-2.983,7.707-2.361a1.1,1.1,0,0,1,.622.745c.374,1.552-2.983,3.54-5.9,5.033.684.373,1.429.683,2.113,1.057,3.355-1.8,6.278-3.914,5.656-6.523a2.909,2.909,0,0,0-1.741-2.05c-2.983-1.243-8.389,1.864-9.445,2.485C247.612,287.3,247.052,287.67,246.494,287.98Z" transform="translate(-210.271 -220.327)"/>
        <path id="Path_1879" data-name="Path 1879" class="cls-3" d="M260.779,295.873a4.005,4.005,0,0,0-1.741-.745C259.659,295.376,260.219,295.624,260.779,295.873Z" transform="translate(-209.019 -219.335)"/>
      </g>
      <path id="Path_1869-2" data-name="Path 1869" class="cls-6" d="M269.595,464.522c-2.857-29.944-5.78-60.943-17.34-89.273-20.881-51.377-67.488-87.844-110.367-116.731-21.254-14.351-46.174-29.571-72.958-28.7l-.062-2.857c27.592-.931,53.009,14.6,74.634,29.2,43.191,29.137,90.232,65.976,111.425,118.036,11.684,28.763,14.665,59.95,17.526,90.08Z" transform="translate(-241.137 483.419)"/>
      <path id="Path_1839-2" data-name="Path 1839" class="cls-3" d="M144.411,275.23c-2.425,5.466-5.158,11-9.571,15.1-6.09,5.778-14.915,8.076-23.3,7.58s-16.468-3.54-23.926-7.33a123.127,123.127,0,0,1-62.952-78.462,240.236,240.236,0,0,1,69.663-19.072c12.181-1.429,24.733-1.8,36.417,1.864s22.372,12.177,26.039,23.856c3.417,10.934.374,22.8-3.355,33.61C150.751,260.134,147.706,267.712,144.411,275.23Z" transform="translate(-245.151 480.25)"/>
      <g id="Group_516" data-name="Group 516" transform="translate(-217.567 702.037)">
        <path id="Path_1840" data-name="Path 1840" class="cls-3" d="M29.2,222.306c1.181.745,1.305,2.609,1,4.349.56,1.3,1.119,2.671,1.741,3.976a21.008,21.008,0,0,0,.808-2.609c.932-3.666.186-6.647-2.051-8.014a4.643,4.643,0,0,0-3.355-.621c.31.869.622,1.8,1,2.671A2.032,2.032,0,0,1,29.2,222.306Z" transform="translate(-27.34 -219.309)"/>
        <path id="Path_1841" data-name="Path 1841" class="cls-3" d="M143.475,258.812c-2.3.435-4.412,2.609-5.656,4.473a147.453,147.453,0,0,0-8.513,14.972l-.124.186a14.875,14.875,0,0,1-3.107,4.721c-1.181.995-2.983,1.614-4.288.807-2.051-1.243-1.553-4.783-.808-7.58l3.791-13.482c1.679-5.778.684-9.939-2.609-11.556a7.019,7.019,0,0,0-7.521,1.367h0c-1.615,1.491-2.425,3.6-3.355,5.4l-.062.621c-.932,1.8-1.679,3.79-2.549,5.9-2.237,5.778-4.536,11.741-9.445,12.363a.765.765,0,0,1-.808-.31c-1.181-1.243-1.367-5.218-.808-8.014a32.533,32.533,0,0,1,2.175-6.4c.5-1.243,1.057-2.547,1.491-3.852.622-1.926,1.367-4.721.31-7.392a6.163,6.163,0,0,0-3.479-3.355,4.333,4.333,0,0,0-3.729.186c-1.865.931-2.609,2.919-3.169,4.473-.374.931-.684,1.8-1.057,2.8-2.425,6.585-4.972,13.42-10.564,16.091-.062.062-.186.124-.5-.062a4.32,4.32,0,0,1-1.865-2.547,7.834,7.834,0,0,1,.684-4.971,39.486,39.486,0,0,1,2.3-4.6,37.83,37.83,0,0,0,2.919-6.213c1-2.983,1.429-8.635-.684-11.244a3.766,3.766,0,0,0-3.417-1.367c-4.474.559-7.147,6.275-9.943,12.363-1.8,3.976-3.729,8.013-6.09,10.685-.684.745-1.243,1.057-1.491.995-.186-.062-.436-.559-.5-1.367-.5-4.349,1.181-8.573,2.983-12.984,1.367-3.416,2.8-6.9,3.231-10.623a8.618,8.618,0,0,0-1.989-6.771,4.2,4.2,0,0,0-3.479-1.3c-2.671.31-4.163,2.983-4.91,4.287l-8.887,16.277a9.3,9.3,0,0,1-2.051,2.733c.56.745,1.181,1.429,1.8,2.174a14.146,14.146,0,0,0,2.733-3.6l8.887-16.277c.746-1.3,1.615-2.733,2.733-2.8a1.542,1.542,0,0,1,1.243.5,6.006,6.006,0,0,1,1.181,4.473c-.374,3.354-1.741,6.709-3.045,9.939-1.865,4.535-3.729,9.256-3.169,14.351.248,2.423,1.367,3.293,2.237,3.666,1.491.621,3.107,0,4.66-1.74,2.671-2.983,4.6-7.268,6.526-11.368,2.363-5.094,4.784-10.437,7.767-10.747a.884.884,0,0,1,.932.373c1.181,1.429,1.057,5.84.186,8.573a28.293,28.293,0,0,1-2.733,5.716,40.034,40.034,0,0,0-2.425,4.909,10.264,10.264,0,0,0-.746,6.771,7.147,7.147,0,0,0,3.417,4.349,3.285,3.285,0,0,0,2.857,0c6.712-3.169,9.509-10.872,11.994-17.643.374-.931.684-1.864,1.057-2.733.5-1.243,1-2.547,1.865-2.983a1.777,1.777,0,0,1,1.491,0,3.324,3.324,0,0,1,1.865,1.8c.56,1.367.436,3.107-.374,5.466-.436,1.243-.932,2.485-1.429,3.666a35.3,35.3,0,0,0-2.363,6.958c-.56,2.983-.622,8.2,1.553,10.5a3.531,3.531,0,0,0,3.231,1.119c6.526-.869,9.259-7.89,11.684-14.1a61.483,61.483,0,0,1,2.425-5.654l.248-.621c.87-1.678,1.679-4.038,2.919-4.659h0a3.547,3.547,0,0,1,4.225-.869c2.671,1.3,1.616,6.213,1.057,8.263l-3.853,13.481c-1.927,6.709.062,9.568,2.051,10.747,2.549,1.553,5.718.5,7.583-1.119a16.123,16.123,0,0,0,3.729-5.528l.124-.186a148.385,148.385,0,0,1,8.327-14.66c1.119-1.74,2.671-3.045,3.791-3.231a1.446,1.446,0,0,1,1.119.248,2.254,2.254,0,0,1,.622,2.236c.56-1.3,1.119-2.609,1.616-3.976a4.034,4.034,0,0,0-.56-.5A4.232,4.232,0,0,0,143.475,258.812Z" transform="translate(-25.654 -218.229)"/>
        <path id="Path_1842" data-name="Path 1842" class="cls-3" d="M35.255,238.13c.56,1.057,1.181,2.05,1.8,3.045.5-1.181,1-2.485,1.553-3.852,1.865-4.783,4.6-11.989,7.4-11.618a1.472,1.472,0,0,1,1.243.807c1.119,2.112-.31,7.454-2.3,11.618-.374.807-.808,1.614-1.243,2.485a50.267,50.267,0,0,0-2.857,6.523c.684.995,1.367,2.05,2.113,3.045a29.259,29.259,0,0,1,3.231-8.263c.436-.869.87-1.678,1.243-2.547.746-1.614,4.474-9.939,2.237-14.165a4.227,4.227,0,0,0-3.293-2.236c-4.972-.683-7.829,6.771-10.378,13.42A10.3,10.3,0,0,0,35.255,238.13Z" transform="translate(-26.621 -218.981)"/>
      </g>
      <g id="Group_517" data-name="Group 517" transform="translate(-207.007 673.596)">
        <path id="Path_1843" data-name="Path 1843" class="cls-3" d="M67.988,212.995,71.9,195.911c-1,.186-1.989.373-3.045.621l-3.6,15.841c-.31,1.429-1,4.411.808,6.4a4.215,4.215,0,0,0,3.479,1.367,8.709,8.709,0,0,0,5.966-3.79c2.175-3.045,3.417-6.647,4.66-10.063,1.616-4.473,3.107-8.7,6.4-11.68.622-.559,1.119-.745,1.305-.683.248.062.5.683.5,1.74,0,3.54-1.305,7.89-2.549,12.051-1.927,6.4-3.729,12.487-.746,15.841a3.6,3.6,0,0,0,3.417,1.243c3.293-.5,6.712-5.033,7.953-7.952a36.237,36.237,0,0,0,1.927-6.585,41.676,41.676,0,0,1,1.305-4.971,7.79,7.79,0,0,1,2.8-4.162,4.238,4.238,0,0,1,3.107-.683c.31.062.374.248.374.31,2.487,5.716-.186,12.487-2.733,19.072-.374.931-.746,1.864-1.057,2.8-.56,1.552-1.305,3.54-.56,5.466a4.613,4.613,0,0,0,2.671,2.609,6,6,0,0,0,4.846-.248c2.547-1.3,3.853-3.914,4.66-5.778.56-1.3,1-2.609,1.429-3.914a31.159,31.159,0,0,1,2.609-6.213c1.491-2.485,4.288-5.28,5.966-5.466a.809.809,0,0,1,.808.31c3.231,3.728,1.057,9.754-1.119,15.531a58.656,58.656,0,0,0-2.051,6.088l-.124.435a18.887,18.887,0,0,0-.87,6.275c.248,2.423,1.741,5.28,4.536,6.026,3.541.995,6.9-1.491,9.509-6.9l6.028-12.611c1.243-2.609,3.231-5.592,5.594-5.156,1.491.31,2.487,1.988,2.671,3.478a13.89,13.89,0,0,1-.808,5.592l-.062.248a155.68,155.68,0,0,0-3.541,16.836c-.31,2.236-.186,5.28,1.243,7.144a4.223,4.223,0,0,0,2.919,1.615h.684c.186-.559.436-1.119.622-1.678.248-.683.5-1.429.746-2.112a2.314,2.314,0,0,1-1.741,1.057,1.369,1.369,0,0,1-1-.559,7.435,7.435,0,0,1-.684-4.971,150.429,150.429,0,0,1,3.479-16.524l.062-.248a17.032,17.032,0,0,0,.87-6.647c-.31-2.423-1.989-5.342-4.91-5.9-2.3-.435-5.594.373-8.637,6.709l-6.028,12.611c-.932,1.926-3.355,6.213-6.216,5.4-1.491-.435-2.3-2.174-2.487-3.6a16.165,16.165,0,0,1,.746-5.28l.124-.435c.5-1.8,1.181-3.79,1.927-5.84,2.3-6.275,4.91-13.356.622-18.327a3.645,3.645,0,0,0-3.169-1.3c-3.107.31-6.588,4.224-8.077,6.833a35.513,35.513,0,0,0-2.857,6.771c-.436,1.243-.87,2.547-1.367,3.728-.932,2.3-1.989,3.666-3.293,4.349a3.288,3.288,0,0,1-2.549.124,1.893,1.893,0,0,1-1.119-.995c-.374-.931.124-2.236.622-3.478.31-.869.684-1.8,1.057-2.733,2.609-6.771,5.594-14.413,2.671-21.184a3.16,3.16,0,0,0-2.175-1.864,6.968,6.968,0,0,0-5.468,1.057,10.527,10.527,0,0,0-3.915,5.592c-.622,1.74-1,3.54-1.429,5.28a36.388,36.388,0,0,1-1.741,6.088c-1.119,2.609-3.977,6.026-5.842,6.337a1.081,1.081,0,0,1-.932-.31c-1.989-2.236-.31-7.828,1.367-13.232,1.305-4.349,2.671-8.884,2.671-12.86a6.277,6.277,0,0,0-.5-2.609c-2.487.31-4.91.621-7.333.995-2.857,3.293-4.288,7.392-5.718,11.432a40.751,40.751,0,0,1-4.288,9.442,6,6,0,0,1-3.853,2.547,1.547,1.547,0,0,1-1.243-.435C67.368,216.1,67.618,214.425,67.988,212.995Z" transform="translate(-34.494 -193.236)"/>
        <path id="Path_1844" data-name="Path 1844" class="cls-3" d="M61.765,200.078c.186-.745.374-1.429.56-2.112-1.057.248-2.113.5-3.107.807-.062.186-.124.435-.186.621-.248.869-.5,1.8-.746,2.671-1.305,4.473-3.791,9.442-5.966,10.251a1.5,1.5,0,0,1-1.429-.186c-1.989-1.3-.31-6.771,1.367-11.368-1.119.31-2.237.683-3.355.995-1.8,5.342-2.919,10.5.436,12.673a4.333,4.333,0,0,0,3.977.5c4.474-1.678,7.209-10.375,7.705-12.115C61.269,201.88,61.517,200.949,61.765,200.078Z" transform="translate(-36.1 -192.807)"/>
        <path id="Path_1845" data-name="Path 1845" class="cls-3" d="M37.022,205.447a5.327,5.327,0,0,0,2.609-.931Z" transform="translate(-37.022 -192.212)"/>
      </g>
      <path id="Path_1846-2" data-name="Path 1846" class="cls-3" d="M113.342,174.575c-5.78,5.342-11.87,10.561-19.265,13.232-10.316,3.79-22.124,1.988-31.943-2.919s-17.961-12.736-25.043-21.122C8.006,129.1-5.168,81.638,1.855,36.91A313.654,313.654,0,0,1,95.444,49.894c15.35,4.6,30.7,10.561,42.819,21s20.633,26.154,19.015,42.121c-1.491,14.91-11.248,27.583-21.378,38.7C128.753,159.727,121.233,167.307,113.342,174.575Z" transform="translate(-247.391 466.162)"/>
      <g id="Group_519" data-name="Group 519" transform="translate(-247.337 516.303)">
        <path id="Path_1847" data-name="Path 1847" class="cls-3" d="M1.105,53.571c1.057,1.491.186,3.852-1.057,5.716,0,1.864,0,3.79.062,5.654.808-.869,1.615-1.8,2.363-2.733,2.983-3.914,3.6-7.89,1.679-10.685A6.28,6.28,0,0,0,.423,49.038C.361,50.28.237,51.523.237,52.765A5.342,5.342,0,0,1,1.105,53.571Z" transform="translate(-0.048 -49.038)"/>
        <path id="Path_1848" data-name="Path 1848" class="cls-3" d="M120.665,155.784c-2.983-.683-6.65.807-9.135,2.485a200.09,200.09,0,0,0-17.961,13.605l-.248.186a18.811,18.811,0,0,1-6.152,4.038c-1.927.621-4.474.373-5.594-1.243-1.865-2.547.56-6.585,2.983-9.506l11.5-14.227c4.972-6.088,5.966-11.865,2.857-15.469-2.487-2.857-6.712-3.169-9.757-2.547h0c-2.733,1.243-4.784,3.293-6.836,5.033l-.374.807c-2.051,1.678-3.977,3.79-6.09,5.9-5.656,5.778-11.56,11.8-17.774,10a1.171,1.171,0,0,1-.87-.745c-.746-2.05,1.057-6.958,3.169-10.063a41.461,41.461,0,0,1,5.9-6.523c1.305-1.243,2.609-2.485,3.853-3.852,1.741-1.926,4.1-4.971,4.225-8.7a8.02,8.02,0,0,0-2.425-5.84,5.975,5.975,0,0,0-4.6-1.74c-2.733.186-4.6,2.174-6.152,3.79-.87.931-1.8,1.864-2.671,2.8-6.34,6.709-12.864,13.605-21.067,13.915a.636.636,0,0,1-.56-.31,5.944,5.944,0,0,1-.932-4.038c.248-1.8,1.367-3.666,3.355-5.654a51.575,51.575,0,0,1,5.158-4.349,50.188,50.188,0,0,0,6.712-5.964c2.733-3.107,6.216-9.692,4.972-13.853a4.787,4.787,0,0,0-3.417-3.354c-5.718-1.614-11.87,3.914-18.332,9.754-4.225,3.79-8.637,7.766-12.8,9.754-1.181.559-2.051.621-2.3.373-.186-.186-.248-.869.062-1.926,1.679-5.528,5.842-9.692,10.316-14.1,3.417-3.354,6.9-6.9,9.321-11.12,1.367-2.423,2.3-6.213,1.119-9.194a5.439,5.439,0,0,0-3.541-3.354c-3.417-1.057-6.526,1.429-8.077,2.609L9.427,98.134a13.833,13.833,0,0,1-3.853,2.3c.31,1.181.684,2.361,1,3.54a16.364,16.364,0,0,0,5.1-2.919L30.743,86.083c1.553-1.243,3.355-2.423,4.722-1.988a2,2,0,0,1,1.243,1.181c.622,1.491.186,4.1-.87,6.026-2.175,3.852-5.53,7.144-8.761,10.375-4.536,4.535-9.259,9.256-11.186,15.655-.932,3.045-.062,4.721.808,5.592,1.491,1.491,3.791,1.614,6.464.31C27.886,121,32.484,116.9,36.9,112.92c5.468-4.971,11.124-10.063,14.853-8.946a1.208,1.208,0,0,1,.932.869c.684,2.3-1.741,7.58-4.225,10.375a44.336,44.336,0,0,1-6.216,5.466,48.011,48.011,0,0,0-5.468,4.659c-2.609,2.609-4.039,5.095-4.412,7.7a9.238,9.238,0,0,0,1.8,7.02,4.164,4.164,0,0,0,3.417,1.491c9.695-.373,17.028-8.137,23.552-15.034.87-.931,1.8-1.864,2.671-2.8,1.243-1.243,2.487-2.547,3.791-2.671a2.329,2.329,0,0,1,1.8.745,4.423,4.423,0,0,1,1.305,3.107c-.062,1.926-1.119,3.914-3.293,6.337-1.119,1.243-2.425,2.485-3.667,3.666a44.166,44.166,0,0,0-6.4,7.144c-2.175,3.292-4.972,9.506-3.541,13.42a4.768,4.768,0,0,0,3.293,3.045c8.327,2.361,15.225-4.721,21.378-10.934,2.051-2.05,3.915-3.976,5.842-5.592l.56-.807a52.069,52.069,0,0,1,5.842-4.287h0c1.8,0,4.288-.186,5.594,1.3,2.549,2.919-1.243,8.449-2.983,10.561l-11.56,14.289c-5.78,7.082-4.91,11.556-3.107,13.977,2.3,3.169,6.65,3.54,9.695,2.547,2.919-.931,5.158-2.857,7.4-4.721l.248-.186a192.732,192.732,0,0,1,17.588-13.356c2.237-1.49,4.784-2.3,6.278-1.926a1.574,1.574,0,0,1,1.181.869,3.112,3.112,0,0,1-.374,2.983c1.305-1.3,2.671-2.609,3.977-3.914a3.736,3.736,0,0,0-.436-.869A5.023,5.023,0,0,0,120.665,155.784Z" transform="translate(0.454 -46.199)"/>
        <path id="Path_1849" data-name="Path 1849" class="cls-3" d="M.845,75.335c.186,1.552.374,3.107.56,4.6,1.243-1.181,2.487-2.423,3.853-3.852C9.918,71.3,17,64.029,20.11,65.891a1.917,1.917,0,0,1,1.057,1.552c.248,3.107-4.225,8.759-8.761,12.8-.87.807-1.8,1.552-2.733,2.361A59.5,59.5,0,0,0,2.9,88.94c.31,1.614.622,3.169,1,4.721,1.989-3.107,4.972-5.654,8.139-8.263q1.4-1.211,2.8-2.423c1.741-1.552,10.564-9.63,10-15.9a5.693,5.693,0,0,0-2.8-4.411C16.445,59.244,9.114,66.76,2.65,73.407,1.963,74.154,1.4,74.714.845,75.335Z" transform="translate(0.025 -47.878)"/>
      </g>
      <g id="Group_520" data-name="Group 520" transform="translate(-226.459 503.441)">
        <path id="Path_1850" data-name="Path 1850" class="cls-3" d="M53.555,61.869,67.04,43.3c-1.305-.31-2.609-.559-3.915-.807L50.572,59.7c-1.119,1.552-3.479,4.783-2.3,8.137A5.6,5.6,0,0,0,51.75,71.25c2.983,1.057,6.774.062,9.135-1.429,4.163-2.609,7.521-6.213,10.814-9.754,4.225-4.6,8.265-8.884,13.733-10.81a2.754,2.754,0,0,1,1.927-.186c.248.186.186,1.119-.31,2.3-1.8,4.287-5.594,8.822-9.259,13.17-5.656,6.709-10.938,13.046-9.073,18.7A4.893,4.893,0,0,0,72.2,86.533c4.225,1.057,10.626-2.609,13.671-5.466a49.534,49.534,0,0,0,5.718-6.9,59.869,59.869,0,0,1,4.163-5.28c1.927-2.05,3.729-3.231,5.53-3.54a5.626,5.626,0,0,1,4.039.745.633.633,0,0,1,.31.559c0,8.2-6.65,14.972-13.112,21.5-.932.931-1.8,1.864-2.733,2.8-1.491,1.614-3.417,3.54-3.541,6.275a5.929,5.929,0,0,0,1.927,4.534,8.091,8.091,0,0,0,5.9,2.236c3.729-.248,6.65-2.671,8.575-4.535,1.305-1.3,2.549-2.671,3.729-3.976a39.265,39.265,0,0,1,6.34-6.15c3.045-2.174,7.891-4.162,9.943-3.478a1.071,1.071,0,0,1,.808.807c1.989,6.15-3.791,12.239-9.321,18.079-2.051,2.174-3.977,4.224-5.594,6.275l-.374.5a22.557,22.557,0,0,0-4.225,7.082c-1,3.045-.622,7.206,2.3,9.568,3.729,2.983,9.011,1.74,14.977-3.416l13.733-12.051c2.857-2.485,6.774-5.094,9.383-3.293,1.679,1.119,1.989,3.666,1.429,5.592-.622,2.236-2.175,4.224-3.853,6.275l-.186.248A188.087,188.087,0,0,0,128.813,139.9c-1.553,2.485-2.919,6.275-2.175,9.194a5.416,5.416,0,0,0,2.733,3.416c.248.124.5.248.808.373.5-.559,1.057-1.119,1.615-1.74.684-.745,1.305-1.491,1.989-2.174a2.7,2.7,0,0,1-2.609.31,1.567,1.567,0,0,1-.87-1.181c-.374-1.429.31-4.038,1.741-6.337a200.513,200.513,0,0,1,12.678-18.079l.186-.248c1.8-2.236,3.667-4.6,4.474-7.58.87-3.107.374-7.454-2.919-9.63-2.487-1.678-6.961-2.423-13.857,3.6l-13.733,12.051c-2.051,1.8-7.209,5.778-10.254,3.354-1.553-1.243-1.679-3.79-1.119-5.592a20.4,20.4,0,0,1,3.667-5.964l.374-.5c1.491-1.926,3.355-3.914,5.344-6.026,6.028-6.337,12.8-13.543,10.192-21.743a4.765,4.765,0,0,0-3.169-3.169c-3.915-1.3-10.067,1.74-13.236,4.038a46.908,46.908,0,0,0-6.9,6.647c-1.119,1.3-2.363,2.609-3.541,3.79-2.363,2.3-4.35,3.354-6.216,3.478a4.07,4.07,0,0,1-3.107-1.181,2.557,2.557,0,0,1-.808-1.74c.062-1.3,1.305-2.609,2.549-3.914.87-.931,1.741-1.8,2.671-2.733,6.65-6.771,14.169-14.413,14.169-24.1a4.266,4.266,0,0,0-1.615-3.354,9.27,9.27,0,0,0-7.085-1.552,14.039,14.039,0,0,0-7.583,4.659,53.309,53.309,0,0,0-4.412,5.654,44.949,44.949,0,0,1-5.22,6.4c-2.733,2.547-7.891,5.156-10.254,4.6a1.208,1.208,0,0,1-.932-.869c-1.243-3.666,3.667-9.568,8.451-15.22,3.853-4.6,7.767-9.318,9.819-14.1a8.3,8.3,0,0,0,.746-3.416q-4.66-1.4-9.321-2.609c-5.1,2.485-9.011,6.647-12.8,10.747C66.172,60.814,63,64.231,59.213,66.592c-1.865,1.181-4.474,1.678-5.966,1.119A1.926,1.926,0,0,1,52,66.53C51.254,65.286,52.374,63.422,53.555,61.869Z" transform="translate(-16.579 -36.77)"/>
        <path id="Path_1851" data-name="Path 1851" class="cls-3" d="M52.285,43.165c.622-.745,1.181-1.491,1.8-2.236-1.367-.248-2.8-.435-4.163-.621-.186.186-.31.435-.5.621-.746.931-1.491,1.926-2.237,2.8-3.853,4.721-9.383,9.38-12.491,9.194a1.935,1.935,0,0,1-1.615-.995C31.342,49.315,36.252,43.6,40.6,38.94c-1.491-.186-3.045-.31-4.536-.5-4.972,5.466-8.887,11.12-6.028,15.469a5.661,5.661,0,0,0,4.474,2.671c6.278.31,14.045-8.759,15.536-10.561C50.731,45.089,51.539,44.1,52.285,43.165Z" transform="translate(-18.293 -37.138)"/>
        <path id="Path_1852" data-name="Path 1852" class="cls-3" d="M19.19,37.246a7.227,7.227,0,0,0,3.667.186C21.613,37.37,20.434,37.308,19.19,37.246Z" transform="translate(-19.19 -37.246)"/>
      </g>
    </g>
    <path id="texture-2_8_-i0" class="cls-7" d="M130.293,122.794a.663.663,0,1,0-.484.8h0a.662.662,0,0,0,.484-.8ZM89.18,68.6a.679.679,0,0,0-.226-.934h0a.62.62,0,0,0-.858.181.336.336,0,0,0-.042.077.654.654,0,0,0,.194.9.685.685,0,0,0,.933-.226Zm19.058,28.788a.741.741,0,0,0,.13-.968.69.69,0,1,0-1.1.838A.741.741,0,0,0,108.238,97.387Zm84.454-26.635a1.291,1.291,0,0,0,.357-1.772,1.23,1.23,0,0,0-1.681-.426.459.459,0,0,0-.056.036,1.291,1.291,0,0,0-.357,1.772,1.256,1.256,0,0,0,1.736.39Zm-25.78,16.782a1.277,1.277,0,0,0-1.414-2.127,1.258,1.258,0,0,0-.39,1.737h0A1.363,1.363,0,0,0,166.911,87.534Zm-25.839,16.783a1.251,1.251,0,0,0,.379-1.732l-.025-.034a1.23,1.23,0,0,0-1.681-.426.462.462,0,0,0-.056.036,1.363,1.363,0,0,0-.39,1.8A1.294,1.294,0,0,0,141.073,104.318Zm62.844,31.291a1.263,1.263,0,1,0-.995,1.515,1.307,1.307,0,0,0,.995-1.515Zm-30.271,5.631a1.263,1.263,0,1,0-1,1.515,1.308,1.308,0,0,0,1-1.515Zm-33.3-104.02a1.286,1.286,0,0,0-.355-1.772,1.242,1.242,0,0,0-1.731.311l-.008.01a1.221,1.221,0,0,0,.209,1.714l.081.06A1.356,1.356,0,0,0,140.347,37.22Zm-17.45,25.4a1.352,1.352,0,0,0-.319-1.8,1.288,1.288,0,0,0-1.771.355,1.264,1.264,0,0,0,.33,1.758l.018.013a1.241,1.241,0,0,0,1.729-.307A.094.094,0,0,0,122.9,62.615ZM105.482,87.976a1.218,1.218,0,0,0-.269-1.7.282.282,0,0,0-.051-.032,1.265,1.265,0,0,0-1.768.266l-.038.051a1.277,1.277,0,1,0,2.114,1.433A.1.1,0,0,1,105.482,87.976ZM208.645,165.44a1.132,1.132,0,1,0-2.256.188,1.131,1.131,0,0,0,1.222,1.034h0A1.146,1.146,0,0,0,208.645,165.44ZM154.87,63.715a1.2,1.2,0,0,0-.161-1.644,1.1,1.1,0,0,0-1.547.123l-.031.04a1.125,1.125,0,0,0,.112,1.594l.018.013a1.189,1.189,0,0,0,1.609-.127Zm-17.64,21.014a1.127,1.127,0,0,0-.158-1.579,1.1,1.1,0,0,0-1.547.123l-.031.04a1.133,1.133,0,0,0,.108,1.6l.018.013a1.172,1.172,0,0,0,1.61-.2Zm-17.668,21.11a1.133,1.133,0,0,0-.108-1.6l-.018-.013a1.071,1.071,0,0,0-1.512.077.864.864,0,0,0-.07.084,1.133,1.133,0,0,0,.108,1.6l.018.013a1.161,1.161,0,0,0,1.582-.161Zm60.8,12.476a1.151,1.151,0,0,0,.451-1.546,1.122,1.122,0,0,0-1.512-.483,1.145,1.145,0,1,0,1.061,2.03Zm-24.391,12.692a1.092,1.092,0,0,0,.517-1.453.379.379,0,0,1-.029-.061,1.122,1.122,0,0,0-1.512-.483,1.193,1.193,0,0,0-.517,1.544,1.143,1.143,0,0,0,1.54.453ZM100.859,49.413a1.079,1.079,0,0,0-.671-1.366.362.362,0,0,0-.065-.019,1.133,1.133,0,0,0-1.439.7.121.121,0,0,0-.01.036,1.174,1.174,0,0,0,.773,1.42,1.118,1.118,0,0,0,1.4-.721.13.13,0,0,1,.009-.051ZM92.614,75.655a1.172,1.172,0,0,0-.739-1.451,1.149,1.149,0,0,0-.708,2.185,1.12,1.12,0,0,0,1.43-.674.2.2,0,0,0,.017-.06ZM232.266,148.3a1.364,1.364,0,0,0,.52-1.8,1.314,1.314,0,0,0-1.769-.55,1.348,1.348,0,0,0-.52,1.8,1.314,1.314,0,0,0,1.769.55Zm-28,14.942a1.31,1.31,0,1,0-1.769-.55,1.311,1.311,0,0,0,1.769.55ZM129.662,62.753a1.38,1.38,0,0,0-.9-1.675,1.325,1.325,0,0,0-.745,2.541,1.348,1.348,0,0,0,1.646-.867Zm-9.215,30.366a1.347,1.347,0,0,0-.866-1.645,1.315,1.315,0,0,0-.778,2.512,1.342,1.342,0,0,0,1.644-.867Zm61.285,15.146a1.4,1.4,0,0,0-.188-1.87,1.327,1.327,0,0,0-1.839.225,1.289,1.289,0,0,0,.14,1.82l.022.016a1.322,1.322,0,0,0,1.865-.191ZM161.58,132.817a1.332,1.332,0,0,0-.186-1.867l0,0a1.279,1.279,0,0,0-1.8.188h0a1.3,1.3,0,0,0,1.99,1.681Zm39.877-15.349a1.3,1.3,0,1,0-1.873.125,1.328,1.328,0,0,0,1.873-.125Zm-21.051,23.588a1.327,1.327,0,0,0-.127-1.868,1.348,1.348,0,0,0-1.838.094,1.4,1.4,0,0,0,.094,1.9,1.361,1.361,0,0,0,1.872-.126ZM138.148,98.485a1.34,1.34,0,0,0-.835-1.677,1.293,1.293,0,0,0-1.643.8,1.276,1.276,0,0,0,.716,1.655.225.225,0,0,0,.055.018,1.3,1.3,0,0,0,1.69-.763.069.069,0,0,0,.018-.038Z" transform="translate(343.121 96.339)"/>
    <path id="texture-2_8_-i0-2" data-name="texture-2_8_-i0" class="cls-8" d="M130.293,122.794a.663.663,0,1,0-.484.8h0a.662.662,0,0,0,.484-.8ZM89.18,68.6a.679.679,0,0,0-.226-.934h0a.62.62,0,0,0-.858.181.336.336,0,0,0-.042.077.654.654,0,0,0,.194.9.685.685,0,0,0,.933-.226Zm19.058,28.788a.741.741,0,0,0,.13-.968.69.69,0,1,0-1.1.838A.741.741,0,0,0,108.238,97.387Zm84.454-26.635a1.291,1.291,0,0,0,.357-1.772,1.23,1.23,0,0,0-1.681-.426.459.459,0,0,0-.056.036,1.291,1.291,0,0,0-.357,1.772,1.256,1.256,0,0,0,1.736.39Zm-25.78,16.782a1.277,1.277,0,0,0-1.414-2.127,1.258,1.258,0,0,0-.39,1.737h0A1.363,1.363,0,0,0,166.911,87.534Zm-25.839,16.783a1.251,1.251,0,0,0,.379-1.732l-.025-.034a1.23,1.23,0,0,0-1.681-.426.462.462,0,0,0-.056.036,1.363,1.363,0,0,0-.39,1.8A1.294,1.294,0,0,0,141.073,104.318Zm62.844,31.291a1.263,1.263,0,1,0-.995,1.515,1.307,1.307,0,0,0,.995-1.515Zm-30.271,5.631a1.263,1.263,0,1,0-1,1.515,1.308,1.308,0,0,0,1-1.515Zm-33.3-104.02a1.286,1.286,0,0,0-.355-1.772,1.242,1.242,0,0,0-1.731.311l-.008.01a1.221,1.221,0,0,0,.209,1.714l.081.06A1.356,1.356,0,0,0,140.347,37.22Zm-17.45,25.4a1.352,1.352,0,0,0-.319-1.8,1.288,1.288,0,0,0-1.771.355,1.264,1.264,0,0,0,.33,1.758l.018.013a1.241,1.241,0,0,0,1.729-.307A.094.094,0,0,0,122.9,62.615ZM105.482,87.976a1.218,1.218,0,0,0-.269-1.7.282.282,0,0,0-.051-.032,1.265,1.265,0,0,0-1.768.266l-.038.051a1.277,1.277,0,1,0,2.114,1.433A.1.1,0,0,1,105.482,87.976ZM208.645,165.44a1.132,1.132,0,1,0-2.256.188,1.131,1.131,0,0,0,1.222,1.034h0A1.146,1.146,0,0,0,208.645,165.44ZM154.87,63.715a1.2,1.2,0,0,0-.161-1.644,1.1,1.1,0,0,0-1.547.123l-.031.04a1.125,1.125,0,0,0,.112,1.594l.018.013a1.189,1.189,0,0,0,1.609-.127Zm-17.64,21.014a1.127,1.127,0,0,0-.158-1.579,1.1,1.1,0,0,0-1.547.123l-.031.04a1.133,1.133,0,0,0,.108,1.6l.018.013a1.172,1.172,0,0,0,1.61-.2Zm-17.668,21.11a1.133,1.133,0,0,0-.108-1.6l-.018-.013a1.071,1.071,0,0,0-1.512.077.864.864,0,0,0-.07.084,1.133,1.133,0,0,0,.108,1.6l.018.013a1.161,1.161,0,0,0,1.582-.161Zm60.8,12.476a1.151,1.151,0,0,0,.451-1.546,1.122,1.122,0,0,0-1.512-.483,1.145,1.145,0,1,0,1.061,2.03Zm-24.391,12.692a1.092,1.092,0,0,0,.517-1.453.379.379,0,0,1-.029-.061,1.122,1.122,0,0,0-1.512-.483,1.193,1.193,0,0,0-.517,1.544,1.143,1.143,0,0,0,1.54.453ZM100.859,49.413a1.079,1.079,0,0,0-.671-1.366.362.362,0,0,0-.065-.019,1.133,1.133,0,0,0-1.439.7.121.121,0,0,0-.01.036,1.174,1.174,0,0,0,.773,1.42,1.118,1.118,0,0,0,1.4-.721.13.13,0,0,1,.009-.051ZM92.614,75.655a1.172,1.172,0,0,0-.739-1.451,1.149,1.149,0,0,0-.708,2.185,1.12,1.12,0,0,0,1.43-.674.2.2,0,0,0,.017-.06ZM232.266,148.3a1.364,1.364,0,0,0,.52-1.8,1.314,1.314,0,0,0-1.769-.55,1.348,1.348,0,0,0-.52,1.8,1.314,1.314,0,0,0,1.769.55Zm-28,14.942a1.31,1.31,0,1,0-1.769-.55,1.311,1.311,0,0,0,1.769.55ZM129.662,62.753a1.38,1.38,0,0,0-.9-1.675,1.325,1.325,0,0,0-.745,2.541,1.348,1.348,0,0,0,1.646-.867Zm-9.215,30.366a1.347,1.347,0,0,0-.866-1.645,1.315,1.315,0,0,0-.778,2.512,1.342,1.342,0,0,0,1.644-.867Zm61.285,15.146a1.4,1.4,0,0,0-.188-1.87,1.327,1.327,0,0,0-1.839.225,1.289,1.289,0,0,0,.14,1.82l.022.016a1.322,1.322,0,0,0,1.865-.191ZM161.58,132.817a1.332,1.332,0,0,0-.186-1.867l0,0a1.279,1.279,0,0,0-1.8.188h0a1.3,1.3,0,0,0,1.99,1.681Zm39.877-15.349a1.3,1.3,0,1,0-1.873.125,1.328,1.328,0,0,0,1.873-.125Zm-21.051,23.588a1.327,1.327,0,0,0-.127-1.868,1.348,1.348,0,0,0-1.838.094,1.4,1.4,0,0,0,.094,1.9,1.361,1.361,0,0,0,1.872-.126ZM138.148,98.485a1.34,1.34,0,0,0-.835-1.677,1.293,1.293,0,0,0-1.643.8,1.276,1.276,0,0,0,.716,1.655.225.225,0,0,0,.055.018,1.3,1.3,0,0,0,1.69-.763.069.069,0,0,0,.018-.038Z" transform="translate(1082.121 217.339)"/>
    <path id="texture-2_8_-i0-3" data-name="texture-2_8_-i0" class="cls-9" d="M130.293,122.794a.663.663,0,1,0-.484.8h0a.662.662,0,0,0,.484-.8ZM89.18,68.6a.679.679,0,0,0-.226-.934h0a.62.62,0,0,0-.858.181.336.336,0,0,0-.042.077.654.654,0,0,0,.194.9.685.685,0,0,0,.933-.226Zm19.058,28.788a.741.741,0,0,0,.13-.968.69.69,0,1,0-1.1.838A.741.741,0,0,0,108.238,97.387Zm84.454-26.635a1.291,1.291,0,0,0,.357-1.772,1.23,1.23,0,0,0-1.681-.426.459.459,0,0,0-.056.036,1.291,1.291,0,0,0-.357,1.772,1.256,1.256,0,0,0,1.736.39Zm-25.78,16.782a1.277,1.277,0,0,0-1.414-2.127,1.258,1.258,0,0,0-.39,1.737h0A1.363,1.363,0,0,0,166.911,87.534Zm-25.839,16.783a1.251,1.251,0,0,0,.379-1.732l-.025-.034a1.23,1.23,0,0,0-1.681-.426.462.462,0,0,0-.056.036,1.363,1.363,0,0,0-.39,1.8A1.294,1.294,0,0,0,141.073,104.318Zm62.844,31.291a1.263,1.263,0,1,0-.995,1.515,1.307,1.307,0,0,0,.995-1.515Zm-30.271,5.631a1.263,1.263,0,1,0-1,1.515,1.308,1.308,0,0,0,1-1.515Zm-33.3-104.02a1.286,1.286,0,0,0-.355-1.772,1.242,1.242,0,0,0-1.731.311l-.008.01a1.221,1.221,0,0,0,.209,1.714l.081.06A1.356,1.356,0,0,0,140.347,37.22Zm-17.45,25.4a1.352,1.352,0,0,0-.319-1.8,1.288,1.288,0,0,0-1.771.355,1.264,1.264,0,0,0,.33,1.758l.018.013a1.241,1.241,0,0,0,1.729-.307A.094.094,0,0,0,122.9,62.615ZM105.482,87.976a1.218,1.218,0,0,0-.269-1.7.282.282,0,0,0-.051-.032,1.265,1.265,0,0,0-1.768.266l-.038.051a1.277,1.277,0,1,0,2.114,1.433A.1.1,0,0,1,105.482,87.976ZM208.645,165.44a1.132,1.132,0,1,0-2.256.188,1.131,1.131,0,0,0,1.222,1.034h0A1.146,1.146,0,0,0,208.645,165.44ZM154.87,63.715a1.2,1.2,0,0,0-.161-1.644,1.1,1.1,0,0,0-1.547.123l-.031.04a1.125,1.125,0,0,0,.112,1.594l.018.013a1.189,1.189,0,0,0,1.609-.127Zm-17.64,21.014a1.127,1.127,0,0,0-.158-1.579,1.1,1.1,0,0,0-1.547.123l-.031.04a1.133,1.133,0,0,0,.108,1.6l.018.013a1.172,1.172,0,0,0,1.61-.2Zm-17.668,21.11a1.133,1.133,0,0,0-.108-1.6l-.018-.013a1.071,1.071,0,0,0-1.512.077.864.864,0,0,0-.07.084,1.133,1.133,0,0,0,.108,1.6l.018.013a1.161,1.161,0,0,0,1.582-.161Zm60.8,12.476a1.151,1.151,0,0,0,.451-1.546,1.122,1.122,0,0,0-1.512-.483,1.145,1.145,0,1,0,1.061,2.03Zm-24.391,12.692a1.092,1.092,0,0,0,.517-1.453.379.379,0,0,1-.029-.061,1.122,1.122,0,0,0-1.512-.483,1.193,1.193,0,0,0-.517,1.544,1.143,1.143,0,0,0,1.54.453ZM100.859,49.413a1.079,1.079,0,0,0-.671-1.366.362.362,0,0,0-.065-.019,1.133,1.133,0,0,0-1.439.7.121.121,0,0,0-.01.036,1.174,1.174,0,0,0,.773,1.42,1.118,1.118,0,0,0,1.4-.721.13.13,0,0,1,.009-.051ZM92.614,75.655a1.172,1.172,0,0,0-.739-1.451,1.149,1.149,0,0,0-.708,2.185,1.12,1.12,0,0,0,1.43-.674.2.2,0,0,0,.017-.06ZM232.266,148.3a1.364,1.364,0,0,0,.52-1.8,1.314,1.314,0,0,0-1.769-.55,1.348,1.348,0,0,0-.52,1.8,1.314,1.314,0,0,0,1.769.55Zm-28,14.942a1.31,1.31,0,1,0-1.769-.55,1.311,1.311,0,0,0,1.769.55ZM129.662,62.753a1.38,1.38,0,0,0-.9-1.675,1.325,1.325,0,0,0-.745,2.541,1.348,1.348,0,0,0,1.646-.867Zm-9.215,30.366a1.347,1.347,0,0,0-.866-1.645,1.315,1.315,0,0,0-.778,2.512,1.342,1.342,0,0,0,1.644-.867Zm61.285,15.146a1.4,1.4,0,0,0-.188-1.87,1.327,1.327,0,0,0-1.839.225,1.289,1.289,0,0,0,.14,1.82l.022.016a1.322,1.322,0,0,0,1.865-.191ZM161.58,132.817a1.332,1.332,0,0,0-.186-1.867l0,0a1.279,1.279,0,0,0-1.8.188h0a1.3,1.3,0,0,0,1.99,1.681Zm39.877-15.349a1.3,1.3,0,1,0-1.873.125,1.328,1.328,0,0,0,1.873-.125Zm-21.051,23.588a1.327,1.327,0,0,0-.127-1.868,1.348,1.348,0,0,0-1.838.094,1.4,1.4,0,0,0,.094,1.9,1.361,1.361,0,0,0,1.872-.126ZM138.148,98.485a1.34,1.34,0,0,0-.835-1.677,1.293,1.293,0,0,0-1.643.8,1.276,1.276,0,0,0,.716,1.655.225.225,0,0,0,.055.018,1.3,1.3,0,0,0,1.69-.763.069.069,0,0,0,.018-.038Z" transform="translate(1572.121 110.339)"/>
  </g>
</svg>
