<svg xmlns="http://www.w3.org/2000/svg" xmlns:xlink="http://www.w3.org/1999/xlink" width="1019" height="752" viewBox="0 0 1019 752">
  <defs>
    <style>
      .cls-1 {
        clip-path: url(#clip-Web_1920_34);
      }

      .cls-2 {
        fill: #171c54;
        stroke: #edc697;
        stroke-width: 0.5px;
      }

      .cls-3, .cls-4, .cls-7 {
        fill: #dfebfe;
      }

      .cls-3 {
        opacity: 0.19;
      }

      .cls-3, .cls-4 {
        mix-blend-mode: overlay;
        isolation: isolate;
      }

      .cls-4 {
        opacity: 0.16;
      }

      .cls-5 {
        fill: #a1c3fc;
      }

      .cls-6 {
        fill: #eee;
      }

      .cls-8 {
        fill: #cfe0fd;
      }

      .cls-9 {
        fill: #bfd6fd;
      }

      .cls-10 {
        fill: #cee0fd;
      }

      .cls-11 {
        fill: #d6d7d8;
      }

      .cls-12 {
        fill: #d62929;
      }

      .cls-13 {
        fill: #428dfc;
      }

      .cls-14 {
        fill: #3a87f4;
      }

      .cls-15 {
        fill: #1d72d8;
      }

      .cls-16 {
        fill: url(#linear-gradient);
      }

      .cls-17 {
        fill: url(#linear-gradient-2);
      }

      .cls-18 {
        fill: #89b3f4;
      }

      .cls-19 {
        fill: url(#linear-gradient-3);
      }

      .cls-20 {
        fill: #f7931e;
      }

      .cls-21 {
        fill: #fbb03b;
      }

      .cls-22 {
        fill: url(#linear-gradient-4);
      }

      .cls-23 {
        fill: #cbdefd;
      }

      .cls-24 {
        fill: url(#linear-gradient-5);
      }

      .cls-25 {
        fill: none;
      }

      .cls-26 {
        fill: #e94a47;
      }

      .cls-27 {
        fill: #23286b;
      }

      .cls-28 {
        fill: url(#linear-gradient-6);
      }

      .cls-29 {
        fill: #fff;
      }

      .cls-30 {
        fill: #ffbeb6;
      }

      .cls-31 {
        fill: url(#linear-gradient-7);
      }

      .cls-32 {
        fill: #f2a19c;
      }

      .cls-33 {
        fill: url(#linear-gradient-8);
      }

      .cls-34 {
        fill: url(#linear-gradient-9);
      }

      .cls-35 {
        fill: url(#linear-gradient-10);
      }

      .cls-36 {
        fill: url(#linear-gradient-11);
      }

      .cls-37 {
        fill: url(#linear-gradient-12);
      }

      .cls-38 {
        fill: #b9d3fd;
      }

      .cls-39 {
        fill: #fcfcfc;
      }

      .cls-40 {
        fill: #aecbf5;
      }

      .cls-41 {
        stroke: none;
      }

      .cls-42 {
        filter: url(#Rectangle_541);
      }
    </style>
    <filter id="Rectangle_541" x="-71" y="-11" width="2065.8" height="803" filterUnits="userSpaceOnUse">
      <feOffset dy="3" input="SourceAlpha"/>
      <feGaussianBlur stdDeviation="3" result="blur"/>
      <feFlood flood-color="#7398cc" flood-opacity="0.161"/>
      <feComposite operator="in" in2="blur"/>
      <feComposite in="SourceGraphic"/>
    </filter>
    <linearGradient id="linear-gradient" x1="49.324" y1="-37.892" x2="42.34" y2="-38.412" gradientUnits="objectBoundingBox">
      <stop offset="0" stop-color="#ffbeb6"/>
      <stop offset="1" stop-color="#f2a19c"/>
    </linearGradient>
    <linearGradient id="linear-gradient-2" x1="33.928" y1="-26.783" x2="26.928" y2="-26.826" xlink:href="#linear-gradient"/>
    <linearGradient id="linear-gradient-3" x1="18.457" y1="-51.502" x2="14.928" y2="-51.416" xlink:href="#linear-gradient"/>
    <linearGradient id="linear-gradient-4" x1="41.002" y1="-21.496" x2="42.716" y2="-17.916" gradientUnits="objectBoundingBox">
      <stop offset="0" stop-color="#428dfc"/>
      <stop offset="1" stop-color="#1d72d8"/>
    </linearGradient>
    <linearGradient id="linear-gradient-5" x1="21.877" y1="-17.844" x2="28.141" y2="-20.665" gradientUnits="objectBoundingBox">
      <stop offset="0" stop-color="#a1c3fc"/>
      <stop offset="1" stop-color="#78a9ef"/>
    </linearGradient>
    <linearGradient id="linear-gradient-6" x1="8.778" y1="-41.189" x2="15.783" y2="-41.189" gradientUnits="objectBoundingBox">
      <stop offset="0" stop-color="#eee"/>
      <stop offset="1" stop-color="#d6d7d8"/>
    </linearGradient>
    <linearGradient id="linear-gradient-7" x1="15.669" y1="-48.26" x2="15.761" y2="-52.583" xlink:href="#linear-gradient"/>
    <linearGradient id="linear-gradient-8" x1="-5.467" y1="2.392" x2="-5.109" y2="2.089" xlink:href="#linear-gradient-4"/>
    <linearGradient id="linear-gradient-9" x1="-9.586" y1="6.811" x2="-9.734" y2="6.999" gradientUnits="objectBoundingBox">
      <stop offset="0" stop-color="#ffbeb6"/>
      <stop offset="1" stop-color="#f8afa9"/>
    </linearGradient>
    <linearGradient id="linear-gradient-10" x1="-33.055" y1="22.528" x2="-33.525" y2="23.169" xlink:href="#linear-gradient-9"/>
    <linearGradient id="linear-gradient-11" x1="-8.832" y1="3.773" x2="-8.634" y2="3.952" xlink:href="#linear-gradient-9"/>
    <linearGradient id="linear-gradient-12" x1="-7.172" y1="2.241" x2="-6.542" y2="2.037" xlink:href="#linear-gradient-4"/>
    <clipPath id="clip-Web_1920_34">
      <rect width="1019" height="752"/>
    </clipPath>
  </defs>
  <g id="Web_1920_34" data-name="Web 1920 – 34" class="cls-1">
    <rect class="cls-29" width="1019" height="752"/>
    <g class="cls-42" transform="matrix(1, 0, 0, 1, 0, 0)">
      <g id="Rectangle_541-2" data-name="Rectangle 541" class="cls-2" transform="translate(-62 -5)">
        <rect class="cls-41" width="2047.8" height="785" rx="52"/>
        <rect class="cls-25" x="0.25" y="0.25" width="2047.3" height="784.5" rx="51.75"/>
      </g>
    </g>
    <g id="Group_880" data-name="Group 880" transform="translate(-45 -3030)">
      <path id="Path_2364" data-name="Path 2364" class="cls-3" d="M409.085,470.035c-13.361-16.7-26.723-31.733-33.4-51.776-15.031-41.753,6.68-86.848,21.711-126.931,15.031-41.754,21.711-95.2-13.361-123.591-28.393-23.382-78.5-20.042-93.529-55.115-5.01-13.361-3.341-26.723-5.01-40.084C277.143,14.083,201.987-12.64,146.871,5.732S51.672,74.208,16.6,120.972c-13.36,16.7-25.053,43.424-8.351,56.786s43.424-1.67,58.456,11.691c11.691,11.691,3.341,31.733-6.68,43.424-7.261,7.26,23.678,89.96,35.072,91.859,31.734,3.341,70.147,11.691,76.827,43.424-41.754,48.434-85.178,111.9-65.136,172.026,25.052,70.147,110.229,100.209,177.035,135.283C405.743,740.6,529.335,620.348,409.085,470.035Z" transform="matrix(0.259, -0.966, 0.966, 0.259, 165.532, 3537.06)"/>
      <path id="Path_2365" data-name="Path 2365" class="cls-4" d="M367.97,422.8c-12.019-15.023-24.037-28.544-30.046-46.572-13.521-37.557,6.009-78.119,19.529-114.174,13.521-37.557,19.529-85.631-12.018-111.17-25.54-21.032-70.608-18.028-84.129-49.576C256.8,89.284,258.3,77.266,256.8,65.248,249.289,12.668,181.686-11.37,132.11,5.156S46.479,66.75,14.931,108.814C2.913,123.837-7.6,147.874,7.419,159.893s39.06-1.5,52.581,10.516c10.516,10.516,3.005,28.544-6.009,39.06C47.46,216,75.29,290.387,85.538,292.095c28.545,3,63.1,10.516,69.105,39.06-37.557,43.567-76.617,100.654-58.59,154.737,22.535,63.1,99.151,90.138,159.242,121.686C364.965,666.167,476.135,558,367.97,422.8Z" transform="matrix(0.259, -0.966, 0.966, 0.259, 205.156, 3523.841)"/>
      <path id="Path_1332" data-name="Path 1332" class="cls-5" d="M518.046,205l-.946-.172a175.956,175.956,0,0,1,4.9-18.668c3.183-10.409,6.108-20.3,5.936-35.959h.946c.172,15.743-2.839,25.722-6.022,36.217A175.084,175.084,0,0,0,518.046,205Z" transform="translate(97.51 3137.211)"/>
      <rect id="Rectangle_64" data-name="Rectangle 64" class="cls-6" width="110.371" height="4.645" transform="translate(521.1 3448.021)"/>
      <path id="Path_2366" data-name="Path 2366" class="cls-5" d="M620.039,264.356v-5.764c.86-.172,1.635-.344,2.495-.6-.86-.086-1.635-.172-2.495-.258a24.183,24.183,0,0,0-.086-2.495,17.318,17.318,0,0,0,2.151-1.2,20.489,20.489,0,0,1-2.237.43,11.672,11.672,0,0,0-.516-2.495,6.9,6.9,0,0,0,1.635-1.118,19.57,19.57,0,0,1-2.237-.172,7.178,7.178,0,0,0-.688-1.032,2.487,2.487,0,0,0-1.548-.946,2.547,2.547,0,0,0-2.237,1.634c0-.086-.086-.086-.086-.172a4.772,4.772,0,0,0-1.979-1.462l1.548,2.839-.516,1.548c-.86.344-1.721.6-2.581,1.032a20.486,20.486,0,0,0,2.237.43,23.213,23.213,0,0,0-.516,3.527,22.541,22.541,0,0,1-2.409.086c.774.344,1.548.6,2.323.86a24.134,24.134,0,0,0,0,3.527,7.65,7.65,0,0,0-3.1-.344,13.9,13.9,0,0,0,3.183,1.634c.086,2.667.43,5.248.688,7.742,1.893-1.118,5.076.516,7.054-.344v-6.022a8.637,8.637,0,0,1,2.065.344A9.03,9.03,0,0,0,620.039,264.356Z" transform="translate(84.641 3123.448)"/>
      <path id="Path_2367" data-name="Path 2367" class="cls-7" d="M568.477,156.267a8.851,8.851,0,0,1-1.721-2.667c-.774-2.151.344-4.473,1.118-6.538.774-2.151,1.118-4.9-.688-6.366-1.462-1.2-4.043-1.032-4.817-2.839a8.484,8.484,0,0,1-.258-2.065c-.43-3.011-4.3-4.387-7.14-3.441s-4.9,3.527-6.71,5.936c-.688.86-1.29,2.237-.43,2.925s2.237-.086,3.011.6c.6.6.172,1.634-.344,2.237a4.581,4.581,0,0,0-1.462,1.979c-.258,1.548,1.721,2.495,3.269,2.753,1.635.172,3.613.6,3.957,2.237-2.151,2.495-4.387,5.764-3.355,8.861,1.29,3.613,5.678,5.162,9.119,6.968,6.28,3.355,8.775,10.323,10.151,17.291A27.9,27.9,0,0,0,568.477,156.267Z" transform="translate(93.275 3139.747)"/>
      <path id="Path_2368" data-name="Path 2368" class="cls-8" d="M573.086,86.4A13.323,13.323,0,0,0,573,88.293a16.087,16.087,0,0,0,32.174,0c0-.6-.086-1.2-.086-1.893Z" transform="translate(89.699 3117.127)"/>
      <path id="Path_1336" data-name="Path 1336" class="cls-5" d="M534.7,50.356l.086-7.656h-.172L531.6,49.668Z" transform="translate(95.484 3123.233)"/>
      <rect id="Rectangle_65" data-name="Rectangle 65" class="cls-5" width="47.228" height="3.097" transform="matrix(0.21, -0.978, 0.978, 0.21, 617.211, 3218.975)"/>
      <path id="Path_1337" data-name="Path 1337" class="cls-5" d="M533.5,45.969l1.548.344V42.7h-.172Z" transform="translate(95.219 3123.233)"/>
      <path id="Path_1338" data-name="Path 1338" class="cls-5" d="M523.595,60.136,521.874,54.2H521.7l-.6,6.194Z" transform="translate(96.951 3121.626)"/>
      <rect id="Rectangle_66" data-name="Rectangle 66" class="cls-5" width="2.581" height="38.368" transform="translate(617.998 3181.862) rotate(-5.058)"/>
      <path id="Path_1339" data-name="Path 1339" class="cls-5" d="M521.5,57.125l1.2-.172L521.93,54.2h-.172Z" transform="translate(96.895 3121.626)"/>
      <rect id="Rectangle_493" data-name="Rectangle 493" class="cls-5" width="10.409" height="50.669" transform="translate(597.922 3291.799)"/>
      <rect id="Rectangle_494" data-name="Rectangle 494" class="cls-5" width="6.108" height="29.593" transform="translate(617.535 3418.343)"/>
      <rect id="Rectangle_495" data-name="Rectangle 495" class="cls-5" width="6.108" height="29.593" transform="translate(609.535 3418.343)"/>
      <rect id="Rectangle_496" data-name="Rectangle 496" class="cls-5" width="6.108" height="29.593" transform="translate(601.448 3418.343)"/>
      <rect id="Rectangle_497" data-name="Rectangle 497" class="cls-5" width="6.108" height="29.593" transform="translate(593.448 3418.343)"/>
      <path id="Path_2369" data-name="Path 2369" class="cls-5" d="M481.464,332.123,475.7,330.23l9.377-28.13,5.85,1.979Z" transform="translate(103.296 3115.985)"/>
      <rect id="Rectangle_498" data-name="Rectangle 498" class="cls-9" width="42.755" height="5.936" transform="translate(581.571 3341.126) rotate(-76.014)"/>
      <path id="Path_2370" data-name="Path 2370" class="cls-5" d="M472.106,207.025l-5.506-1.979L480.966,164.7l5.592,1.979Z" transform="translate(104.567 3135.185)"/>
      <rect id="Rectangle_499" data-name="Rectangle 499" class="cls-5" width="10.409" height="50.669" transform="translate(637.321 3499.465)"/>
      <rect id="Rectangle_501" data-name="Rectangle 501" class="cls-5" width="5.936" height="42.755" transform="translate(648.015 3508.635) rotate(-13.986)"/>
      <path id="Path_2371" data-name="Path 2371" class="cls-5" d="M563.5,408.079l5.506-1.979,14.452,40.26-5.592,1.979Z" transform="translate(91.026 3101.452)"/>
      <path id="Path_2373" data-name="Path 2373" class="cls-5" d="M586.8,209.358H559.617L554.8,177.7h36.733Z" transform="translate(92.242 3133.368)"/>
      <path id="Path_2374" data-name="Path 2374" class="cls-5" d="M602.3,106.959H575.117L570.3,102.4h36.733Z" transform="translate(90.076 3114.891)"/>
      <rect id="Rectangle_503" data-name="Rectangle 503" class="cls-10" width="52.132" height="10.065" transform="translate(651.171 3476.582)"/>
      <rect id="Rectangle_504" data-name="Rectangle 504" class="cls-5" width="52.132" height="10.065" transform="translate(643.516 3466.518)"/>
      <rect id="Rectangle_505" data-name="Rectangle 505" class="cls-5" width="52.132" height="10.065" transform="translate(580.63 3397.009)"/>
      <rect id="Rectangle_507" data-name="Rectangle 507" class="cls-11" width="52.132" height="10.065" transform="translate(572.974 3386.943)"/>
      <rect id="Rectangle_509" data-name="Rectangle 509" class="cls-5" width="41.981" height="10.065" transform="translate(585.964 3376.706)"/>
      <path id="Path_1345" data-name="Path 1345" class="cls-5" d="M575.7,180.479A125.324,125.324,0,0,1,576.73,162.5" transform="translate(89.323 3135.493)"/>
      <path id="Path_1346" data-name="Path 1346" class="cls-5" d="M575.628,180.926a.406.406,0,0,1-.43-.43,127.243,127.243,0,0,1,1.032-18.065.475.475,0,0,1,.946.086,113.425,113.425,0,0,0-.946,17.893.738.738,0,0,1-.6.516Z" transform="translate(89.393 3135.563)"/>
      <ellipse id="Ellipse_1064" data-name="Ellipse 1064" class="cls-5" cx="1.118" cy="3.097" rx="1.118" ry="3.097" transform="translate(662.964 3298.143) rotate(-83.038)"/>
      <path id="Path_1347" data-name="Path 1347" class="cls-5" d="M577,160.065c.43-3.355,1.032-6.71,1.721-10.065" transform="translate(89.14 3137.24)"/>
      <path id="Path_1348" data-name="Path 1348" class="cls-5" d="M576.927,160.422h0a.4.4,0,0,1-.43-.516c.43-3.355,1.032-6.8,1.72-10.065.086-.258.258-.43.516-.344s.43.258.344.516c-.688,3.269-1.29,6.71-1.721,10.065A.394.394,0,0,1,576.927,160.422Z" transform="translate(89.213 3137.313)"/>
      <ellipse id="Ellipse_1065" data-name="Ellipse 1065" class="cls-5" cx="1.376" cy="3.699" rx="1.376" ry="3.699" transform="translate(664.309 3287.786) rotate(-88.617)"/>
      <path id="Path_1349" data-name="Path 1349" class="cls-5" d="M579.2,147.672c.6-2.753,1.29-5.506,2.151-8.172" transform="translate(88.832 3138.707)"/>
      <path id="Path_1350" data-name="Path 1350" class="cls-5" d="M579.127,148.033h-.086c-.258-.086-.43-.344-.344-.516.6-2.753,1.29-5.506,2.151-8.172a.49.49,0,0,1,.946.258c-.774,2.667-1.462,5.42-2.065,8.172A1.285,1.285,0,0,1,579.127,148.033Z" transform="translate(88.906 3138.776)"/>
      <ellipse id="Ellipse_1066" data-name="Ellipse 1066" class="cls-5" cx="1.376" cy="3.699" rx="1.376" ry="3.699" transform="translate(666.689 3277.439) rotate(-70.761)"/>
      <path id="Path_1351" data-name="Path 1351" class="cls-5" d="M582.1,137.208c.6-2.065,1.29-4.043,2.065-6.108" transform="translate(88.427 3139.88)"/>
      <path id="Path_1352" data-name="Path 1352" class="cls-5" d="M582.016,137.563h-.172a.576.576,0,0,1-.344-.6c.6-2.065,1.29-4.129,2.065-6.108a.463.463,0,0,1,.86.344c-.688,1.979-1.376,4.043-1.979,6.108A.473.473,0,0,1,582.016,137.563Z" transform="translate(88.511 3139.956)"/>
      <ellipse id="Ellipse_1067" data-name="Ellipse 1067" class="cls-5" cx="1.893" cy="4.99" rx="1.893" ry="4.99" transform="translate(667.611 3270.09) rotate(-70.761)"/>
      <path id="Path_1353" data-name="Path 1353" class="cls-5" d="M585,128.857c.516-1.376,1.032-2.667,1.548-3.957" transform="translate(88.021 3140.747)"/>
      <path id="Path_1354" data-name="Path 1354" class="cls-5" d="M584.925,129.212h-.172a.444.444,0,0,1-.258-.6c.516-1.376,1.032-2.667,1.548-3.957a.463.463,0,1,1,.86.344c-.516,1.29-1.032,2.667-1.548,3.957A.473.473,0,0,1,584.925,129.212Z" transform="translate(88.098 3140.822)"/>
      <path id="Path_1355" data-name="Path 1355" class="cls-6" d="M506.649,208.477H438V140h68.649Zm-64-4.559H502V144.645H442.645v59.272Z" transform="translate(108.563 3138.637)"/>
      <path id="Path_1356" data-name="Path 1356" class="cls-11" d="M616.9,103.332H556.6V43.2h60.3v60.132Zm-55.659-4.645h51.013V47.845H561.245V98.687Z" transform="translate(91.99 3152.163)"/>
      <path id="Path_1358" data-name="Path 1358" class="cls-11" d="M608.474,449.563H430.4V381H608.474Zm-173.342-4.645h168.7V385.645h-168.7Z" transform="translate(109.625 3104.959)"/>
      <rect id="Rectangle_80" data-name="Rectangle 80" class="cls-11" width="4.645" height="91.618" transform="translate(628.202 3254.119)"/>
      <rect id="Rectangle_81" data-name="Rectangle 81" class="cls-11" width="4.645" height="143.491" transform="translate(628.202 3408.708)"/>
      <rect id="Rectangle_82" data-name="Rectangle 82" class="cls-6" width="130.76" height="4.645" transform="translate(597.147 3250.851)"/>
      <rect id="Rectangle_511" data-name="Rectangle 511" class="cls-6" width="14.022" height="13.936" transform="translate(694.013 3392.449)"/>
      <path id="Path_2375" data-name="Path 2375" class="cls-5" d="M480.826,380.285H457.857L453.9,376.5h30.969Z" transform="translate(106.342 3105.588)"/>
      <path id="Path_2376" data-name="Path 2376" class="cls-5" d="M456.186,363a9.346,9.346,0,0,0-.086,1.548,13.592,13.592,0,0,0,27.184,0A9.353,9.353,0,0,0,483.2,363Z" transform="translate(106.034 3107.475)"/>
      <rect id="Rectangle_512" data-name="Rectangle 512" class="cls-5" width="38.712" height="31.658" transform="translate(565.317 3518.649)"/>
      <path id="Path_2377" data-name="Path 2377" class="cls-5" d="M471.929,420.245l-4.129-4.215,4.129-4.129,4.215,4.129Z" transform="translate(104.399 3100.642)"/>
      <path id="Path_2378" data-name="Path 2378" class="cls-5" d="M491.215,420.245,487,416.029l4.215-4.129,4.129,4.129Z" transform="translate(101.717 3100.642)"/>
      <path id="Path_1363" data-name="Path 1363" class="cls-5" d="M473.6,412.692h-3.7c0-4.3.086-8.689,1.548-11.614,1.548-3.1,5.678-6.452,9.635-6.28,4.817.172,8.517,4.645,9.291,7.742s.43,8.775.344,9.807l-3.7-.258a39.419,39.419,0,0,0-.258-8.689c-.43-1.634-2.839-4.817-5.85-4.9-2.065-.086-4.99,1.893-6.108,4.215C473.6,405.122,473.6,409.854,473.6,412.692Z" transform="translate(104.105 3103.032)"/>
      <rect id="Rectangle_513" data-name="Rectangle 513" class="cls-5" width="18.582" height="28.991" transform="translate(610.998 3193.376)"/>
      <path id="Path_1364" data-name="Path 1364" class="cls-5" d="M524.16,203.168l-.86-.258c6.71-24.775,8.861-45.078,6.968-65.724l.946-.086C533.021,157.832,530.87,178.22,524.16,203.168Z" transform="translate(96.645 3139.042)"/>
      <path id="Path_1365" data-name="Path 1365" class="cls-5" d="M520.846,203.713l-.946-.172c.86-4.473,1.807-8.861,2.753-13.076,3.441-15.829,6.71-30.711,6.538-49.465h.946c.258,18.84-3.1,33.808-6.538,49.723C522.739,194.852,521.793,199.24,520.846,203.713Z" transform="translate(97.119 3138.497)"/>
      <rect id="Rectangle_514" data-name="Rectangle 514" class="cls-12" width="86.628" height="20.646" transform="translate(750.016 3560.114)"/>
      <rect id="Rectangle_515" data-name="Rectangle 515" class="cls-13" width="86.628" height="14.194" transform="translate(755.349 3546.177)"/>
      <rect id="Rectangle_516" data-name="Rectangle 516" class="cls-11" width="81.295" height="12.044" transform="translate(749.413 3564.501)"/>
      <rect id="Rectangle_517" data-name="Rectangle 517" class="cls-6" width="81.295" height="1.548" transform="translate(749.413 3573.534)"/>
      <rect id="Rectangle_518" data-name="Rectangle 518" class="cls-6" width="81.295" height="1.548" transform="translate(749.413 3570.523)"/>
      <rect id="Rectangle_519" data-name="Rectangle 519" class="cls-6" width="81.295" height="1.548" transform="translate(749.413 3567.512)"/>
      <rect id="Rectangle_520" data-name="Rectangle 520" class="cls-6" width="81.295" height="1.548" transform="translate(749.413 3564.501)"/>
      <rect id="Rectangle_521" data-name="Rectangle 521" class="cls-12" width="102.199" height="20.646" transform="translate(739.262 3525.187)"/>
      <rect id="Rectangle_522" data-name="Rectangle 522" class="cls-11" width="95.919" height="12.044" transform="translate(738.487 3529.488)"/>
      <rect id="Rectangle_523" data-name="Rectangle 523" class="cls-6" width="95.919" height="1.548" transform="translate(738.487 3538.607)"/>
      <rect id="Rectangle_524" data-name="Rectangle 524" class="cls-6" width="95.919" height="1.548" transform="translate(738.487 3535.51)"/>
      <rect id="Rectangle_525" data-name="Rectangle 525" class="cls-6" width="95.919" height="1.548" transform="translate(738.487 3532.499)"/>
      <rect id="Rectangle_526" data-name="Rectangle 526" class="cls-6" width="95.919" height="1.548" transform="translate(738.487 3529.488)"/>
      <path id="Path_2379" data-name="Path 2379" class="cls-14" d="M309.7,388.213c-37.335,20.474-67.272,54.971-108.049,67.358-30.625,9.291-65.036,4.473-92.22-12.388-14.022-8.689-26.668-21.334-30.2-37.421a8.351,8.351,0,0,1,0-4.817c.688-1.893,2.495-3.1,4.215-4.129A340.046,340.046,0,0,1,126.3,374.1c7.4,2.495,9.291,13.506,16.861,15.571,4.387,1.2,8.861-1.118,12.9-3.269,25.894-13.42,128.953-105.382,156.825-85.08,71.832,52.3,110.371,108.565,167.063,191.924-22.625,1.29-76.649.43-76.649.43A261.482,261.482,0,0,1,376.719,467.1c-12.388-14.194-9.893-31.227-19.528-35.443-9.549-4.215-26.324-19.872-29.249-29.937-1.807-6.108-2.495-14.194-8.6-15.829C316.071,384.944,312.716,386.578,309.7,388.213Z" transform="translate(158.747 3116.5)"/>
      <path id="Path_2380" data-name="Path 2380" class="cls-15" d="M218.767,189.082c1.2-.688,1.462,2.065,1.634,3.269,1.376,8.345,2.581,16.947,6.022,24.689.688,1.548,1.462,3.355.688,4.817a4.985,4.985,0,0,1-1.2,1.462c-4.387,4.559-9.2,7.828-11.527,13.678-1.893-5.85-3.527-10.5-4.473-16.6-1.118-7.226-1.548-9.291-1.807-16.6a43.292,43.292,0,0,1,1.548-8.086C210.337,194.5,216.531,190.631,218.767,189.082Z" transform="translate(140.69 3131.793)"/>
      <path id="Path_2381" data-name="Path 2381" class="cls-16" d="M218.071,209.589c-5.85-2.495-10.925-8.345-9.893-14.624a4.7,4.7,0,0,1,1.032-2.409,5.136,5.136,0,0,1,2.753-1.29A74.114,74.114,0,0,0,252.4,161.5a173.211,173.211,0,0,1,6.366,30.367c-2.323,2.925-6.366,3.527-9.979,4.473-9.721,2.495-18.065,8.6-27.012,13.162a4.978,4.978,0,0,1-1.807.6A6.834,6.834,0,0,1,218.071,209.589Z" transform="translate(140.698 3135.632)"/>
      <path id="Path_2382" data-name="Path 2382" class="cls-17" d="M237.49,177.334c.344-9.2,2.753-19.27,10.237-24.689,4.731-3.441,10.925-4.473,16.689-3.871,5.85.516,11.441,2.581,16.861,4.645,7.226,2.839,15.141,6.624,17.893,13.936,1.893,4.9.946,10.409-.688,15.4a48.708,48.708,0,0,1-16.259,23.4,38.165,38.165,0,0,1-6.452,3.957c-2.495,2.753-3.527,3.527-6.108,6.452-2.409,2.667-3.1-.86-4.043-3.011a32.587,32.587,0,0,1-10.409.43,18.8,18.8,0,0,1-9.721-3.527c-3.871-3.1-5.42-8.258-6.452-13.076A87.181,87.181,0,0,1,237.49,177.334Z" transform="translate(136.592 3137.434)"/>
      <path id="Path_2383" data-name="Path 2383" class="cls-18" d="M204.232,275.8c1.721-10.839,4.99-31.227,3.785-42.153s-4.99-12.818-13.592-19.614c-4.817-3.871-12.388-6.022-16.947-1.893-3.183,2.925-6.968,9.893-7.14,14.194-2.409,43.271-10.581,81.036,6.452,127.577a28.649,28.649,0,0,0,15.485-3.441,7.915,7.915,0,0,0,2.151-1.634,7.4,7.4,0,0,0,1.118-3.355c2.495-15.657,3.355-27.27,5.764-42.841C202.425,294.894,203.027,283.452,204.232,275.8Z" transform="translate(146.537 3128.869)"/>
      <path id="Path_2384" data-name="Path 2384" class="cls-19" d="M314.193,294.22c-3.7-3.871-29.507-5.678-42.755-4.387-5.764.6-11.7-.516-17.463.6s-10.925,4.473-15.829,7.656c-9.635,6.366-14.8,19.786-24.431,26.152-3.613,2.323-11.786,15.055-15.915,15.915,2.237,6.71,22.539-3.785,24.862,2.925,11.011-14.108,14.452-16.259,26.238-29.679,3.7-4.215,6.452-9.635,11.355-12.3,3.355-1.807,7.226-2.151,11.011-2.753C285.46,296.113,320.3,300.586,314.193,294.22Z" transform="translate(142.129 3117.757)"/>
      <path id="Path_2385" data-name="Path 2385" class="cls-18" d="M205.367,357.745c-3.871,4.3-7.828,8.689-12.646,11.958-4.817,3.183-9.721.688-14.538-3.269-3.613-13.506,6.968-22.883,18.582-33.55,11.7-10.667,27.1-22.367,35.873-30.883.86,5.936,6.71,12.56,12.3,14.71C231.605,333.486,218.013,343.551,205.367,357.745Z" transform="translate(144.972 3115.999)"/>
      <path id="Path_2386" data-name="Path 2386" class="cls-20" d="M512.508,524.226c-12.474-2.409-56.691,0-56.691,0S450.827,548.485,451,564.4c18.668,0,37.335.086,56,.086,31.4,0,38.8.344,71.918-.344.688-7.484-14.108-21.076-41.206-27.528C531.692,535.237,518.616,525.344,512.508,524.226Z" transform="translate(106.748 3085.095)"/>
      <path id="Path_2387" data-name="Path 2387" class="cls-21" d="M549.608,524.226c-12.474-2.409-56.691,0-56.691,0s-4.99,24.259-4.817,40.174c18.668,0,37.335.086,56,.086,31.4,0,38.8.344,71.918-.344.688-7.484-14.108-21.076-41.206-27.528C568.792,535.237,555.716,525.344,549.608,524.226Z" transform="translate(101.563 3085.095)"/>
      <path id="Path_2388" data-name="Path 2388" class="cls-22" d="M109.378,275.094c-3.527-.172-7.226.172-10.065,2.151-2.409,1.634-3.957,4.215-5.334,6.71A170.123,170.123,0,0,0,75.4,399.229c.6,3.011,1.29,6.194,3.269,8.517,2.151,2.581,5.42,3.785,8.6,4.817a80.663,80.663,0,0,0,30.023,3.183c6.022-.516,12.646-2.151,15.829-7.312,3.183-5.248,1.462-11.958-.344-17.893-4.99-16-10.151-32.346-9.549-49.121.688-16.775,8.431-34.324,23.485-41.809A44.769,44.769,0,0,0,109.378,275.094Z" transform="translate(159.666 3120.764)"/>
      <path id="Path_2389" data-name="Path 2389" class="cls-23" d="M119.935,472.814c8.086,3.269,17.033,3.871,25.722,3.613A130.969,130.969,0,0,0,227.037,444c28.217-24.948,53.336-63.4,88.865-75.7,24-7.312,15.829,23.915,40.6,49.981,9.807,10.323,24.173,11.269,32.346,21.076,9.291,11.269,3.011,6.022,10.753,24.948,2.237,5.506,31.227,29.249,34.841,29.335,25.12.6,32,.946,58.928.344-25.722-60.562-84.994-121.3-129.211-184.956a19.078,19.078,0,0,0-10.409-7.312,24.547,24.547,0,0,0-8.689-.344,347.709,347.709,0,0,0-190.72,76.821c-4.559,3.7-9.033,5.506-12.3,11.355-2.409,4.3-.516,12.56.6,19.786s1.979,11.183-4.99,13.334c2.753-12.818,1.462-33.98,1.462-33.98s-8.947-10.323-13.334-16.861A63.057,63.057,0,0,1,70.9,374.229c0,28.044,6.624,42.669,15.915,62.2C94.213,451.48,104.364,466.535,119.935,472.814Z" transform="translate(159.862 3116.118)"/>
      <path id="Path_2390" data-name="Path 2390" class="cls-24" d="M198.231,199.275c-3.871-5.162-22.539-1.807-30.2,2.495-28.3,16-49.035,33.722-67.358,60.562-6.194,9.033-10.667,16.775-17.377,33.206,14.969.946,19.27,21.162,60.046,31.227,7.656-25.98,15.055-40.432,32.518-55.573,13.076-11.355,14.538-13.936,20.13-34.841C199.521,223.018,203.65,213.641,198.231,199.275Z" transform="translate(158.13 3131.719)"/>
      <path id="Path_2391" data-name="Path 2391" class="cls-25" d="M191,270.6a444.462,444.462,0,0,1,8.861,94.284,37.428,37.428,0,0,0,21.162-9.377c.86,1.807,1.807,3.527,2.667,5.334" transform="translate(143.08 3120.387)"/>
      <path id="Path_2392" data-name="Path 2392" class="cls-13" d="M242.853,180.413c-6.108-2.151-12.474-6.28-13.162-12.732-.6-5.678,3.613-10.581,7.484-14.8,4.129-4.473,8.258-8.861,12.388-13.334a9.1,9.1,0,0,1,3.011-2.409c1.721-.688,3.613-.258,5.42.258,8.861,2.495,17.119,6.8,25.292,11.1a43.06,43.06,0,0,1,8.517,5.334c7.14,6.194,10.065,17.635,6.022,26.152-7.484-2.839-16.431.258-24.259,2.065A54.9,54.9,0,0,1,242.853,180.413Z" transform="translate(137.681 3139.086)"/>
      <path id="Path_2393" data-name="Path 2393" class="cls-26" d="M256.412,177.707a117.715,117.715,0,0,0,42.669-7.742,1.062,1.062,0,1,0-.774-1.979c-20.818,8-44.992,9.721-68.219,4.817a1.1,1.1,0,0,0-.43,2.151A133.86,133.86,0,0,0,256.412,177.707Z" transform="translate(137.8 3134.738)"/>
      <path id="Path_2394" data-name="Path 2394" class="cls-26" d="M277.819,177.918a69.078,69.078,0,0,0,22.711-3.613,1.128,1.128,0,0,0,.688-1.376,1.058,1.058,0,0,0-1.376-.688c-18.84,6.452-42.325,3.957-69.681-7.656a1.062,1.062,0,0,0-.774,1.979C247.193,174.219,263.366,177.918,277.819,177.918Z" transform="translate(137.813 3135.215)"/>
      <path id="Path_2395" data-name="Path 2395" class="cls-13" d="M249.009,127.224c4.473-10.925-.172-26.754-8.345-35.185-8.172-8.517-20.13-12.646-31.916-13.248-3.7-.172-7.57,0-10.839,1.634-3.269,1.721-5.936,5.248-5.42,8.947,4.473-2.323,10.151-.946,14.108,2.237,3.871,3.183,6.28,7.828,8.086,12.56,1.462,3.785,2.581,7.742,5.162,10.839,2.839,3.527,7.054,5.506,11.183,7.4,5.334,2.323,11.011,7.4,16.173,4.731C247.546,136,248.406,128.945,249.009,127.224Z" transform="translate(142.881 3147.197)"/>
      <path id="Path_2396" data-name="Path 2396" class="cls-13" d="M254.064,124.724a.482.482,0,0,0,.516-.43,87.983,87.983,0,0,0,.344-27.7c-1.29-8.775-3.7-14.969-7.742-19.614-5.162-5.936-13.162-8.431-19.442-5.936a.544.544,0,0,0,.344,1.032c5.85-2.323,13.42,0,18.238,5.678,3.871,4.473,6.194,10.5,7.484,19.012a88.391,88.391,0,0,1-.344,27.356.505.505,0,0,0,.43.6Z" transform="translate(137.997 3148.407)"/>
      <path id="Path_2397" data-name="Path 2397" class="cls-27" d="M282.683,221.891a14.891,14.891,0,0,0,7.312-2.151c5.334-3.183,7.828-8.6,5.678-12.216-1.118-1.893-3.355-2.925-6.108-2.925a14.892,14.892,0,0,0-7.312,2.151c-5.334,3.183-7.828,8.6-5.678,12.216C277.693,220.859,279.93,221.891,282.683,221.891Zm6.8-15.227a4.9,4.9,0,0,1,4.3,1.893c1.548,2.495-.774,6.8-4.9,9.291a12.336,12.336,0,0,1-6.194,1.893,4.9,4.9,0,0,1-4.3-1.893c-1.548-2.495.774-6.8,4.9-9.291A12.591,12.591,0,0,1,289.479,206.665Z" transform="translate(131.229 3129.609)"/>
      <rect id="Rectangle_527" data-name="Rectangle 527" class="cls-26" width="12.388" height="12.388" transform="translate(385.438 3269.518)"/>
      <rect id="Rectangle_528" data-name="Rectangle 528" class="cls-12" width="116.135" height="27.442" transform="translate(227.063 3589.62)"/>
      <rect id="Rectangle_529" data-name="Rectangle 529" class="cls-13" width="116.135" height="27.442" transform="translate(250.118 3617.063)"/>
      <rect id="Rectangle_530" data-name="Rectangle 530" class="cls-11" width="108.995" height="15.915" transform="translate(226.203 3595.384)"/>
      <rect id="Rectangle_531" data-name="Rectangle 531" class="cls-6" width="40.776" height="13.334" transform="translate(291.755 3623.687)"/>
      <path id="Path_2398" data-name="Path 2398" class="cls-28" d="M364.308,301.472,318.37,281.6S215.311,316.613,216,319.021s27.184,27.872,29.937,29.421C248.689,350.077,364.308,301.472,364.308,301.472Z" transform="translate(139.587 3118.85)"/>
      <path id="Path_2399" data-name="Path 2399" class="cls-27" d="M353.545,307.5a.744.744,0,0,0,.516-.258.476.476,0,0,0-.258-.688l-26.926-13.764a.52.52,0,0,0-.43.946L353.373,307.5C353.373,307.413,353.459,307.5,353.545,307.5Z" transform="translate(124.198 3117.296)"/>
      <path id="Path_2400" data-name="Path 2400" class="cls-27" d="M340.184,314.6a.473.473,0,0,0,.43-.258.451.451,0,0,0-.172-.688l-26.668-14.969a.5.5,0,0,0-.516.86l26.668,14.969C340.012,314.514,340.1,314.6,340.184,314.6Z" transform="translate(126.032 3116.475)"/>
      <path id="Path_2401" data-name="Path 2401" class="cls-27" d="M316.225,325.716a.473.473,0,0,0,.43-.258.56.56,0,0,0-.172-.774l-30.023-19.1a.561.561,0,0,0-.6.946l30.023,19.1C316.053,325.63,316.139,325.716,316.225,325.716Z" transform="translate(129.86 3115.51)"/>
      <path id="Path_2402" data-name="Path 2402" class="cls-27" d="M259.516,340.866a.473.473,0,0,0,.43-.258.64.64,0,0,0-.086-.774l-24-17.549a.551.551,0,0,0-.688.86l24,17.635C259.344,340.78,259.43,340.866,259.516,340.866Z" transform="translate(136.933 3113.177)"/>
      <path id="texture-2_1_aSsx__ym2L2U0k9Vf-Lhm" class="cls-29" d="M231.912,264.788c-.319-.319-.319-.478,0-.8s.478-.319.8,0,.319.478,0,.8h0c-.319.159-.478,0-.8,0ZM215.174,212.98a.423.423,0,0,1-.478-.478h0a.423.423,0,0,1,.478-.478h0a.423.423,0,0,1,.478.478c.319.478-.319.8-.478.478Zm10.2,25.665a.575.575,0,1,1,.159-.8C225.855,238.326,225.536,238.645,225.376,238.645Zm-55.953,43.041c-.478.319-.957,0-1.275-.478s0-.956.478-1.275h0c.478-.319.956,0,1.275.478a.78.78,0,0,1-.478,1.275Zm22.8-9.086c-.478.319-.956,0-1.275-.478s0-.956.478-1.275.956,0,1.275.478h0A1,1,0,0,1,192.219,272.6Zm22.8-9.246c-.478.319-.956,0-1.275-.478h0c-.319-.478,0-.957.478-1.275h0c.478-.319.957,0,1.275.478A1.068,1.068,0,0,1,215.015,263.354Zm-8.289,55.156a1.127,1.127,0,1,1,1.594-1.594.964.964,0,0,1,0,1.275c-.478.8-1.116.8-1.594.319Zm17.535-17.057a1.127,1.127,0,1,1,1.594-1.594.964.964,0,0,1,0,1.275,1.125,1.125,0,0,1-1.594.319ZM171.5,232.428c-.478,0-1.116-.478-1.116-.956s.478-1.116.956-1.116h0c.478,0,1.116.478,1.116.956h0A1.368,1.368,0,0,1,171.5,232.428Zm24.549,0c-.478,0-1.116-.478-1.116-.956s.478-1.116.956-1.116,1.116.478,1.116.956h0a.969.969,0,0,1-.956,1.116Zm24.39.159c-.478,0-1.116-.478-1.116-.956h0c0-.478.478-1.116.956-1.116h0c.478,0,1.116.478,1.116.956a.9.9,0,0,1-.956,1.116Zm3.507,102.5a.9.9,0,1,1,1.275,0h0C225.058,335.567,224.579,335.567,223.942,335.089Zm-41.766-81.3a1.02,1.02,0,0,1-1.116-.8c0-.478.159-.8.8-1.116h0a1.02,1.02,0,0,1,1.116.8h0c0,.638-.159,1.116-.8,1.116Zm21.839-1.913a1.02,1.02,0,0,1-1.116-.8c0-.478.159-.8.8-1.116h0a1.02,1.02,0,0,1,1.116.8h0c0,.638-.319,1.116-.8,1.116ZM225.7,249.8a1.02,1.02,0,0,1-1.116-.8h0c0-.478.159-.8.8-1.116h0a1.02,1.02,0,0,1,1.116.8h0c0,.956-.319,1.116-.8,1.116Zm-19.608,45.432c-.478.319-.956,0-1.275-.478s0-.956.478-1.275.956,0,1.275.478,0,1.275-.478,1.275Zm19.448-9.883c-.478.319-.957,0-1.275-.159h0c-.319-.478,0-.957.478-1.275s.956,0,1.275.478c.159.159,0,.638-.478.957Zm-28.216-73.17c-.478-.159-.8-.478-.478-.956h0c.159-.478.8-.8.956-.478h0a1.084,1.084,0,0,1,.638,1.275c0-.159-.478.159-1.116.159Zm20.883,6.376a1.008,1.008,0,0,1,.638-1.913c.478.159.8.8.478.957-.159.956-.638,1.275-1.116.956ZM202.262,342.9c-.478.319-.957,0-1.275-.478s0-.956.478-1.275.956,0,1.275.478a1.068,1.068,0,0,1-.478,1.275Zm22.318-11.318c-.478.319-.956,0-1.275-.478s0-.956.478-1.275.957,0,1.275.478c.319.159.159.956-.478,1.275Zm-31.723-94.69a1.008,1.008,0,1,1,1.275-.638c0,.638-.638.956-1.275.638Zm24.23,7.971a1.008,1.008,0,1,1,1.275-.638c-.319.319-.8.8-1.275.638Zm-18.013,46.867c-.478,0-1.116-.478-1.116-.956s.478-1.116.956-1.116,1.116.478,1.116.956h0a1.368,1.368,0,0,1-.956,1.116Zm25.028-2.072c-.478,0-1.116-.478-1.116-.956h0c0-.478.478-1.116.957-1.116h0c.478,0,1.116.478,1.116.956,0,.638-.159,1.116-.956,1.116Zm-28.056,18.97c-.478,0-1.116-.478-1.116-.956s.478-1.116.956-1.116a1.026,1.026,0,0,1,1.116.957.969.969,0,0,1-.956,1.116Zm25.028-2.869c-.478,0-1.116-.478-1.116-.957a1.026,1.026,0,0,1,.956-1.116,1.583,1.583,0,0,1,1.275.956,1.2,1.2,0,0,1-1.116,1.116Zm-8.608-46.867a1.063,1.063,0,1,1,1.275-.8h0c0,.478-.8.638-1.275.8Z" transform="matrix(0.731, 0.682, -0.682, 0.731, 932.998, 3164.929)"/>
      <path id="Path_2403" data-name="Path 2403" class="cls-27" d="M280.977,331.047a.473.473,0,0,0,.43-.258.56.56,0,0,0-.172-.774L256.46,314.185a.561.561,0,0,0-.6.946l24.775,15.829A.651.651,0,0,0,280.977,331.047Z" transform="translate(134.053 3114.309)"/>
      <path id="Path_2404" data-name="Path 2404" class="cls-30" d="M268.409,297.168c3.1.688,11.269,3.1,14.538,4.817,2.925,1.548,7.226,4.3,7.4,7.656.258,4.387-7.14.258-11.183-1.29-7.742-2.925-16.775-3.957-28.9-1.979-2.753.43-6.366-1.2-4.817-2.237,1.634-.946,2.753-2.323,5.85-3.871C254.988,298.459,264.279,296.308,268.409,297.168Z" transform="translate(135.524 3116.701)"/>
      <path id="Path_2405" data-name="Path 2405" class="cls-31" d="M228.9,351.919c9.721,0,42.239-6.624,59.616-14.538,4.731-2.151,16-15.743,18.41-17.033,7.656-4.129,21.679-9.291,22.195-8.172,5.334,8.861-9.463,6.28-15.915,14.538,11.872-4.215,21.248-8.431,33.12-12.646-1.376,11.355-9.635,8.172-13.678,14.022-.774,1.118-6.8,20.13-8.086,20.818-1.548.86-3.355.6-5.076.43a135.328,135.328,0,0,0-28.3.172c-6.022.688-43.1,20.388-49.035,21.851C241.89,367.576,230.19,355.36,228.9,351.919Z" transform="translate(137.783 3114.599)"/>
      <path id="Path_2406" data-name="Path 2406" class="cls-5" d="M178.648,225.882c3.011-7.484,13.592-14.624,21.507-12.732,8.6,2.065,9.463,12.732,9.377,21.507-.172,15.055-1.376,34.755-2.151,45.68-1.118,16.173,2.237,32.174,5.334,48.089a19.484,19.484,0,0,0,2.925,7.484,129.538,129.538,0,0,0,64.433-13.248,51.064,51.064,0,0,1,7.484,23.657c.086,1.721.086,3.527-.946,4.9-1.118,1.548-3.1,2.151-4.9,2.667-28.9,7.828-54.11,13.506-83.875,15.829a2.778,2.778,0,0,1-2.409-1.2,3.1,3.1,0,0,1-1.29-1.29c-6.624-12.646-10.925-30.711-13.85-46.54-3.183-17.291-4.559-33.12-6.71-50.583C171.68,255.819,173.142,239.474,178.648,225.882Z" transform="translate(113.625 3151.458)"/>
      <rect id="Rectangle_532" data-name="Rectangle 532" class="cls-6" width="108.995" height="1.979" transform="translate(226.203 3607.428)"/>
      <rect id="Rectangle_533" data-name="Rectangle 533" class="cls-6" width="108.995" height="1.979" transform="translate(226.203 3603.385)"/>
      <rect id="Rectangle_534" data-name="Rectangle 534" class="cls-6" width="108.995" height="1.979" transform="translate(226.203 3599.342)"/>
      <rect id="Rectangle_535" data-name="Rectangle 535" class="cls-6" width="108.995" height="1.979" transform="translate(226.203 3595.384)"/>
      <path id="texture-2_1_aSsx__ym2L2U0k9Vf-Lhm-2" data-name="texture-2_1_aSsx__ym2L2U0k9Vf-Lhm" class="cls-29" d="M202.5,239.852c-.172-.172-.172-.258,0-.43s.258-.172.43,0,.172.258,0,.43h0c-.172.086-.258,0-.43,0Zm-9.033-27.958a.228.228,0,0,1-.258-.258h0a.228.228,0,0,1,.258-.258h0a.228.228,0,0,1,.258.258c.172.258-.172.43-.258.258Zm5.506,13.85a.31.31,0,1,1,.086-.43C199.23,225.571,199.058,225.743,198.972,225.743Zm-30.2,23.227c-.258.172-.516,0-.688-.258s0-.516.258-.688h0c.258-.172.516,0,.688.258a.421.421,0,0,1-.258.688Zm12.3-4.9c-.258.172-.516,0-.688-.258s0-.516.258-.688.516,0,.688.258h0A.542.542,0,0,1,181.079,244.067Zm12.3-4.99c-.258.172-.516,0-.688-.258h0c-.172-.258,0-.516.258-.688h0c.258-.172.516,0,.688.258A.576.576,0,0,1,193.38,239.077Zm-4.473,29.765a.608.608,0,0,1,.86-.86.52.52,0,0,1,0,.688c-.258.43-.6.43-.86.172Zm9.463-9.2a.608.608,0,1,1,.86-.86.52.52,0,0,1,0,.688.607.607,0,0,1-.86.172ZM169.9,222.388c-.258,0-.6-.258-.6-.516s.258-.6.516-.6h0c.258,0,.6.258.6.516h0A.738.738,0,0,1,169.9,222.388Zm13.248,0c-.258,0-.6-.258-.6-.516s.258-.6.516-.6.6.258.6.516h0a.523.523,0,0,1-.516.6Zm13.162.086c-.258,0-.6-.258-.6-.516h0c0-.258.258-.6.516-.6h0c.258,0,.6.258.6.516a.487.487,0,0,1-.516.6Zm1.893,55.315a.487.487,0,1,1,.688,0h0C198.8,278.047,198.542,278.047,198.2,277.789Zm-22.539-43.873a.55.55,0,0,1-.6-.43c0-.258.086-.43.43-.6h0a.55.55,0,0,1,.6.43h0c0,.344-.086.6-.43.6Zm11.786-1.032a.55.55,0,0,1-.6-.43c0-.258.086-.43.43-.6h0a.55.55,0,0,1,.6.43h0c0,.344-.172.6-.43.6Zm11.7-1.118a.55.55,0,0,1-.6-.43h0c0-.258.086-.43.43-.6h0a.55.55,0,0,1,.6.43h0c0,.516-.172.6-.43.6Zm-10.581,24.517c-.258.172-.516,0-.688-.258s0-.516.258-.688.516,0,.688.258,0,.688-.258.688Zm10.5-5.334c-.258.172-.516,0-.688-.086h0c-.172-.258,0-.516.258-.688s.516,0,.688.258c.086.086,0,.344-.258.516Zm-15.227-39.486c-.258-.086-.43-.258-.258-.516h0c.086-.258.43-.43.516-.258h0a.585.585,0,0,1,.344.688c0-.086-.258.086-.6.086ZM195.1,214.9a.544.544,0,0,1,.344-1.032c.258.086.43.43.258.516-.086.516-.344.688-.6.516ZM186.5,282c-.258.172-.516,0-.688-.258s0-.516.258-.688.516,0,.688.258a.576.576,0,0,1-.258.688Zm12.044-6.108c-.258.172-.516,0-.688-.258s0-.516.258-.688.516,0,.688.258c.172.086.086.516-.258.688Zm-17.119-51.1a.544.544,0,1,1,.688-.344c0,.344-.344.516-.688.344Zm13.076,4.3a.544.544,0,1,1,.688-.344c-.172.172-.43.43-.688.344Zm-9.721,25.292c-.258,0-.6-.258-.6-.516s.258-.6.516-.6.6.258.6.516h0a.738.738,0,0,1-.516.6Zm13.506-1.118c-.258,0-.6-.258-.6-.516h0c0-.258.258-.6.516-.6h0c.258,0,.6.258.6.516,0,.344-.086.6-.516.6Zm-15.141,10.237c-.258,0-.6-.258-.6-.516s.258-.6.516-.6a.554.554,0,0,1,.6.516.523.523,0,0,1-.516.6Zm13.506-1.548c-.258,0-.6-.258-.6-.516a.554.554,0,0,1,.516-.6.854.854,0,0,1,.688.516.646.646,0,0,1-.6.6ZM192,236.669a.574.574,0,1,1,.688-.43h0c0,.258-.43.344-.688.43Z" transform="translate(146.291 3128.769)"/>
      <path id="Path_2407" data-name="Path 2407" class="cls-13" d="M218.483,189.1c-2.065,6.452,4.99,27.012,5.162,27.786.172.688-9.807,23.141-9.807,23.141s-4.043-12.9-5.248-19.442c-1.548-7.914-4.215-17.119-1.032-24.517C207.558,195.638,217.279,190.046,218.483,189.1Z" transform="translate(140.975 3131.775)"/>
      <path id="Path_2408" data-name="Path 2408" class="cls-32" d="M673.577,313.94c-.172,1.979.946,5.678,1.2,8.086.086,1.118-.086,3.527.516,4.473.86,1.548,5.85,1.032,7.656,1.032a23.278,23.278,0,0,0,8.689-1.979c4.559-1.807.946-3.1-1.807-3.7,1.29-.6,5.764-1.29,5.678-3.441-.086-2.667-4.9-1.548-6.022-1.893,1.807-1.721,4.387-3.1,4.473-6.022.172-3.1-3.7-3.7-6.108-3.7a20.8,20.8,0,0,0-9.033,2.409c-2.323,1.118-3.355,3.183-5.334,4.473C673.491,313.94,673.319,314.026,673.577,313.94Z" transform="translate(75.664 3115.328)"/>
      <path id="Path_2409" data-name="Path 2409" class="cls-30" d="M677.524,315.034c-2.753,6.194-4.99,32.26-14.624,29.249,1.721-6.366,4.215-12.99,5.764-19.27,1.979-7.914,1.376-13.248,7.14-18.41,12.3-10.925,27.1-1.721,42.153-4.731-.086,4.387,1.635,8.345.774,12.56-6.022.344-16.173-4.387-20.56-.516-8.6,7.57-5.85,4.129-11.614,9.893-4.645,4.645-10.581,12.56-9.721,2.839.516-5.334,6.538-10.237,8.431-15.055C681.224,311.163,677.61,315.894,677.524,315.034Z" transform="translate(77.137 3116.126)"/>
      <path id="Path_2410" data-name="Path 2410" class="cls-20" d="M693.913,419.918c5.764,3.613,12.56,5.334,18.5,8.947,4.387,2.667,8.517,5.506,13.076,7.914,5.85,3.011,13.506,7.14,20.13,7.914,21.076,2.323-1.635-23.485-6.366-29.593q-4-5.161-8-10.065a24.51,24.51,0,0,0-3.785-4.129c-.946-.774-3.613-4.043-4.473-4.215-2.065-.516-6.022,2.753-7.914,3.785-4.129,2.151-8.258,4.043-12.388,6.28s-8.6,3.871-12.388,6.452C692.881,417.337,689.784,417.337,693.913,419.918Z" transform="translate(73.308 3102.774)"/>
      <path id="Path_2411" data-name="Path 2411" class="cls-23" d="M685.827,357.6c-25.636,1.032-44.734-.43-62.111,2.151-18.066,2.667-52.132,4.817-47.486,33.034,6.108,37.335,82.069,21.851,106.93,21.851,9.119,0,26.84,1.032,40.26,1.118,4.3-16.345,2.839-40.174,0-56.777C710.086,358.374,683.762,358.288,685.827,357.6Z" transform="translate(89.308 3108.229)"/>
      <path id="Path_2412" data-name="Path 2412" class="cls-23" d="M797.338,343.179c0,20.732,3.269,49.551-12.216,65.552-15.571,16.173-39.572,7.226-59.616,7.312-19.958,0-41.465,1.807-60.906-.946-22.367-3.183-32.948-34.841-9.721-47.658,9.807-5.42,29.163-6.71,40.346-7.828,13.334-1.29,28.3-.344,41.206-3.785.516-5.936,0-9.119-1.032-14.624C750.97,346.964,786.757,342.49,797.338,343.179Z" transform="translate(80.082 3110.521)"/>
      <path id="Path_2413" data-name="Path 2413" class="cls-33" d="M726.975,214.4c19.1-.516,30.281,6.108,38.2,12.044,11.441,8.6,22.711,17.549,30.023,29.679,16.087,26.668,15.743,56,12.9,84.65-16.431,1.118-105.554-1.032-105.554-1.032L702.2,233.149s4.3-11.011,8.689-14.538C714.674,215.686,719.233,214.653,726.975,214.4Z" transform="translate(71.645 3128.245)"/>
      <path id="Path_2414" data-name="Path 2414" class="cls-32" d="M684.192,224.586c8.775,3.441,12.3,6.624,22.109,12.646,5.248,3.183,10.323,2.151,13.936-3.527,2.237-3.441,6.194-9.807,5.248-14.194-1.118-5.334-6.022-6.882-10.581-9.463-3.355-1.893-10.667-9.2-14.022-9.549C695.461,199.982,683.245,218.65,684.192,224.586Z" transform="translate(74.168 3130.184)"/>
      <path id="Path_2415" data-name="Path 2415" class="cls-34" d="M645.427,190.254c-5.936,19.184,14.194,33.636,30.8,33.894,10.839.172,18.151-7.4,23.055-17.893,13.678-29.421-30.367-49.637-48.691-26.668a24.2,24.2,0,0,0-4.9,9.291C645,189.394,645.858,191.287,645.427,190.254Z" transform="translate(79.727 3134.492)"/>
      <path id="Path_2416" data-name="Path 2416" class="cls-27" d="M656.745,166.241c9.033-5.248,19.356-7.4,29.593-2.667,28.475,13.076,14.28,43.1,14.28,43.1l-55.659-17.807S641.948,174.93,656.745,166.241Z" transform="translate(79.679 3135.708)"/>
      <path id="Path_2417" data-name="Path 2417" class="cls-35" d="M676.286,205.4c1.548-4.473,7.828-9.033,12.56-6.8,5.936,2.753,5.248,9.893,3.957,14.882-4.559-2.495-11.441-5.936-16.517-7.312C676.8,206.347,675.942,205.229,676.286,205.4Z" transform="translate(75.277 3130.529)"/>
      <circle id="Ellipse_1068" data-name="Ellipse 1068" class="cls-5" cx="11.527" cy="11.527" r="11.527" transform="translate(756.897 3330.683)"/>
      <rect id="Rectangle_536" data-name="Rectangle 536" class="cls-18" width="63.745" height="9.291" transform="translate(722.487 3461.441)"/>
      <path id="Path_2418" data-name="Path 2418" class="cls-5" d="M552.2,287.1h79.144l18.323,65.552h-79.23Z" transform="translate(92.605 3118.081)"/>
      <ellipse id="Ellipse_1069" data-name="Ellipse 1069" class="cls-18" cx="6.796" cy="6.796" rx="6.796" ry="6.796" transform="translate(684.378 3432.279)"/>
      <path id="Path_2419" data-name="Path 2419" class="cls-36" d="M747.4,345.017c-2.151-4.473-4.645-8.861-6.882-13.248-1.118-2.151-.344-3.269-3.183-3.269-1.29,0-3.785,1.979-4.99,2.323.344-.344-1.29-.086-.946-.344-5.592,2.065-10.753,3.7-16.173,6.28-2.581,1.2-5.162,2.237-7.828,3.269-.86-.172-1.721-.344-2.581-.43-3.011-.258-4.99.6-7.828,1.548-5.076,1.721-10.323,1.893-14.624,5.248-1.807,4.9,8.775,3.957,14.452,3.441-1.721,3.785-3.355,7.656-5.248,11.269-1.032,1.893-4.129,6.194-.774,7.828,2.495,1.2,2.753-.774,4.215-1.118,2.925-.6,2.237-.516,5.764.172,4.129.774,6.882-.774,10.323-.516,1.721.172,3.269,1.979,4.99.946.774-.43,1.2-4.129,1.462-4.9.774-2.323,1.29-4.9,1.893-7.484,2.409-.6,4.817-1.118,6.968-1.893C733.9,351.727,740.09,346.91,747.4,345.017Z" transform="translate(74.444 3112.296)"/>
      <path id="Path_1407" data-name="Path 1407" class="cls-27" d="M654.4,224.677c-2.667,0-5.764-1.634-8-4.3a12.7,12.7,0,0,1-3.011-6.452,6.011,6.011,0,0,1,1.721-5.42,5.4,5.4,0,0,1,3.441-1.2c2.667,0,5.764,1.634,8.086,4.3a12.7,12.7,0,0,1,3.011,6.452,6.011,6.011,0,0,1-1.721,5.42A5.471,5.471,0,0,1,654.4,224.677Zm-5.85-15.915a3.75,3.75,0,0,0-2.581.86,4.767,4.767,0,0,0-1.29,4.215,11.474,11.474,0,0,0,2.667,5.678c1.979,2.323,4.731,3.785,6.968,3.785a3.75,3.75,0,0,0,2.581-.86,4.767,4.767,0,0,0,1.29-4.215,11.474,11.474,0,0,0-2.667-5.678C653.542,210.225,650.875,208.762,648.552,208.762Z" transform="translate(79.871 3129.232)"/>
      <path id="Path_2420" data-name="Path 2420" class="cls-37" d="M742.331,252.134c-1.807-9.635-1.29-25.12,12.3-25.636,11.1-.43,21.851,16.431,27.356,24.345,13.334,19.184,22.453,38.282,27.356,60.648-17.291,17.033-43.959,30.711-65.466,40.776-6.538-10.151-14.28-21.076-17.979-32.518,17.205-9.291,28.647-13.506,43.443-21.937C763.063,292.911,745.084,267.1,742.331,252.134Z" transform="translate(68.333 3126.551)"/>
      <path id="Path_1409" data-name="Path 1409" class="cls-27" d="M710.669,207.715H710.5a.716.716,0,0,1-.516-.86c2.925-11.269,1.721-22.453-3.183-30.625a24.184,24.184,0,0,0-15.485-11.355.709.709,0,0,1,.344-1.376,25.38,25.38,0,0,1,16.259,12.044c5.076,8.431,6.366,19.958,3.355,31.658A.575.575,0,0,1,710.669,207.715Z" transform="translate(73.24 3135.355)"/>
      <path id="Path_1410" data-name="Path 1410" class="cls-5" d="M697.636,199.594l-3.871-1.376c.688-1.979,1.376-3.7,1.979-5.506,2.065-5.334,3.785-9.979,4.387-15.915,1.032-9.979-3.871-17.119-12.646-20.13-14.366-4.9-26.84,6.624-26.84,6.624a35.022,35.022,0,0,0-8.345,5.678c4.043-13.076,21.42-20.56,36.3-16.173,10.753,3.183,16.775,12.56,15.571,24.431-.688,6.452-2.495,11.269-4.645,16.947C698.926,195.895,698.324,197.7,697.636,199.594Z" transform="translate(78.618 3137.025)"/>
      <ellipse id="Ellipse_1070" data-name="Ellipse 1070" class="cls-38" cx="7.656" cy="7.656" rx="7.656" ry="7.656" transform="translate(760.769 3334.554)"/>
      <path id="texture-2_15_Tz9sKZXwmFyt_MPL-d6WV" class="cls-29" d="M772.1,243.166a.192.192,0,1,0,.086-.258h0c0,.086-.086.172-.086.258Zm14.8,15.743a.165.165,0,0,0,.086.258h0a.165.165,0,0,0,.258-.086h0a.165.165,0,0,0-.086-.258c-.086-.086-.172-.086-.258.086Zm-6.968-8.431a.243.243,0,1,0,.344,0A.262.262,0,0,0,779.933,250.478Zm-25.808,11.1a.53.53,0,0,0-.086.6.405.405,0,0,0,.516.086h0a.53.53,0,0,0,.086-.6c-.086-.172-.344-.172-.516-.086Zm7.656-6.108a.43.43,0,0,0,.516.688.51.51,0,0,0,.086-.6h0A.53.53,0,0,0,761.782,255.467Zm7.57-6.108a.405.405,0,0,0-.086.516h0a.405.405,0,0,0,.516.086h0a.53.53,0,0,0,.086-.6A.388.388,0,0,0,769.352,249.36Zm-20.9-7.742a.418.418,0,0,0,.516.258.361.361,0,0,0,.258-.516.418.418,0,0,0-.516-.258c-.172,0-.258.258-.258.516Zm9.377-2.839a.418.418,0,0,0,.516.258.361.361,0,0,0,.258-.516.418.418,0,0,0-.516-.258c-.172.086-.344.344-.258.516Zm13.936,31.658a.385.385,0,1,0,.688.344h0c.086-.172.086-.43-.086-.516h0A.57.57,0,0,0,771.761,270.436Zm4.731-8.517a.385.385,0,1,0,.516-.172h0c-.172-.172-.43-.086-.516.172Zm4.645-8.6a.345.345,0,0,0,.172.516h0a.345.345,0,0,0,.516-.172h0a.385.385,0,1,0-.688-.344Zm-35.185-20.99a.355.355,0,1,0,.258-.43h0A.732.732,0,0,0,745.953,232.326Zm20.388,30.281c-.086.172-.086.43.086.516a.405.405,0,0,0,.516-.086h0a.405.405,0,0,0-.086-.516h0a.324.324,0,0,0-.516.086Zm4.9-7.226a.37.37,0,1,0,.6.43h0a.405.405,0,0,0-.086-.516h0c-.258-.086-.43-.086-.516.086Zm4.817-7.226a.405.405,0,0,0,.086.516h0a.405.405,0,0,0,.516-.086h0a.405.405,0,0,0-.086-.516h0a.405.405,0,0,0-.516.086Zm-19.614-1.893c-.172.086-.172.344-.086.516s.344.172.516.086.172-.344.086-.516-.344-.172-.516-.086Zm7.312-4.817a.324.324,0,0,0-.086.516h0c.086.172.344.172.516.086s.172-.344.086-.516-.344-.172-.516-.086Zm20.13,23.829a.473.473,0,0,0,.258.43h0c.172.086.344-.086.43-.258h0a.473.473,0,0,0-.258-.43c-.258,0-.43.086-.43.258Zm1.721-8.517c0,.172.086.43.258.43s.43-.086.43-.258a.473.473,0,0,0-.258-.43.329.329,0,0,0-.43.258Zm-46.54-18.238a.425.425,0,0,0-.086.6.4.4,0,0,0,.6.086.425.425,0,0,0,.086-.6c-.086-.172-.344-.172-.6-.086Zm8.345-5.592a.43.43,0,1,0,.6.086.4.4,0,0,0-.6-.086Zm26.926,29.163a.439.439,0,1,0,.516-.344.379.379,0,0,0-.516.344Zm1.893-9.893a.472.472,0,0,0,.344.516c.258.086.43-.086.516-.344s-.086-.43-.344-.516a.472.472,0,0,0-.516.344Zm-19.872-2.753a.53.53,0,0,0,.086.6.454.454,0,0,0,.6-.172.425.425,0,0,0-.086-.6h0a.57.57,0,0,0-.6.172Zm5.592-8.345a.53.53,0,0,0,.086.6h0a.53.53,0,0,0,.6-.086h0a.53.53,0,0,0-.086-.6c-.258-.172-.516-.172-.6.086Zm-12.13,6.108a.43.43,0,1,0,.6-.086.425.425,0,0,0-.6.086Zm5.85-8.086a.425.425,0,0,0,.086.6.53.53,0,0,0,.6-.086.43.43,0,1,0-.688-.516Zm14.8,11.958c-.086.258.086.43.344.516s.43-.086.516-.344c.086-.172-.086-.43-.258-.516h0c-.344,0-.516.086-.6.344Z" transform="translate(66.518 3125.798)"/>
      <g id="Group_166" data-name="Group 166" transform="translate(154.75 3143.88)">
        <g id="Group_132" data-name="Group 132" transform="translate(14.92 14.93)">
          <path id="Path_1103" data-name="Path 1103" class="cls-39" d="M1308.328,285.3a7.612,7.612,0,1,1,7.61-7.612A7.619,7.619,0,0,1,1308.328,285.3Zm0-14.177a6.565,6.565,0,1,0,6.563,6.565A6.571,6.571,0,0,0,1308.328,271.123Z" transform="translate(-1300.719 -270.076)"/>
        </g>
        <g id="Group_133" data-name="Group 133" transform="translate(10.466 10.471)">
          <path id="Path_1104" data-name="Path 1104" class="cls-39" d="M1305.09,286.516a12.07,12.07,0,1,1,12.065-12.07A12.081,12.081,0,0,1,1305.09,286.516Zm0-23.091a11.023,11.023,0,1,0,11.018,11.023A11.031,11.031,0,0,0,1305.09,263.424Z" transform="translate(-1293.026 -262.376)"/>
        </g>
        <g id="Group_134" data-name="Group 134" transform="translate(5.569 5.572)">
          <path id="Path_1105" data-name="Path 1105" class="cls-39" d="M1301.328,287.658a16.97,16.97,0,1,1,16.961-16.97A16.984,16.984,0,0,1,1301.328,287.658Zm0-32.9a15.93,15.93,0,1,0,15.921,15.93A15.944,15.944,0,0,0,1301.328,254.758Z" transform="translate(-1284.368 -253.718)"/>
        </g>
        <g id="Group_135" data-name="Group 135">
          <path id="Path_1106" data-name="Path 1106" class="cls-39" d="M1297.279,289.18a22.542,22.542,0,1,1,22.529-22.542A22.561,22.561,0,0,1,1297.279,289.18Zm0-44.042a21.5,21.5,0,1,0,21.488,21.5A21.518,21.518,0,0,0,1297.279,245.137Z" transform="translate(-1274.75 -244.096)"/>
        </g>
      </g>
      <g id="Group_136" data-name="Group 136" transform="translate(149.737 3138.863)">
        <path id="Path_1107" data-name="Path 1107" class="cls-39" d="M1293.753,290.775a27.671,27.671,0,1,1,27.659-27.671A27.7,27.7,0,0,1,1293.753,290.775Zm0-54.293a26.624,26.624,0,1,0,26.612,26.624A26.647,26.647,0,0,0,1293.753,236.483Z" transform="translate(-1266.095 -235.433)"/>
      </g>
      <ellipse id="Ellipse_1071" data-name="Ellipse 1071" class="cls-40" cx="4.906" cy="4.907" rx="4.906" ry="4.907" transform="translate(905.249 3128.007)"/>
      <ellipse id="Ellipse_1072" data-name="Ellipse 1072" class="cls-40" cx="4.906" cy="4.907" rx="4.906" ry="4.907" transform="translate(484.249 3581.007)"/>
      <ellipse id="Ellipse_1073" data-name="Ellipse 1073" class="cls-40" cx="3.906" cy="3.907" rx="3.906" ry="3.907" transform="translate(946.249 3674.007)"/>
      <path id="Path_1357" data-name="Path 1357" class="cls-11" d="M608.474,282.777H430.4V214.3H608.474Zm-173.342-4.645h168.7V218.859h-168.7Z" transform="translate(109.625 3128.254)"/>
    </g>
  </g>
</svg>
