<svg xmlns="http://www.w3.org/2000/svg" xmlns:xlink="http://www.w3.org/1999/xlink" width="1199" height="832" viewBox="0 0 1199 832">
  <defs>
    <style>
      .cls-1 {
        clip-path: url(#clip-Web_1920_30);
      }

      .cls-2 {
        fill: url(#linear-gradient);
      }

      .cls-3 {
        fill: #e6edf8;
      }

      .cls-11, .cls-4, .cls-9 {
        isolation: isolate;
      }

      .cls-34, .cls-5 {
        fill: #fff;
      }

      .cls-6 {
        fill: #dae8fe;
      }

      .cls-7 {
        fill: #c3d9fd;
      }

      .cls-8 {
        fill: #afccfc;
      }

      .cls-9 {
        mix-blend-mode: overlay;
      }

      .cls-10 {
        fill: #f1f1f1;
      }

      .cls-11 {
        mix-blend-mode: color-burn;
      }

      .cls-12 {
        fill: #cbdefd;
      }

      .cls-13 {
        fill: url(#linear-gradient-2);
      }

      .cls-14 {
        fill: #ccdffd;
      }

      .cls-15 {
        fill: none;
      }

      .cls-16 {
        fill: #9cc0f3;
      }

      .cls-17 {
        fill: #78a9ef;
      }

      .cls-18 {
        fill: #1d72d8;
      }

      .cls-19 {
        clip-path: url(#clip-path);
      }

      .cls-20 {
        fill: #a1c3fc;
      }

      .cls-21 {
        clip-path: url(#clip-path-2);
      }

      .cls-22 {
        fill: #23286b;
      }

      .cls-23 {
        fill: #d6d7d8;
      }

      .cls-24 {
        fill: #f2a19c;
      }

      .cls-25 {
        fill: #ffbeb6;
      }

      .cls-26 {
        fill: url(#linear-gradient-3);
      }

      .cls-27 {
        fill: #d62929;
      }

      .cls-28 {
        fill: #151a4f;
      }

      .cls-29 {
        fill: url(#linear-gradient-4);
      }

      .cls-30 {
        fill: url(#linear-gradient-5);
      }

      .cls-31 {
        fill: #e94a47;
      }

      .cls-32 {
        fill: #89b3f4;
      }

      .cls-33 {
        fill: url(#linear-gradient-8);
      }

      .cls-34 {
        opacity: 0.75;
      }
    </style>
    <linearGradient id="linear-gradient" y1="0.5" x2="1" y2="0.5" gradientUnits="objectBoundingBox">
      <stop offset="0" stop-color="#428dfc"/>
      <stop offset="1" stop-color="#1d72d8"/>
    </linearGradient>
    <linearGradient id="linear-gradient-2" y1="0.5" x2="1" y2="0.5" gradientUnits="objectBoundingBox">
      <stop offset="0" stop-color="#23286b"/>
      <stop offset="1" stop-color="#151a4f"/>
    </linearGradient>
    <clipPath id="clip-path">
      <rect id="Rectangle_57" data-name="Rectangle 57" width="179" height="99" transform="translate(0.064 -0.352)"/>
    </clipPath>
    <clipPath id="clip-path-2">
      <rect id="Rectangle_58" data-name="Rectangle 58" width="246" height="407" transform="translate(0.457 -0.337)"/>
    </clipPath>
    <linearGradient id="linear-gradient-3" y1="0.5" x2="1" y2="0.5" gradientUnits="objectBoundingBox">
      <stop offset="0" stop-color="#e94a47"/>
      <stop offset="1" stop-color="#d62929"/>
    </linearGradient>
    <linearGradient id="linear-gradient-4" x1="0.658" y1="0.554" x2="0.201" y2="0.013" xlink:href="#linear-gradient-2"/>
    <linearGradient id="linear-gradient-5" y1="0.5" x2="1" y2="0.5" gradientUnits="objectBoundingBox">
      <stop offset="0" stop-color="#a1c3fc"/>
      <stop offset="1" stop-color="#89b3f4"/>
    </linearGradient>
    <linearGradient id="linear-gradient-8" x1="0.5" y1="0.882" x2="0.5" y2="0.16" xlink:href="#linear-gradient-5"/>
    <clipPath id="clip-Web_1920_30">
      <rect width="1199" height="832"/>
    </clipPath>
  </defs>
  <g id="Web_1920_30" data-name="Web 1920 – 30" class="cls-1">
    <rect class="cls-5" width="1199" height="832"/>
    <g id="Group_870" data-name="Group 870" transform="translate(10 -4046)">
      <path id="Path_1913" data-name="Path 1913" class="cls-2" d="M685.005,971.582H0v104.377H685.005c27.2,0,49.457-23.485,49.457-52.188S712.207,971.582,685.005,971.582Z" transform="translate(-10.201 3770.189)"/>
      <path id="texture-2_7_-i0" class="cls-3" d="M1105.548,273.269a.813.813,0,1,0-.594.986h0a.811.811,0,0,0,.594-.986Zm-50.476-66.533a.833.833,0,0,0-.278-1.146h0a.762.762,0,0,0-1.055.221.434.434,0,0,0-.052.095.8.8,0,0,0,.236,1.108.844.844,0,0,0,1.148-.278Zm23.4,35.341a.909.909,0,0,0,.16-1.189.848.848,0,1,0-1.348,1.029A.913.913,0,0,0,1078.471,242.077Zm103.68-32.7a1.586,1.586,0,0,0,.439-2.175,1.507,1.507,0,0,0-2.062-.524.464.464,0,0,0-.07.045,1.586,1.586,0,0,0-.439,2.175,1.547,1.547,0,0,0,2.133.478Zm-31.648,20.6a1.569,1.569,0,0,0-1.738-2.612,1.545,1.545,0,0,0-.478,2.132h0A1.675,1.675,0,0,0,1150.5,229.982Zm-31.722,20.606a1.535,1.535,0,0,0,.466-2.126.523.523,0,0,1-.03-.043,1.508,1.508,0,0,0-2.062-.524.462.462,0,0,0-.07.045,1.675,1.675,0,0,0-.479,2.217A1.594,1.594,0,0,0,1118.781,250.588ZM1195.932,289a1.551,1.551,0,1,0-1.223,1.859,1.6,1.6,0,0,0,1.223-1.859Zm-37.164,6.912a1.551,1.551,0,1,0-1.223,1.859,1.6,1.6,0,0,0,1.223-1.859Zm-40.879-127.7a1.577,1.577,0,0,0-.436-2.175,1.524,1.524,0,0,0-2.125.379s-.006.009-.01.012a1.5,1.5,0,0,0,.257,2.1c.031.023.062.047.1.075A1.664,1.664,0,0,0,1117.889,168.212Zm-21.422,31.178a1.662,1.662,0,0,0-.392-2.213,1.579,1.579,0,0,0-2.174.437,1.554,1.554,0,0,0,.4,2.158l.022.017a1.524,1.524,0,0,0,2.122-.376C1096.461,199.4,1096.465,199.4,1096.467,199.39Zm-21.381,31.134a1.493,1.493,0,0,0-.331-2.089.326.326,0,0,0-.061-.039,1.551,1.551,0,0,0-2.169.327c-.017.022-.031.04-.047.062a1.568,1.568,0,1,0,2.6,1.758A.143.143,0,0,1,1075.086,230.524Zm126.651,95.1a1.39,1.39,0,1,0-2.77.233,1.389,1.389,0,0,0,1.5,1.269h0A1.41,1.41,0,0,0,1201.737,325.623ZM1135.721,200.74a1.472,1.472,0,0,0-.2-2.017,1.346,1.346,0,0,0-1.9.152l-.036.049a1.381,1.381,0,0,0,.136,1.957l.022.017a1.461,1.461,0,0,0,1.974-.159Zm-21.657,25.8a1.383,1.383,0,0,0-.195-1.939,1.346,1.346,0,0,0-1.9.152l-.036.049a1.392,1.392,0,0,0,.132,1.962l.022.017a1.435,1.435,0,0,0,1.975-.242Zm-21.69,25.917a1.391,1.391,0,0,0-.132-1.962c-.009-.006-.012-.01-.022-.017a1.315,1.315,0,0,0-1.856.095,1.062,1.062,0,0,0-.084.1,1.391,1.391,0,0,0,.132,1.962l.022.017a1.425,1.425,0,0,0,1.94-.2Zm74.65,15.316a1.415,1.415,0,0,0,.553-1.9,1.376,1.376,0,0,0-1.856-.592,1.463,1.463,0,0,0-.634,1.9,1.447,1.447,0,0,0,1.936.6Zm-29.944,15.58a1.339,1.339,0,0,0,.635-1.783.407.407,0,0,1-.034-.075,1.375,1.375,0,0,0-1.856-.592,1.463,1.463,0,0,0-.634,1.9,1.4,1.4,0,0,0,1.888.555ZM1069.413,183.18a1.323,1.323,0,0,0-.825-1.676.668.668,0,0,0-.079-.025,1.392,1.392,0,0,0-1.766.86.4.4,0,0,0-.013.045,1.441,1.441,0,0,0,.948,1.744,1.368,1.368,0,0,0,1.722-.886.176.176,0,0,1,.013-.062ZM1059.289,215.4a1.435,1.435,0,0,0-.906-1.78,1.411,1.411,0,0,0-.872,2.683,1.374,1.374,0,0,0,1.755-.829.192.192,0,0,0,.023-.074Zm171.445,89.186a1.673,1.673,0,0,0,.636-2.215,1.615,1.615,0,0,0-2.172-.676,1.653,1.653,0,0,0-.636,2.215,1.614,1.614,0,0,0,2.172.676Zm-34.373,18.344a1.609,1.609,0,1,0-2.172-.676,1.612,1.612,0,0,0,2.172.676Zm-91.591-123.368a1.692,1.692,0,0,0-1.107-2.056,1.627,1.627,0,0,0-.914,3.121,1.659,1.659,0,0,0,2.021-1.065Zm-11.312,37.279a1.653,1.653,0,0,0-1.064-2.018,1.613,1.613,0,0,0-.953,3.082,1.644,1.644,0,0,0,2.017-1.064Zm75.238,18.594a1.719,1.719,0,0,0-.232-2.3,1.627,1.627,0,0,0-2.256.274,1.582,1.582,0,0,0,.171,2.235l.027.019a1.62,1.62,0,0,0,2.29-.233Zm-24.741,30.143a1.635,1.635,0,0,0-.227-2.292l-.005,0a1.57,1.57,0,0,0-2.21.231h0a1.6,1.6,0,0,0,2.443,2.065Zm48.955-18.844a1.6,1.6,0,1,0-2.3.152,1.63,1.63,0,0,0,2.3-.152Zm-25.844,28.958a1.629,1.629,0,0,0-.157-2.293,1.654,1.654,0,0,0-2.255.114,1.715,1.715,0,0,0,.114,2.334,1.673,1.673,0,0,0,2.3-.155Zm-51.877-52.262a1.647,1.647,0,0,0-1.025-2.059,1.589,1.589,0,0,0-2.017.987,1.568,1.568,0,0,0,.878,2.033.23.23,0,0,0,.068.022,1.6,1.6,0,0,0,2.077-.937.11.11,0,0,0,.02-.047Z" transform="translate(-352.469 4030.217)"/>
      <g id="Group_578" data-name="Group 578" class="cls-4" transform="translate(965.135 4124.705)">
        <g id="Group_138" data-name="Group 138" transform="translate(22.094 22.105)">
          <path id="Path_1108" data-name="Path 1108" class="cls-5" d="M1032.656,49.486a8.425,8.425,0,1,1,8.421-8.425A8.432,8.432,0,0,1,1032.656,49.486Zm0-15.624a7.2,7.2,0,1,0,7.2,7.2A7.205,7.205,0,0,0,1032.656,33.862Z" transform="translate(-1024.234 -32.637)"/>
        </g>
        <g id="Group_139" data-name="Group 139" transform="translate(17.185 17.194)">
          <path id="Path_1109" data-name="Path 1109" class="cls-5" d="M1030.317,52.058a13.336,13.336,0,1,1,13.33-13.336A13.349,13.349,0,0,1,1030.317,52.058Zm0-25.448a12.111,12.111,0,1,0,12.106,12.111A12.122,12.122,0,0,0,1030.317,26.609Z" transform="translate(-1016.986 -25.385)"/>
        </g>
        <g id="Group_140" data-name="Group 140" transform="translate(11.661 11.668)">
          <path id="Path_1110" data-name="Path 1110" class="cls-5" d="M1027.685,54.951a18.862,18.862,0,1,1,18.855-18.862A18.88,18.88,0,0,1,1027.685,54.951Zm0-36.5a17.637,17.637,0,1,0,17.631,17.637A17.653,17.653,0,0,0,1027.685,18.451Z" transform="translate(-1008.831 -17.227)"/>
        </g>
        <g id="Group_141" data-name="Group 141" transform="translate(5.524 5.526)">
          <path id="Path_1111" data-name="Path 1111" class="cls-5" d="M1024.761,58.164a25,25,0,1,1,24.992-25A25.026,25.026,0,0,1,1024.761,58.164Zm0-48.78a23.777,23.777,0,1,0,23.767,23.777A23.8,23.8,0,0,0,1024.761,9.384Z" transform="translate(-999.769 -8.159)"/>
        </g>
        <g id="Group_142" data-name="Group 142">
          <path id="Path_1112" data-name="Path 1112" class="cls-5" d="M1022.13,61.059a30.529,30.529,0,1,1,30.516-30.53A30.557,30.557,0,0,1,1022.13,61.059Zm0-59.832a29.3,29.3,0,1,0,29.291,29.3A29.33,29.33,0,0,0,1022.13,1.227Z" transform="translate(-991.614)"/>
        </g>
      </g>
      <g id="Group_579" data-name="Group 579" transform="translate(256.723 4046.413)">
        <path id="Path_1113" data-name="Path 1113" class="cls-6" d="M65.291,29.1a46.889,46.889,0,0,0,93.759,0Z" transform="translate(-65.291 -29.097)"/>
        <path id="Path_1114" data-name="Path 1114" class="cls-7" d="M141.279,29.1a30.927,30.927,0,0,0,61.841,0Z" transform="translate(-89.811 -29.097)"/>
        <path id="Path_1115" data-name="Path 1115" class="cls-8" d="M190.333,29.1a36.792,36.792,0,0,0,73.569,0Z" transform="translate(-105.64 -29.097)"/>
      </g>
      <g id="Group_581" data-name="Group 581" class="cls-9" transform="translate(532.918 4249.694)">
        <path id="Path_1123" data-name="Path 1123" class="cls-10" d="M1209.7,692.513v40.366h40.353Z" transform="translate(-753.409 -236.022)"/>
        <path id="Path_1124" data-name="Path 1124" class="cls-10" d="M1173.031,655.823V787.489h42.027V697.874Z" transform="translate(-807.993 -290.632)"/>
        <path id="Path_1125" data-name="Path 1125" class="cls-10" d="M1136.356,619.133V842.1h42.033V661.184Z" transform="translate(-862.579 -345.242)"/>
        <path id="Path_1126" data-name="Path 1126" class="cls-10" d="M1099.682,582.443V896.71h42.032V624.494Z" transform="translate(-917.166 -399.853)"/>
        <path id="Path_1127" data-name="Path 1127" class="cls-10" d="M1063.01,545.755V951.317h42.028V587.8Z" transform="translate(-971.75 -454.46)"/>
        <path id="Path_1128" data-name="Path 1128" class="cls-10" d="M1026.336,509.067v496.857h42.032V551.113Z" transform="translate(-1026.336 -509.067)"/>
      </g>
      <g id="Group_582" data-name="Group 582" class="cls-11" transform="translate(238.209 4387.753)">
        <path id="Path_1129" data-name="Path 1129" class="cls-12" d="M515.87,768.909l-56.491-72.667,62.858,136.725,23.149.139Z" transform="translate(-208.975 -552.905)"/>
        <path id="Path_1130" data-name="Path 1130" class="cls-12" d="M387.249,602.968l-1.111,1.745L513.965,882.742l23.152.141-98.05-213.266Z" transform="translate(-248.285 -602.968)"/>
        <path id="Path_1131" data-name="Path 1131" class="cls-12" d="M368.2,639.587l107.813,234.5,23.152.141L381.612,618.55Z" transform="translate(-257.914 -594.604)"/>
        <path id="Path_1132" data-name="Path 1132" class="cls-12" d="M350.256,667.723l87.8,190.976,23.152.141L363.669,646.686Z" transform="translate(-267.543 -579.503)"/>
        <path id="Path_1133" data-name="Path 1133" class="cls-12" d="M332.316,695.858,400.1,843.311l23.152.138L345.729,674.824Z" transform="translate(-277.172 -564.4)"/>
        <path id="Path_1134" data-name="Path 1134" class="cls-12" d="M314.374,724l47.78,103.927,23.149.138-57.516-125.1Z" transform="translate(-286.802 -549.3)"/>
        <path id="Path_1135" data-name="Path 1135" class="cls-12" d="M296.432,752.134,324.2,812.529l23.149.145-37.505-81.578Z" transform="translate(-296.432 -534.199)"/>
      </g>
      <path id="Path_1914" data-name="Path 1914" class="cls-12" d="M756.821,1007.694c17-3.187,34.231-6.855,47.95-13.688s23.428-17.5,20.7-28.089c-3.629-14.1-26.6-23.024-47.876-29.323A895.053,895.053,0,0,0,676.148,913.03c-17.115-2.957-37.468-7.26-41.238-17.732a9.71,9.71,0,0,1-.409-1.555c-9.447-1.339-18.812-2.936-28.073-4.873-15.855-3.316-31.992-7.916-43.1-16.984s-15.562-23.7-6.226-33.822c8.039-8.716,26.5-13.965,40.487-15.384,66.566-6.754,97.924-9.1,180.851-11.756-141.568-2.459-215.564-.943-332.292,3.8-70.027,2.843-205.992,25.948-175.935,77.218,10.311,17.587,11.451,30.976,88.742,36.316,45.08,3.116,144.274,4.027,135.977,20.294-13.8,27.044-218.4,18.3-265.455,22.383-41.863,3.633-97.717,19-102.4,50.251,193.814.756,390.117-.746,580,.422q11.087.068,22.2.242a5.638,5.638,0,0,1,.07-.831C730.614,1013.53,744.88,1009.933,756.821,1007.694Z" transform="translate(28.494 3822.408)"/>
      <path id="Path_1915" data-name="Path 1915" class="cls-13" d="M419.141,896.685c-14.16-4.629-88.024-21.669-109.825-25.839-14.661-2.805-30.6-4.939-42.883-9.042S246.422,850.8,253.8,845.29c8.182-6.107,29.351-7.461,47.389-8.539,15.552-.93,30.957-2.2,46.112-3.8,3.433-.362,7.154-.825,9.048-1.954,2.533-1.512.481-3.623-3.253-4.732s-8.639-1.464-13.348-1.751c-49.542-3.015-100.162-2.412-150.179-.838Q133.6,825.436,78.095,828.8c-26.413,1.6-53.209,3.557-78.095,7.1v33.85c24.453,3.035,48.357,6.688,71.475,10.94,19.616,3.608,40.789,8.72,44.134,16.8,2.513,6.065-6.439,12.176-19.085,16.091s-28.528,6.015-44.2,7.841c-11.008,1.281-24.159,3.342-25.333,7.63-.8,2.927,5.015,5.656,12.089,6.946s15.186,1.454,23.048,1.594l143.5,2.548c30.573.543,134.728-2.361,156.04-3.946,17.27-1.284,34.87-2.613,50.215-5.842s28.336-8.738,30.254-15.282C444.184,908.069,433.3,901.314,419.141,896.685Z" transform="translate(0 3818.337)"/>
      <path id="Path_1916" data-name="Path 1916" class="cls-12" d="M1157.709,1055.679c33.219-5.371,71.677-19.835,72.139-45.241.358-19.673-23.263-34.776-46.76-43.636-92.865-35.019-204.667-18.327-306.844-32.831a9.584,9.584,0,0,0,.409,1.558c3.77,10.489,24.123,14.8,41.238,17.763A893.388,893.388,0,0,1,1019.341,976.9c21.281,6.311,44.247,15.246,47.876,29.374,2.725,10.608-6.985,21.293-20.7,28.138s-30.947,10.519-47.95,13.712c-11.942,2.243-26.209,5.843-27.482,13.344a5.5,5.5,0,0,0-.07.833C1033.632,1063.213,1096.625,1065.557,1157.709,1055.679Z" transform="translate(-213.252 3782.326)"/>
      <g id="Group_585" data-name="Group 585" transform="translate(1016.102 4708.526)">
        <path id="Path_1152" data-name="Path 1152" class="cls-14" d="M1254.349,756.8l-.212-2.606-5.567-7.161.788,9.736Z" transform="translate(-1177.496 -702.877)"/>
        <path id="Path_1153" data-name="Path 1153" class="cls-14" d="M1231.677,725.3l1.977,24.392,4.989.03-1.4-17.263Z" transform="translate(-1172.045 -695.865)"/>
        <path id="Path_1154" data-name="Path 1154" class="cls-14" d="M1214.784,703.57l3.164,39.048,4.99.031-2.587-31.919Z" transform="translate(-1166.594 -688.853)"/>
        <path id="Path_1155" data-name="Path 1155" class="cls-14" d="M1197.891,681.842l4.351,53.7,4.99.031L1203.458,689Z" transform="translate(-1161.143 -681.842)"/>
        <path id="Path_1156" data-name="Path 1156" class="cls-14" d="M1183.916,692.845l3.561,43.949,4.988.031-4.125-50.919Z" transform="translate(-1156.633 -683.153)"/>
        <path id="Path_1157" data-name="Path 1157" class="cls-14" d="M1170.49,713.9l2.4,29.626,4.99.029-2.965-36.594Z" transform="translate(-1152.301 -689.948)"/>
        <path id="Path_1158" data-name="Path 1158" class="cls-14" d="M1157.064,734.958l1.24,15.3,4.989.03-1.8-22.27Z" transform="translate(-1147.969 -696.743)"/>
        <path id="Path_1159" data-name="Path 1159" class="cls-14" d="M1143.635,756.015l.081.977,4.99.03-.644-7.947Z" transform="translate(-1143.635 -703.537)"/>
      </g>
      <path id="Path_1917" data-name="Path 1917" class="cls-15" d="M1131.078,1013.885l12.316,8.477A52.613,52.613,0,0,0,1131.078,1013.885Z" transform="translate(-295.482 3756.539)"/>
      <path id="Path_1918" data-name="Path 1918" class="cls-5" d="M1044.354,1013.383q-2.266,1.078-4.312,2.249l62.258,42.843q2.082-1.175,4-2.463Z" transform="translate(-266.107 3756.701)"/>
      <path id="Path_1919" data-name="Path 1919" class="cls-5" d="M1070.186,1076.186l-52.41-36.068a15.759,15.759,0,0,0-.7,4.589c0,.051,0,.1,0,.152l43.442,29.9Q1065.2,1075.629,1070.186,1076.186Z" transform="translate(-258.697 3748.074)"/>
      <path id="Path_1920" data-name="Path 1920" class="cls-5" d="M1054.591,1009.04q-2.5.9-4.812,1.9l61.532,42.345c1.231-.909,2.4-1.851,3.477-2.823Z" transform="translate(-269.25 3758.103)"/>
      <path id="Path_1921" data-name="Path 1921" class="cls-5" d="M1041.293,1072.843a97.312,97.312,0,0,0,13.9,4.35l-37.684-25.933a18.886,18.886,0,0,0,3.49,7.618Z" transform="translate(-258.836 3744.479)"/>
      <path id="Path_1922" data-name="Path 1922" class="cls-5" d="M1021.42,1031.555a21,21,0,0,0-2.169,3.724l54.77,37.69q2.648-.774,5.22-1.624Z" transform="translate(-259.398 3750.837)"/>
      <path id="Path_1923" data-name="Path 1923" class="cls-5" d="M1097.425,1061.275l-62.154-42.772q-2.01,1.271-3.753,2.634l61.421,42.268c1.251-.551,2.484-1.117,3.686-1.716C1096.892,1061.552,1097.157,1061.413,1097.425,1061.275Z" transform="translate(-263.355 3755.049)"/>
      <path id="Path_1924" data-name="Path 1924" class="cls-5" d="M1027.511,1024.494a31.435,31.435,0,0,0-3.081,3.1l59.013,40.611c1.656-.59,3.275-1.216,4.866-1.867Z" transform="translate(-261.07 3753.116)"/>
      <path id="Path_1925" data-name="Path 1925" class="cls-5" d="M1078.3,1002.565q-2.961.557-5.785,1.237l55.3,38.056a21.992,21.992,0,0,0,2-3.841Z" transform="translate(-276.584 3760.192)"/>
      <path id="Path_1926" data-name="Path 1926" class="cls-5" d="M1135.159,1030.318l-43.338-29.824q-3.216.368-6.313.872l49.189,33.851A15.139,15.139,0,0,0,1135.159,1030.318Z" transform="translate(-280.777 3760.86)"/>
      <path id="Path_1927" data-name="Path 1927" class="cls-5" d="M1134.319,1018.6,1122,1010.126a137.154,137.154,0,0,0-19.047-7.891l37.3,25.669A21.273,21.273,0,0,0,1134.319,1018.6Z" transform="translate(-286.408 3760.298)"/>
      <path id="Path_1928" data-name="Path 1928" class="cls-5" d="M1122.733,1044.535l-56.828-39.108q-2.728.731-5.291,1.576l59.263,40.783A33.178,33.178,0,0,0,1122.733,1044.535Z" transform="translate(-272.746 3759.268)"/>
      <path id="Path_1929" data-name="Path 1929" class="cls-5" d="M1150.267,1086.167l-14.308-9.846q-1.913,1.288-4,2.464l12.254,8.432Q1147.307,1086.757,1150.267,1086.167Z" transform="translate(-295.768 3736.392)"/>
      <path id="Path_1930" data-name="Path 1930" class="cls-5" d="M1161.5,1082.176l-17.4-11.974c-1.082.973-2.247,1.914-3.477,2.823l15.334,10.553Q1158.809,1082.935,1161.5,1082.176Z" transform="translate(-298.564 3738.366)"/>
      <path id="Path_1931" data-name="Path 1931" class="cls-5" d="M1109.56,1093.212l-4.225-2.908q-2.568.856-5.22,1.624l1.26.868Q1105.4,1093.115,1109.56,1093.212Z" transform="translate(-285.492 3731.88)"/>
      <path id="Path_1932" data-name="Path 1932" class="cls-5" d="M1137.9,1089.37l-11.217-7.718c-.267.138-.532.277-.8.412-1.2.6-2.435,1.164-3.686,1.716l9.087,6.254Q1134.652,1089.777,1137.9,1089.37Z" transform="translate(-292.615 3734.671)"/>
      <path id="Path_1933" data-name="Path 1933" class="cls-5" d="M1124.385,1091.746l-7.961-5.478c-1.591.652-3.21,1.279-4.866,1.867l5.538,3.811Q1120.791,1091.936,1124.385,1091.746Z" transform="translate(-289.184 3733.182)"/>
      <path id="Path_1934" data-name="Path 1934" class="cls-5" d="M1180.577,1071.709l-24.419-16.8a21.948,21.948,0,0,1-2,3.841l21.84,15.031Q1178.387,1072.792,1180.577,1071.709Z" transform="translate(-302.93 3743.302)"/>
      <path id="Path_1935" data-name="Path 1935" class="cls-5" d="M1188.076,1064.814l-29.48-20.287a15.17,15.17,0,0,1-.462,4.9l25.887,17.815Q1186.167,1066.075,1188.076,1064.814Z" transform="translate(-304.213 3746.651)"/>
      <path id="Path_1936" data-name="Path 1936" class="cls-5" d="M1163.6,1004.09c-3.469-.91-7.122-1.683-10.928-2.3l46.265,31.838c.035-.427.058-.856.058-1.288a15.691,15.691,0,0,0-.612-4.31Z" transform="translate(-302.449 3760.443)"/>
      <path id="Path_1937" data-name="Path 1937" class="cls-5" d="M1190.548,1054.809l-41.285-28.411a21.272,21.272,0,0,1,5.937,9.3l31.9,21.95A38.557,38.557,0,0,0,1190.548,1054.809Z" transform="translate(-301.352 3752.501)"/>
      <path id="Path_1938" data-name="Path 1938" class="cls-5" d="M1106.623,999.327q-3.515.146-6.92.455l2.2,1.516a137.217,137.217,0,0,1,19.048,7.891Z" transform="translate(-285.359 3761.237)"/>
      <path id="Path_1939" data-name="Path 1939" class="cls-5" d="M1117.851,999.133c-.859,0-1.712.01-2.564.025l65.845,45.312a25.9,25.9,0,0,0,2.691-3.365l-60.862-41.885Q1120.431,999.133,1117.851,999.133Z" transform="translate(-290.387 3761.299)"/>
      <path id="Path_1940" data-name="Path 1940" class="cls-5" d="M1178.687,1008.138l26.6,18.306C1201.257,1018.966,1191.663,1012.525,1178.687,1008.138Z" transform="translate(-310.846 3758.394)"/>
      <path id="Path_1941" data-name="Path 1941" class="cls-5" d="M1171.636,1077.39l-20.667-14.222a33.339,33.339,0,0,1-2.856,3.251l18.46,12.7Q1169.187,1078.308,1171.636,1077.39Z" transform="translate(-300.98 3740.636)"/>
      <path id="Path_1942" data-name="Path 1942" class="cls-5" d="M1132.637,999.554l57.884,39.834a17.682,17.682,0,0,0,1.574-4.133l-50.684-34.879Q1137.125,999.836,1132.637,999.554Z" transform="translate(-295.986 3761.164)"/>
      <path id="Path_1943" data-name="Path 1943" class="cls-16" d="M1183.088,966.8c-92.865-35.019-204.667-18.327-306.844-32.831a9.584,9.584,0,0,0,.409,1.558c3.77,10.489,24.123,14.8,41.238,17.763A893.388,893.388,0,0,1,1019.341,976.9c3.472,1.029,6.986,2.13,10.456,3.309a137.211,137.211,0,0,1,19.048,7.891,52.626,52.626,0,0,1,12.316,8.477,21.27,21.27,0,0,1,5.937,9.3c.038.133.086.261.118.4a14.588,14.588,0,0,1,.414,2.58,15.17,15.17,0,0,1-.462,4.9,17.808,17.808,0,0,1-.693,2.131,21.953,21.953,0,0,1-2,3.841c-.382.591-.8,1.176-1.239,1.754a33.325,33.325,0,0,1-2.856,3.251c-.509.511-1.039,1.017-1.591,1.514-1.082.973-2.247,1.914-3.477,2.823q-.912.672-1.872,1.322-1.913,1.288-4,2.464-1.044.589-2.125,1.146c-.268.138-.532.277-.8.412-1.2.6-2.435,1.164-3.686,1.716q-1.157.511-2.339,1c-1.591.652-3.211,1.278-4.866,1.867-.835.3-1.681.585-2.53.868q-2.568.856-5.22,1.624c-9.35,2.734-19.366,4.771-29.308,6.639-11.942,2.243-26.209,5.843-27.482,13.344a5.5,5.5,0,0,0-.07.833c62.617.913,125.609,3.26,186.694-6.617,33.219-5.371,71.677-19.835,72.139-45.241C1230.208,990.767,1206.585,975.663,1183.088,966.8Z" transform="translate(-213.252 3782.326)"/>
      <g id="Group_586" data-name="Group 586" transform="translate(814.344 4760.433)">
        <path id="Path_1187" data-name="Path 1187" class="cls-17" d="M1150.267,1086.167l-14.308-9.846q-1.913,1.288-4,2.464l12.254,8.432Q1147.307,1086.757,1150.267,1086.167Z" transform="translate(-1110.112 -1024.041)"/>
        <path id="Path_1188" data-name="Path 1188" class="cls-17" d="M1161.5,1082.176l-17.4-11.974c-1.082.973-2.247,1.914-3.477,2.823l15.334,10.553Q1158.809,1082.935,1161.5,1082.176Z" transform="translate(-1112.909 -1022.066)"/>
        <path id="Path_1189" data-name="Path 1189" class="cls-17" d="M1109.56,1093.212l-4.225-2.908q-2.568.856-5.22,1.624l1.26.868Q1105.4,1093.115,1109.56,1093.212Z" transform="translate(-1099.837 -1028.553)"/>
        <path id="Path_1190" data-name="Path 1190" class="cls-17" d="M1137.9,1089.37l-11.217-7.718c-.267.138-.532.277-.8.412-1.2.6-2.435,1.164-3.686,1.716l9.087,6.254Q1134.652,1089.777,1137.9,1089.37Z" transform="translate(-1106.96 -1025.761)"/>
        <path id="Path_1191" data-name="Path 1191" class="cls-17" d="M1124.385,1091.746l-7.961-5.478c-1.591.652-3.21,1.279-4.866,1.867l5.538,3.811Q1120.791,1091.936,1124.385,1091.746Z" transform="translate(-1103.529 -1027.25)"/>
        <path id="Path_1192" data-name="Path 1192" class="cls-17" d="M1180.577,1071.709l-24.419-16.8a21.948,21.948,0,0,1-2,3.841l21.84,15.031Q1178.387,1072.792,1180.577,1071.709Z" transform="translate(-1117.275 -1017.13)"/>
        <path id="Path_1193" data-name="Path 1193" class="cls-17" d="M1188.076,1064.814l-29.48-20.287a15.17,15.17,0,0,1-.462,4.9l25.887,17.815Q1186.167,1066.075,1188.076,1064.814Z" transform="translate(-1118.558 -1013.781)"/>
        <path id="Path_1194" data-name="Path 1194" class="cls-17" d="M1163.6,1004.09c-3.469-.91-7.122-1.683-10.928-2.3l46.265,31.838c.035-.427.058-.856.058-1.288a15.691,15.691,0,0,0-.612-4.31Z" transform="translate(-1116.795 -999.99)"/>
        <path id="Path_1195" data-name="Path 1195" class="cls-17" d="M1190.548,1054.809l-41.285-28.411a21.272,21.272,0,0,1,5.937,9.3l31.9,21.95A38.557,38.557,0,0,0,1190.548,1054.809Z" transform="translate(-1115.696 -1007.932)"/>
        <path id="Path_1196" data-name="Path 1196" class="cls-17" d="M1106.623,999.327q-3.515.146-6.92.455l2.2,1.516a137.217,137.217,0,0,1,19.048,7.891Z" transform="translate(-1099.703 -999.196)"/>
        <path id="Path_1197" data-name="Path 1197" class="cls-17" d="M1117.851,999.133c-.859,0-1.712.01-2.564.025l65.845,45.312a25.9,25.9,0,0,0,2.691-3.365l-60.862-41.885Q1120.431,999.133,1117.851,999.133Z" transform="translate(-1104.732 -999.133)"/>
        <path id="Path_1198" data-name="Path 1198" class="cls-17" d="M1178.687,1008.138l26.6,18.306C1201.257,1018.966,1191.663,1012.525,1178.687,1008.138Z" transform="translate(-1125.19 -1002.039)"/>
        <path id="Path_1199" data-name="Path 1199" class="cls-17" d="M1171.636,1077.39l-20.667-14.222a33.339,33.339,0,0,1-2.856,3.251l18.46,12.7Q1169.187,1078.308,1171.636,1077.39Z" transform="translate(-1115.324 -1019.796)"/>
        <path id="Path_1200" data-name="Path 1200" class="cls-17" d="M1132.637,999.554l57.884,39.834a17.682,17.682,0,0,0,1.574-4.133l-50.684-34.879Q1137.125,999.836,1132.637,999.554Z" transform="translate(-1110.331 -999.269)"/>
      </g>
      <g id="Group_587" data-name="Group 587" transform="translate(256.223 4715.118)">
        <path id="Path_1203" data-name="Path 1203" class="cls-18" d="M294.932,989.766l-15.1-10.393C282.832,983.442,288.1,987.017,294.932,989.766Z" transform="translate(-277.019 -947.442)"/>
        <path id="Path_1204" data-name="Path 1204" class="cls-18" d="M275.893,970l28.047,19.3q1.987.47,4.073.862l-32.331-22.249A11.337,11.337,0,0,0,275.893,970Z" transform="translate(-275.681 -943.745)"/>
        <path id="Path_1205" data-name="Path 1205" class="cls-18" d="M276.438,961.973l39.007,26.844q1.617.177,3.272.311l-41.7-28.7A12.464,12.464,0,0,0,276.438,961.973Z" transform="translate(-275.925 -941.33)"/>
        <path id="Path_1206" data-name="Path 1206" class="cls-18" d="M279.673,955.739l46.177,31.777q1.257.029,2.527.03l.334,0-48.041-33.061C280.315,954.9,279.98,955.314,279.673,955.739Z" transform="translate(-276.969 -939.41)"/>
        <path id="Path_1207" data-name="Path 1207" class="cls-18" d="M284.528,950.573,335.7,985.789q1.3-.068,2.579-.165l-52.473-36.112Q285.141,950.034,284.528,950.573Z" transform="translate(-278.536 -937.806)"/>
        <path id="Path_1208" data-name="Path 1208" class="cls-18" d="M290.542,946.19l54.6,37.579q1.188-.148,2.353-.322l-55.454-38.162Q291.272,945.726,290.542,946.19Z" transform="translate(-280.476 -936.442)"/>
        <path id="Path_1209" data-name="Path 1209" class="cls-18" d="M297.5,942.444,354.25,981.5q1.091-.216,2.157-.457L299.2,941.672Q298.331,942.048,297.5,942.444Z" transform="translate(-282.722 -935.276)"/>
        <path id="Path_1210" data-name="Path 1210" class="cls-18" d="M305.3,939.269l57.751,39.743q1-.281,1.973-.583l-57.845-39.807Q306.221,938.937,305.3,939.269Z" transform="translate(-285.237 -934.292)"/>
        <path id="Path_1211" data-name="Path 1211" class="cls-18" d="M313.887,936.642l57.676,39.691q.916-.343,1.8-.706L315.948,936.12Q314.9,936.37,313.887,936.642Z" transform="translate(-288.009 -933.485)"/>
        <path id="Path_1212" data-name="Path 1212" class="cls-18" d="M323.283,934.573,379.8,973.464q.824-.407,1.609-.833l-55.874-38.451Q324.395,934.364,323.283,934.573Z" transform="translate(-291.041 -932.859)"/>
        <path id="Path_1213" data-name="Path 1213" class="cls-18" d="M333.54,933.1l54.194,37.3q.727-.479,1.4-.977L336,932.847Q334.756,932.96,333.54,933.1Z" transform="translate(-294.351 -932.429)"/>
        <path id="Path_1214" data-name="Path 1214" class="cls-18" d="M344.768,932.31,395.326,967.1q.608-.565,1.153-1.149L347.474,932.23Q346.112,932.255,344.768,932.31Z" transform="translate(-297.974 -932.23)"/>
        <path id="Path_1215" data-name="Path 1215" class="cls-18" d="M357.2,932.3l45.3,31.172a15.694,15.694,0,0,0,.817-1.38l-43.08-29.645Q358.724,932.354,357.2,932.3Z" transform="translate(-301.985 -932.253)"/>
        <path id="Path_1216" data-name="Path 1216" class="cls-18" d="M371.314,933.421l37.721,25.959a11.583,11.583,0,0,0,.281-1.748l-34.432-23.7Q373.128,933.648,371.314,933.421Z" transform="translate(-306.54 -932.614)"/>
        <path id="Path_1217" data-name="Path 1217" class="cls-18" d="M393.575,938.2q-2.392-.809-4.982-1.488l25.888,17.816a13.489,13.489,0,0,0-1.108-2.7Z" transform="translate(-312.116 -933.676)"/>
      </g>
      <g id="Group_588" data-name="Group 588" class="cls-9" transform="translate(0.424 4446.456)">
        <path id="Path_1218" data-name="Path 1218" class="cls-12" d="M262.756,550.336,253.8,561.852l19.664,5.178Z" transform="translate(-114.822 -550.336)"/>
        <path id="Path_1219" data-name="Path 1219" class="cls-12" d="M224.489,599.124l63.273,16.661L276.2,597.774,234.15,586.7Z" transform="translate(-105.363 -562.07)"/>
        <path id="Path_1220" data-name="Path 1220" class="cls-12" d="M195.175,636.83l106.881,28.142L290.5,646.96,204.835,624.4Z" transform="translate(-95.903 -574.237)"/>
        <path id="Path_1221" data-name="Path 1221" class="cls-12" d="M165.864,674.534,316.35,714.16l-11.558-18.011L175.523,662.11Z" transform="translate(-86.445 -586.404)"/>
        <path id="Path_1222" data-name="Path 1222" class="cls-12" d="M136.549,712.241l194.1,51.107-11.558-18.011L146.208,699.814Z" transform="translate(-76.986 -598.571)"/>
        <path id="Path_1223" data-name="Path 1223" class="cls-12" d="M107.236,749.945l207.719,54.7,24.95.051-6.524-10.167-216.486-57Z" transform="translate(-67.527 -610.738)"/>
        <path id="Path_1224" data-name="Path 1224" class="cls-12" d="M77.921,787.651l109.821,28.916,57.289.117L87.582,775.226Z" transform="translate(-58.067 -622.905)"/>
        <path id="Path_1225" data-name="Path 1225" class="cls-12" d="M48.609,825.356,60.531,828.5l57.29.117L58.269,812.931Z" transform="translate(-48.609 -635.072)"/>
      </g>
      <g id="Group_589" data-name="Group 589" transform="translate(584.938 4697.352)">
        <g id="Group_157" data-name="Group 157" class="cls-19">
          <path id="Path_1227" data-name="Path 1227" class="cls-20" d="M178.763,91.508c.012-.627.048-1.25.048-1.88A89.406,89.406,0,0,0,0,89.628c0,.63.034,1.252.048,1.88A610.185,610.185,0,0,0,178.763,91.508Z" transform="translate(0 -0.111)"/>
        </g>
      </g>
      <g id="Group_590" data-name="Group 590" transform="translate(623.543 4378.337)">
        <g id="Group_164" data-name="Group 164" class="cls-21">
          <path id="Path_1228" data-name="Path 1228" class="cls-22" d="M257.909,187.573l-8.468,4.11a30.948,30.948,0,0,1-41.334-14.265L150.679,59.5a30.85,30.85,0,0,1,14.289-41.265l8.468-4.11A30.948,30.948,0,0,1,214.77,28.39L272.2,146.307A30.85,30.85,0,0,1,257.909,187.573Z" transform="translate(-47.615 -3.553)"/>
          <g id="Group_160" data-name="Group 160" transform="translate(130.429 33.883)">
            <path id="Path_1229" data-name="Path 1229" class="cls-23" d="M269.292,200.431a.359.359,0,0,1-.039-.716,24.878,24.878,0,0,0,8.134-2.355.359.359,0,1,1,.315.645,25.557,25.557,0,0,1-8.37,2.424Zm-8.575-.524a.329.329,0,0,1-.083-.01,25.68,25.68,0,0,1-8.019-3.4.359.359,0,1,1,.389-.6,24.978,24.978,0,0,0,7.8,3.309.359.359,0,0,1-.083.708Zm-9.668-4.6a.361.361,0,0,1-.22-.075,25.366,25.366,0,0,1-5.879-6.42.359.359,0,0,1,.605-.387,24.685,24.685,0,0,0,5.713,6.24.358.358,0,0,1-.219.642Zm-9.722-14a.36.36,0,0,1-.323-.2l-3.775-7.752a.359.359,0,0,1,.646-.315l3.775,7.752a.36.36,0,0,1-.323.516Zm-7.552-15.5a.359.359,0,0,1-.323-.2l-.944-1.938a.359.359,0,0,1,.646-.315l.944,1.938a.358.358,0,0,1-.165.48A.352.352,0,0,1,233.775,165.8Zm-4.719-9.69a.36.36,0,0,1-.323-.2l-3.775-7.752a.359.359,0,0,1,.646-.315l3.775,7.752a.36.36,0,0,1-.323.516Zm-7.551-15.5a.36.36,0,0,1-.323-.2l-3.775-7.752a.359.359,0,0,1,.646-.315l3.775,7.752a.36.36,0,0,1-.323.516Zm-4.719-9.69a.36.36,0,0,1-.323-.2l-3.775-7.752a.359.359,0,0,1,.646-.315l3.775,7.752a.358.358,0,0,1-.165.48A.354.354,0,0,1,216.785,130.916Zm-7.551-15.5a.359.359,0,0,1-.323-.2l-3.775-7.752a.359.359,0,0,1,.646-.315l3.775,7.752a.36.36,0,0,1-.323.516Zm-7.552-15.5a.359.359,0,0,1-.323-.2l-.944-1.938a.359.359,0,0,1,.646-.315l.944,1.938a.36.36,0,0,1-.323.516Zm-4.719-9.691a.36.36,0,0,1-.323-.2l-1.587-3.259a25.7,25.7,0,0,1-1.759-4.744.359.359,0,0,1,.7-.181,25.085,25.085,0,0,0,1.71,4.611l1.587,3.259a.358.358,0,0,1-.165.48A.351.351,0,0,1,196.963,90.216Zm-4.034-16.484H192.9a.359.359,0,0,1-.327-.389,25.57,25.57,0,0,1,2.232-8.41.36.36,0,0,1,.655.3,24.87,24.87,0,0,0-2.17,8.174A.359.359,0,0,1,192.929,73.732ZM240.359,64.1a.358.358,0,0,1-.317-.191,24.727,24.727,0,0,0-5.187-6.682.359.359,0,1,1,.485-.53,25.443,25.443,0,0,1,5.338,6.875.359.359,0,0,1-.149.486A.351.351,0,0,1,240.359,64.1Zm-44.25-.577a.366.366,0,0,1-.177-.046.359.359,0,0,1-.136-.49,25.369,25.369,0,0,1,5.518-6.731.359.359,0,1,1,.471.543,24.645,24.645,0,0,0-5.362,6.542A.36.36,0,0,1,196.109,63.522Zm31.746-10.816a.366.366,0,0,1-.139-.028c-.65-.272-1.321-.521-1.995-.738a.359.359,0,1,1,.222-.683c.692.224,1.382.479,2.051.759a.358.358,0,0,1,.193.47A.364.364,0,0,1,227.855,52.706Zm-18.947-.247a.359.359,0,0,1-.131-.693,25.465,25.465,0,0,1,8.539-1.74.381.381,0,0,1,.371.348.36.36,0,0,1-.349.37,24.724,24.724,0,0,0-8.3,1.691A.382.382,0,0,1,208.908,52.459Z" transform="translate(-192.568 -50.026)"/>
          </g>
          <path id="Path_1230" data-name="Path 1230" class="cls-24" d="M92.8,98.893c-5.879,6.5-12.3,14.709-14.237,19.681-1.087,2.789,1.341,12.091,2.22,19.223.868,3.738,17.946,8.823,19.371-8.051.3-3.554,2.464-8.374-.146-10.934-2.863-2.81-7.036-.18-10.237-2.621,2.985-5.778,4.944-9.312,6.458-15.508C96.844,98.418,93.964,98.244,92.8,98.893Z" transform="translate(-25.263 -31.805)"/>
          <g id="Group_161" data-name="Group 161" transform="translate(59.629 34.825)">
            <path id="Path_1231" data-name="Path 1231" class="cls-22" d="M104.924,160.791c-.976-1.653-1.984-3.305-3-4.965-5.269-8.635-10.718-17.564-12.7-28.193-2.587-13.89-1.345-34.2,7.493-45.96,4.908-6.532,31.345-29.29,32.467-30.255l3.757,4.354c-7.518,6.465-27.854,24.341-31.618,29.35-7.45,9.916-8.878,28.363-6.438,41.461,1.785,9.593,6.954,18.063,11.953,26.254,1.028,1.684,2.051,3.36,3.041,5.038Z" transform="translate(-88.037 -51.417)"/>
          </g>
          <path id="Path_1232" data-name="Path 1232" class="cls-25" d="M60.892,49.438c-.8.3-6.485.81-7.292.48-2.573-1.051.671-5.386,1.469-7.289,1.514-3.606,3.758-14.051,8.845-13.128C64.033,32.111,63.058,48.613,60.892,49.438Z" transform="translate(-16.981 -9.501)"/>
          <path id="Path_1233" data-name="Path 1233" class="cls-26" d="M304.818,525.784c2.823,16.422,16.272,32.2,13.45,50.09-21.823,1-71.17,1-94.79.634-.409-28.163,33.4-13.1,40.6-32.086,1.1-2.893-1.013-10.41.135-11.924,1.733-2.288,10.629-1.973,13.447-2.432C286.418,528.641,295.708,525.816,304.818,525.784Z" transform="translate(-72.112 -169.663)"/>
          <path id="Path_1234" data-name="Path 1234" class="cls-27" d="M81.344,404.562c2.823,16.422,16.272,32.2,13.45,50.09-21.823,1-71.169,1-94.791.634-.409-28.162,33.4-13.1,40.6-32.086,1.1-2.893-1.013-10.41.135-11.924,1.733-2.288,10.629-1.973,13.447-2.432C62.944,407.419,72.234,404.594,81.344,404.562Z" transform="translate(0 -130.546)"/>
          <path id="Path_1235" data-name="Path 1235" class="cls-28" d="M84.832,240.29c-21.978,2.356-66.593-15.069-75.491,16.421-3.968,14.043,6.182,35.185,10.276,48.855a515.079,515.079,0,0,0,17.338,49.694c1.176,2.824,4.456,7.7,4.784,10.925,1.1.669,40.681-.084,48.115.573-.345-11.256-1.368-17-6.851-32.5-2.737-7.741-10.394-11.242-11.927-19.409-1.456-7.759,1.892-16.77-7.9-22.212C87,306.447,131.545,324.3,157.023,303.462c14.568-11.914,17.82-33.683,6.346-48.6-10.956-14.239-27.432-15.448-44.726-14.576-11.28.569-21.485,1.8-33.034.639C84.76,242.11,83.892,238.856,84.832,240.29Z" transform="translate(-2.723 -76.661)"/>
          <path id="Path_1236" data-name="Path 1236" class="cls-29" d="M132.845,273.473c14.6,18.947,22.024,34.3,34.015,54.742,9.006,15.349,16.6,31.311,24.219,47.21q10.19,21.259,18.753,43.3c4.163,10.731,10.6,25.017,14.92,36.869,14.1.426,38.066.13,50.51.2.22-7.95,1.383-14.912-1.5-22.669-4.754-12.775-8.348-13.913-13.71-22.811-8.784-14.574,2.141-9.061-20.286-45.614-16.246-26.477-23.845-77.272-24.7-85.755-1.033-10.276-2.937-18.449-13.683-18.931-8.592-.385-18.428,1.907-27.414.682-18.332-2.5-46.717-16.182-64.881-16.418C112.615,251.423,123.707,261.612,132.845,273.473Z" transform="translate(-35.201 -78.825)"/>
          <path id="Path_1237" data-name="Path 1237" class="cls-24" d="M76.636,68.887c4.5,8.273,18.938,13.69,24.877,22.735,3.2-1.856,17.317-14.136,17.493-18.173.25-5.747-15.888-15.979-20.39-19.314C91.835,60.987,87.3,66.961,77.4,69.846,75.279,69.626,77.674,68.8,76.636,68.887Z" transform="translate(-24.682 -17.468)"/>
          <path id="Path_1238" data-name="Path 1238" class="cls-25" d="M77.277,20.191c-25.587,7.3-26.055,46.3,6.4,41.05,22.129-3.581,30.65-52.992,3.655-43.787C86.627,18.284,76.485,19.256,77.277,20.191Z" transform="translate(-18.927 -5.264)"/>
          <path id="Path_1239" data-name="Path 1239" class="cls-30" d="M116.365,78.042C95,87.322,97.734,101.349,97.9,125.206c.1,13.975.829,62.829.829,62.829s23.811,9.43,28.6,11.949a201.937,201.937,0,0,0,23.78,10.06c15.411,5.7,29.343,10.312,45.691,11.129,6.158.308,12.912,1.835,19.052-.362,4.617-28.427-17.438-63.131-29.743-87.6-7.458-14.83-15.6-27.558-27.639-38.825-6.287-5.885-22.958-15.6-26.1-16.58-1.9-.6-5.168-1.993-8.233-1.878A22.111,22.111,0,0,0,116.365,78.042Z" transform="translate(-31.526 -24.499)"/>
          <path id="Path_1240" data-name="Path 1240" class="cls-22" d="M56.468,49.039c5.806-.409,13.655-.5,20.6-.615a8.627,8.627,0,0,0,8.3-6.76c1.105-5.036,1.982-10.075,3.249-15.112,2.47.654-.337,2.256,1.983,3.153-2.675,12.508.286,34.589-12.195,41.5-5.59,3.1-15.951,4.542-19.8-.254C55.488,67.077,57.3,48.422,56.468,49.039Z" transform="translate(-18.221 -8.568)"/>
          <path id="Path_1241" data-name="Path 1241" class="cls-22" d="M107.348,31.4c.753-2.21,3.886-4.085,6.116-3.293,2.6.924,2.533,3.625,2.169,5.876-.636,3.936-5.072,9.577-9.431,9.9.589,3.577,5.243,9.588,9.208,7.484,4.21-2.234,4.5-8.529,4.87-12.457.432-4.561-.119-10.307-4.229-13.326-3.769-2.769-9.673.219-8.663,5.194C107.453,30.982,107.283,31.191,107.348,31.4Z" transform="translate(-34.27 -7.913)"/>
          <path id="Path_1242" data-name="Path 1242" class="cls-26" d="M53.2,25.544h51.174V14.332A14.344,14.344,0,0,0,90.013,0H78.782A25.565,25.565,0,0,0,53.2,25.544Z" transform="translate(-17.165)"/>
          <g id="Group_162" data-name="Group 162" transform="translate(18.501 24.66)">
            <path id="Path_1243" data-name="Path 1243" class="cls-31" d="M95.1,38.564H28.4a1.077,1.077,0,1,1,0-2.155H95.1a1.077,1.077,0,1,1,0,2.155Z" transform="translate(-27.316 -36.409)"/>
          </g>
          <path id="Path_1244" data-name="Path 1244" class="cls-25" d="M67.927,73.392H66.75A4.348,4.348,0,0,1,62.4,69.048V67.314a1.437,1.437,0,0,1,1.439-1.437h7a1.437,1.437,0,0,1,1.439,1.437v1.733A4.347,4.347,0,0,1,67.927,73.392Z" transform="translate(-20.135 -21.258)"/>
          <path id="Path_1245" data-name="Path 1245" class="cls-30" d="M137.767,94.714c15.858-18.786,38.529,4.463,53.962,14.306,11.759,7.5,47.246,25.592,43.167,41.721-5.556,21.964-35.431,10.735-48.562,5.148-19.015-8.091-36.9-16.82-46.7-36.4C136.52,113.28,132.222,101.284,137.767,94.714Z" transform="translate(-43.591 -28.267)"/>
          <path id="Path_1246" data-name="Path 1246" class="cls-32" d="M119.331,64.039c3.034,4.59,5.094,7.791,5.094,7.791S101.132,97.32,95.949,93.7c-1.679-1.173-3.893-2.787-5.8-4.189a3.506,3.506,0,0,1,.142-5.748c3.9-2.582,9.6-6.425,12.955-9,3.7-2.828,7.7-7.622,10.482-11.017A3.484,3.484,0,0,1,119.331,64.039Z" transform="translate(-28.63 -20.16)"/>
          <g id="Group_163" data-name="Group 163" transform="translate(83.884 26.259)">
            <path id="Path_1247" data-name="Path 1247" class="cls-22" d="M225.236,193.467c-14.024-3.794-26.2-11.591-48.265-30.9-30.1-26.342-53.123-49.018-53.123-80.8,0-8.292,16.126-35.881,28.261-43l2.918,4.954C144.6,49.839,129.6,75.9,129.6,81.77c0,29.367,22.173,51.106,51.162,76.476,21.313,18.652,32.914,26.14,45.976,29.674Z" transform="translate(-123.848 -38.769)"/>
          </g>
          <path id="Path_1248" data-name="Path 1248" class="cls-25" d="M136.846,125c-2.246-3.014-3.7-13.513-7.2-12.212-5.024,1.871-.331,15.664,2.159,17.958-3.5-1.088-9.294-3.541-12.986-4.041-5.074-.34.21,8.426,1.651,13.22,1.338,4.454,1.453,10.208,4.14,14.167,4.129,6.085,20.588,2.753,28.062,2.514.309-6.079.8-13.5-.72-19.395-2.3-8.924-3.062,1.59-8.634-4.669C140.444,129.306,138.648,127.415,136.846,125Z" transform="translate(-37.647 -36.358)"/>
          <path id="Path_1249" data-name="Path 1249" class="cls-33" d="M236.413,152.053c-3.465-2.776-7.23-3.24-14.494-4.51-7.593-1.328-63.329-6.6-63.329-6.6l-.183,48.732s33.908.026,50.561-.442c11.045-.31,18.018-1.118,26.117-9.371C241.324,173.5,248.4,161.661,236.413,152.053Z" transform="translate(-51.116 -45.48)"/>
          <path id="Path_1250" data-name="Path 1250" class="cls-25" d="M81.729,125.352c2.6,1.386,11.433,1.914,16.6,5.088,2.269,1.394.786,7.318-2.444,10.368-4.344,4.1-2.927,10.162-4.887,10.542-9.23-1.61-11-1.307-12.889-13.084-.425-2.647-1.756-7.206-.856-9.878C78.682,124.15,79.48,124.08,81.729,125.352Z" transform="translate(-24.83 -40.216)"/>
          <path id="texure_9_-i2" class="cls-34" d="M278.547,493.838a.23.23,0,1,0-.209.248h0a.232.232,0,0,0,.209-.248Zm-5.586.542a.253.253,0,0,0-.258-.221.234.234,0,0,0-.2.26.216.216,0,0,0,.222.21.13.13,0,0,0,.027,0,.229.229,0,0,0,.208-.247ZM267.407,473.2a.233.233,0,0,0-.027-.33h0a.214.214,0,0,0-.3.016.082.082,0,0,0-.019.024.226.226,0,0,0,.017.318.235.235,0,0,0,.33-.029Zm6.933,32.018a.225.225,0,1,0-.283.147.214.214,0,0,0,.276-.125A.085.085,0,0,0,274.34,505.217Zm-1.967-21.2a.254.254,0,0,0,.1-.323.24.24,0,0,0-.324-.1.236.236,0,0,0-.1.323A.256.256,0,0,0,272.374,484.013Zm-4.959,2.63a.229.229,0,0,0,.084-.313h0a.223.223,0,0,0-.293-.113l-.018.009a.244.244,0,0,0-.1.323A.254.254,0,0,0,267.415,486.643Zm26.78,33.425a.434.434,0,0,0-.245-.563l-.014-.006a.432.432,0,0,0-.557.246.006.006,0,0,1,0,0,.434.434,0,0,0,.245.563l.014.006a.432.432,0,0,0,.557-.246h0Zm-9.938-3.768a.444.444,0,0,0-.828-.318.026.026,0,0,0,0,.008.429.429,0,0,0,.246.555h0a.459.459,0,0,0,.583-.244Zm18.393-36.876a.445.445,0,0,0,.217-.584.425.425,0,0,0-.551-.234.149.149,0,0,0-.022.009.444.444,0,0,0-.217.585.436.436,0,0,0,.572.224Zm-19.432,8.692a.432.432,0,0,0,.222-.57.091.091,0,0,0-.007-.013.425.425,0,0,0-.551-.234.15.15,0,0,0-.022.009.47.47,0,0,0-.23.593.45.45,0,0,0,.588.215Zm-9.707,4.348a.44.44,0,1,0-.368-.8.434.434,0,0,0-.227.571h0a.443.443,0,0,0,.579.235l.015-.006Zm29.5,9.641a.437.437,0,1,0-.422.461.448.448,0,0,0,.422-.461Zm-10.642.312a.437.437,0,1,0-.422.461.448.448,0,0,0,.422-.461Zm-10.631.3a.475.475,0,1,0,0,.025A.075.075,0,0,0,281.734,502.72Zm4.835-37.491a.443.443,0,0,0-.026-.623.43.43,0,0,0-.607.013.008.008,0,0,0,0,0,.421.421,0,0,0-.021.595l.024.024A.472.472,0,0,0,286.569,465.229Zm-14.633,15.434a.42.42,0,0,0,0-.595.057.057,0,0,0-.016-.013.438.438,0,0,0-.618,0l-.016.015a.441.441,0,1,0,.645.6Zm31.088,31.851a.391.391,0,0,0-.781-.056.389.389,0,0,0,.362.417h0a.394.394,0,0,0,.419-.361Zm-9.478-.629a.4.4,0,0,0-.791-.07.39.39,0,0,0,.349.428l.024,0a.384.384,0,0,0,.417-.346.037.037,0,0,1,0-.015Zm-9.61-.379a.323.323,0,0,0,.129-.251.394.394,0,0,0-.362-.417.4.4,0,0,0-.432.367v0a.4.4,0,0,0,.149.339l.01.013a.272.272,0,0,0,.2.065.335.335,0,0,0,.3-.12Zm6.173-36.485a.414.414,0,0,0,.034-.568.381.381,0,0,0-.535-.04l-.013.012a.387.387,0,0,0-.048.549.008.008,0,0,0,0,0A.413.413,0,0,0,290.108,475.021Zm-14.32,12.472a.39.39,0,0,0,.049-.55l-.006-.006a.369.369,0,0,0-.52-.054.184.184,0,0,0-.028.025.39.39,0,0,0-.049.55l.006.006a.4.4,0,0,0,.548.029Zm-7.141,6.232a.395.395,0,0,0-.527-.587.412.412,0,0,0-.044.555.418.418,0,0,0,.571.032Zm27.243,1.241a.4.4,0,0,0,.237-.5.387.387,0,0,0-.49-.244.413.413,0,0,0-.26.5A.408.408,0,0,0,295.89,494.967ZM286.88,498a.376.376,0,0,0,.255-.468.109.109,0,0,1-.006-.022.387.387,0,0,0-.49-.244.413.413,0,0,0-.26.5A.4.4,0,0,0,286.88,498Zm-9,3.041a.329.329,0,1,0-.009.005A.021.021,0,0,1,277.878,501.037ZM268.2,475.786a.39.39,0,1,0-.7-.338.4.4,0,0,0,.169.514.389.389,0,0,0,.525-.154A.169.169,0,0,1,268.2,475.786Zm10.533,24.1a.229.229,0,1,0-.314-.084h0a.228.228,0,0,0,.314.084Zm-4.843,2.817a.242.242,0,0,0,.074-.326.231.231,0,0,0-.314-.084h0a.219.219,0,0,0-.091.3l.009.016a.238.238,0,0,0,.318.1Zm5.874,8.933a.249.249,0,0,0-.261-.2.227.227,0,0,0-.2.249s0,.008,0,.013a.221.221,0,0,0,.239.2l.021,0a.235.235,0,0,0,.2-.262Zm-10.659-18.405a.228.228,0,1,0-.361-.279.213.213,0,0,0,.014.3.137.137,0,0,0,.024.019.226.226,0,0,0,.317-.034.023.023,0,0,0,.006-.008Zm19.648,30.725a.253.253,0,0,0-.231-.273h-.008a.259.259,0,0,0-.286.226.1.1,0,0,1,0,.021.253.253,0,0,0,.231.273h.008a.274.274,0,0,0,.289-.247Zm-8.419-25.349a.245.245,0,0,0,.045-.343.108.108,0,0,0-.022-.023.262.262,0,0,0-.368-.024.287.287,0,0,0-.036.377.269.269,0,0,0,.381.014Zm-4.853,4.163a.264.264,0,0,0,.015-.379h0a.262.262,0,0,0-.368-.024.287.287,0,0,0-.036.377.291.291,0,0,0,.389.026Zm8.451,8.731a.314.314,0,0,0-.005-.113.259.259,0,0,0-.326-.167l-.009,0a.268.268,0,0,0-.175.32l.01.013a.259.259,0,0,0,.326.167l.009,0a.24.24,0,0,0,.17-.221ZM268.164,492.93a.261.261,0,0,0-.115-.352s-.006,0-.008,0a.257.257,0,0,0-.345.115.251.251,0,0,0,.086.346l.015.009a.275.275,0,0,0,.366-.115Zm43.848,15a.47.47,0,0,0,.274-.588.454.454,0,0,0-.574-.281.466.466,0,0,0-.274.588.451.451,0,0,0,.574.281Zm-10.365,3.605a.451.451,0,1,0-.574-.281.452.452,0,0,0,.574.281Zm-10.356,3.617a.466.466,0,0,0,.275-.587.451.451,0,1,0-.275.587Zm-14.517-31.945a.46.46,0,0,0-.209-.6.453.453,0,1,0-.4.813h0a.46.46,0,0,0,.607-.208ZM272,493.059a.457.457,0,0,0-.209-.6.477.477,0,0,0-.62.218.457.457,0,0,0,.235.6A.463.463,0,0,0,272,493.059Zm16.7,5.85a.458.458,0,0,0,.037-.646h0a.442.442,0,0,0-.625-.031h0a.449.449,0,1,0,.586.68l0,0Zm-8.188,7.284a.444.444,0,0,0,.051-.626l-.006-.006a.458.458,0,1,0-.056.644Zm14.178-3.48a.456.456,0,0,0,.057-.643.466.466,0,0,0-.632-.065.48.48,0,0,0-.07.652.472.472,0,0,0,.645.055Zm-8.456,6.915a.456.456,0,0,0,.057-.643.45.45,0,0,0-.7.567h0a.472.472,0,0,0,.642.076Zm11.792,12.186a.449.449,0,0,0,.294-.558s0,0,0,0a.453.453,0,0,0-.558-.312.456.456,0,1,0,.264.872Zm-10.474,3.161a.45.45,0,1,0-.246-.865l-.012,0a.471.471,0,0,0-.306.571.448.448,0,0,0,.559.292s0,0,0,0Zm-5.014-39a.46.46,0,0,0-.2-.615.448.448,0,0,0-.6.187.439.439,0,0,0,.156.6.06.06,0,0,0,.018.009.453.453,0,0,0,.619-.17A.06.06,0,0,0,282.533,485.975Zm-5.166,9.611a.46.46,0,0,0-.2-.615.448.448,0,0,0-.6.187.439.439,0,0,0,.156.6.062.062,0,0,0,.018.009.453.453,0,0,0,.619-.17Zm9.023,8.9a.341.341,0,0,0-.528-.432.328.328,0,0,0,.03.46l.027.022A.341.341,0,0,0,286.39,504.483Zm-5.141,6.412a.342.342,0,0,0-.058-.481.347.347,0,0,0-.483.059.337.337,0,0,0,.048.474l.009.008a.353.353,0,0,0,.484-.06Zm12.651,9.33a.343.343,0,0,0,.129-.462.357.357,0,0,0-.464-.128.337.337,0,0,0-.132.46h0a.33.33,0,0,0,.443.143A.12.12,0,0,0,293.9,520.225Zm-7.224,3.983a.361.361,0,0,0,.142-.473.338.338,0,0,0-.461-.131h0a.327.327,0,0,0-.145.44l.007.011a.341.341,0,0,0,.455.154l0,0Z" transform="translate(-86.158 -149.883)"/>
        </g>
      </g>
      <path id="texture_1_-i0" class="cls-5" d="M316.659,112.271a.587.587,0,0,0-.439.747h0a.589.589,0,0,0,.747.44h0a.587.587,0,0,0,.439-.747h0a.588.588,0,0,0-.747-.44Zm-54.39,25.881a.613.613,0,0,0-.646,1.041h0a.587.587,0,0,0,.843-.2c.366-.269.1-.637-.2-.844Zm13.536,7.274a.613.613,0,0,0-.648,1.041h0a.588.588,0,0,0,.844-.2h0c.183-.135.1-.637-.2-.844Zm12.34-27.578a.682.682,0,0,0,.809,1.1.715.715,0,0,0,.122-.794C288.83,117.627,288.513,117.579,288.145,117.849Zm9.714,12.062a.682.682,0,0,0,.809,1.1.72.72,0,0,0,.122-.8c-.246-.525-.723-.6-.93-.3ZM260,169.056a.644.644,0,0,0-.194,1.273h0a.693.693,0,0,0,.734-.54h0A.694.694,0,0,0,260,169.056Zm15.364,1.694a.644.644,0,1,0,.539.734h0a.692.692,0,0,0-.539-.734Zm24.747-61.981c-.183.135-.415.588-.122.8.135.183.587.415.8.122.183-.135.415-.588.122-.8h0c-.111-.343-.429-.391-.8-.122Zm7.7,11.428c-.183.135-.415.588-.122.8a.569.569,0,1,0,.917-.674h0a.719.719,0,0,0-.8-.122Zm-39.542,36.286c-.318-.048-.66.061-.709.38s.086.5.38.709h0c.318.048.66-.061.709-.38h0c.049-.318-.061-.661-.38-.709Zm13.419,2.7c-.318-.048-.66.061-.709.38s.086.5.38.709h0c.318.048.66-.061.709-.38h0c.049-.318-.061-.661-.38-.709Zm4.418-26.833a.613.613,0,1,0,.2.844.587.587,0,0,0-.2-.844Zm.988-29.96a.613.613,0,1,0,.2.844.588.588,0,0,0-.2-.844Zm13.134,8.839a.613.613,0,1,0,.2.844.588.588,0,0,0-.2-.844Zm13.317,8.705a.613.613,0,1,0,.2.844A1.218,1.218,0,0,0,313.538,119.932ZM273.7,167.73a.613.613,0,1,0,.747.44c.048-.318-.4-.551-.747-.44Zm59.829-57.279a.6.6,0,0,0-.954-.145m-51.14,23.773a.644.644,0,1,0,.539.734h0a.694.694,0,0,0-.539-.734Zm-.625-10.838a.644.644,0,0,0-.194,1.273.589.589,0,0,0,.734-.54.694.694,0,0,0-.539-.734ZM296.2,126.89a.693.693,0,0,0-.734.54.59.59,0,0,0,.539.734.66.66,0,1,0,.194-1.273Zm19.077-20.527a.588.588,0,0,0-.844.2h0c-.208.294-.1.637.172,1,.294.208.637.1,1-.172a.972.972,0,0,0-.331-1.028Zm1.831,6.138a.509.509,0,1,0,.221.685h0c.048-.317-.063-.66-.221-.685Z" transform="translate(-94.641 4116.638)"/>
    </g>
  </g>
</svg>
